<svg width="110" height="125" viewBox="0 0 110 125" fill="none" xmlns="http://www.w3.org/2000/svg">
<path d="M28.8271 47.9609C28.8271 49.7588 28.9989 51.2315 29.2644 52.3026C29.6215 53.518 30.0494 54.7005 30.5449 55.8409C30.7249 56.1692 30.8226 56.5548 30.826 56.9502C30.826 57.4475 30.5917 57.9448 30.0608 58.4229L27.5622 60.4885C27.2554 60.7557 26.892 60.9084 26.5159 60.9284C26.1255 60.9284 25.7195 60.6798 25.3291 60.2399C24.7933 59.5309 24.3124 58.7626 23.8925 57.9448C23.4864 57.1032 23.0804 56.166 22.6432 55.0567C19.5304 59.5577 15.6212 61.8082 10.9156 61.8082C7.57375 61.8082 4.90342 60.6224 2.95142 58.2699C0.999422 55.9174 0 52.7998 0 48.879C0 44.9581 1.18681 41.3433 3.62291 38.7995C6.059 36.2558 9.29151 34.9934 13.3985 34.9934C14.8146 35.0027 16.2286 35.1305 17.6304 35.3759C19.0984 35.6246 20.6131 36.0071 22.2059 36.447V32.8896C22.2059 29.16 21.5657 26.5779 20.332 25.0478C19.0984 23.5178 16.9121 22.8101 13.8358 22.8101C12.3836 22.8085 10.9366 23.0204 9.52575 23.4413C8.05894 23.8712 6.6187 24.4272 5.21574 25.1052C4.7649 25.3546 4.30052 25.5655 3.82592 25.7364C3.61849 25.8196 3.40342 25.871 3.18566 25.8894C2.62348 25.8894 2.3424 25.3921 2.3424 24.3593V21.9685C2.3424 21.1844 2.42048 20.5915 2.62349 20.2663C2.82649 19.9412 3.18566 19.5778 3.74784 19.2335C5.34079 18.2571 7.02376 17.5186 8.76057 17.034C10.7945 16.3851 12.8897 16.07 14.9913 16.0968C19.7386 16.0968 23.2054 17.4165 25.4384 20.0559C27.6715 22.6953 28.749 26.7118 28.749 32.1054V47.9609H28.8271ZM12.6333 55.401C14.0333 55.3794 15.4209 55.0757 16.7403 54.5021C18.177 53.9283 19.4575 52.8381 20.535 51.3845C21.1791 50.4811 21.6441 49.4076 21.8936 48.2478C22.1623 46.8503 22.2934 45.4184 22.284 43.9827V41.9362C21.0736 41.5773 19.8487 41.2964 18.6143 41.0947C17.371 40.905 16.1193 40.8092 14.8664 40.8078C12.1961 40.8078 10.2441 41.4389 8.93234 42.7586C7.6206 44.0783 6.98035 45.9527 6.98035 48.4008C6.98035 50.849 7.44882 52.3982 8.44825 53.584C9.44767 54.7698 10.8063 55.401 12.6333 55.401ZM44.6617 60.6798C43.9434 60.6798 43.4749 60.5268 43.147 60.1825C42.819 59.8383 42.5536 59.2071 42.3193 58.2699L32.9341 20.4576C32.6999 19.4821 32.5749 18.8319 32.5749 18.4876C32.5749 17.7225 32.9029 17.2826 33.5431 17.2826H37.4471C38.2123 17.2826 38.7276 17.4165 39.0087 17.7608C39.2898 18.1051 39.5553 18.7362 39.8052 19.6734L46.5044 52.073L52.7196 19.6734C52.9226 18.698 53.1568 18.0477 53.4848 17.7608C53.8127 17.4739 54.3593 17.2826 55.0776 17.2826H58.2633C59.0284 17.2826 59.5438 17.4165 59.8717 17.7608C60.1996 18.1051 60.4651 18.7362 60.6213 19.6734L66.9301 52.4556L73.8324 19.6734C74.0666 18.698 74.3477 18.0477 74.6288 17.7608C74.9099 17.4739 75.4564 17.2826 76.1748 17.2826H79.8914C80.5316 17.2826 80.8908 17.6652 80.8908 18.4876C80.8783 18.7507 80.8523 19.0127 80.8127 19.2718C80.746 19.6884 80.652 20.0977 80.5316 20.4958L70.9122 58.3273C70.678 59.3027 70.3969 59.9339 70.0689 60.2399C69.741 60.5459 69.2413 60.7181 68.5542 60.7181H65.1343C64.3691 60.7181 63.8538 60.5842 63.5415 60.2399C63.2291 59.8956 62.9324 59.2645 62.7763 58.2699L56.5923 26.7118L50.4552 58.2317C50.2522 59.2071 50.018 59.8383 49.6901 60.1825C49.3621 60.5268 48.8156 60.6798 48.0972 60.6798H44.6617ZM95.929 61.9995C93.8569 62.0052 91.7916 61.7099 89.7763 61.1197C87.7931 60.5268 86.2315 59.8956 85.2008 59.1688C84.5606 58.7098 84.1233 58.2317 83.9515 57.7918C83.7994 57.3564 83.7198 56.8882 83.7173 56.4147V53.9283C83.7173 52.8955 84.0296 52.3982 84.6386 52.3982C84.883 52.4042 85.1253 52.4558 85.357 52.5512C85.5912 52.6468 85.9504 52.8381 86.3564 53.0485C87.7643 53.8092 89.2357 54.38 90.7445 54.7507C92.3061 55.1475 93.8969 55.3462 95.4918 55.3436C97.9903 55.3436 99.9579 54.8081 101.301 53.737C102.644 52.666 103.378 51.0785 103.378 49.0702C103.403 47.7993 103.015 46.5681 102.3 45.6467C101.582 44.7286 100.223 43.8871 98.2714 43.1029L92.4935 40.9034C89.5733 39.775 87.4339 38.111 86.1066 35.9115C84.8259 33.878 84.1287 31.3838 84.1233 28.8157C84.1233 26.7692 84.4825 24.9522 85.2008 23.3839C85.9042 21.8123 86.8795 20.448 88.0586 19.3865C89.3042 18.2295 90.7119 17.361 92.2124 16.8236C93.8478 16.2564 95.5411 15.9794 97.2407 16.0012C98.1332 15.9982 99.025 16.0621 99.9111 16.1925C100.832 16.3455 101.66 16.5367 102.503 16.728C103.347 16.9192 104.065 17.2253 104.783 17.5122C105.361 17.7426 105.92 18.0371 106.454 18.392C107.016 18.7936 107.407 19.1761 107.657 19.616C107.913 20.0982 108.039 20.6671 108.016 21.2417V23.5369C108.016 24.5697 107.688 25.1052 107.094 25.1052C106.766 25.1052 106.251 24.914 105.58 24.5123C103.3 23.25 100.754 22.5997 97.9122 22.5997C95.6479 22.5997 93.8521 23.0396 92.6184 23.9768C91.3848 24.914 90.7445 26.3293 90.7445 28.3375C90.7319 28.9844 90.8312 29.6273 91.0357 30.2239C91.2402 30.8205 91.5454 31.3574 91.9313 31.7994C92.7277 32.7365 94.2112 33.6737 96.3194 34.4961L101.988 36.6957C104.861 37.8241 106.938 39.3924 108.172 41.4007C109.386 43.3706 110.029 45.7801 109.999 48.2478C110.018 50.2134 109.666 52.1578 108.968 53.9283C108.259 55.6036 107.263 57.0715 106.048 58.2317C104.815 59.4557 103.347 60.3355 101.629 60.9667C99.7833 61.6667 97.8609 62.015 95.929 61.9995Z" fill="white"/>
<path d="M99.4432 88.1171C87.412 101.761 69.9239 109 54.885 109C33.8162 109 14.8241 97.045 0.487014 77.1711C-0.644486 75.6137 0.372434 73.4859 1.7331 74.7143C17.2447 88.512 36.3799 96.8695 56.174 96.8695C69.5229 96.8695 84.1894 92.614 97.6958 83.8616C99.701 82.4577 101.42 85.8797 99.4432 88.1171ZM104.456 79.3647C102.924 76.3376 94.287 77.917 90.3769 78.6408C89.2024 78.8602 89.0162 77.3027 90.0761 76.1182C96.9653 68.7039 108.266 70.8317 109.584 73.3104C110.901 75.7892 109.211 93.1843 102.78 101.476C101.792 102.77 100.832 102.09 101.277 100.423C102.737 94.8514 106.003 82.348 104.456 79.3647Z" fill="#FF9900"/>
</svg>
