<svg xmlns="http://www.w3.org/2000/svg" width="110" height="126" fill="none"><path fill="#7952B3" d="M23.451 0c-6.168 0-10.73 6.186-10.526 12.894.196 6.444-.059 14.792-1.894 21.598C9.192 41.319 6.081 45.633 1 46.189v6.287c5.081.554 8.192 4.87 10.031 11.697 1.835 6.806 2.089 15.154 1.894 21.598-.205 6.708 4.358 12.893 10.526 12.893H86.65c6.167 0 10.73-6.186 10.526-12.893-.196-6.444.058-14.792 1.892-21.598 1.84-6.826 4.943-11.142 10.024-11.697v-6.287c-5.081-.554-8.184-4.87-10.024-11.697-1.834-6.806-2.088-15.154-1.892-21.598C97.38 6.186 92.817 0 86.65 0H23.45Zm49.942 60.722c0 9.238-6.017 14.838-16.002 14.838H38.98a.397.397 0 0 1-.298-.142.521.521 0 0 1-.124-.342V23.568c0-.064.01-.127.032-.185a.493.493 0 0 1 .091-.157.422.422 0 0 1 .137-.105.375.375 0 0 1 .162-.037h18.312c8.327 0 13.79 5.164 13.79 13.092 0 5.564-3.675 10.545-8.358 11.418v.292c6.374.8 10.668 5.855 10.668 12.836ZM55.537 29.74h-9.692v15.673h8.164c6.31 0 9.789-2.909 9.789-8.11 0-4.872-2.992-7.563-8.261-7.563Zm-9.692 21.893v17.273h10.05c6.57 0 10.05-3.018 10.05-8.692 0-5.673-3.577-8.581-10.473-8.581h-9.627ZM9.795 119.533v-17.461h4.337c1.318 0 2.363.369 3.136 1.108.773.738 1.159 1.7 1.159 2.885 0 .991-.234 1.852-.701 2.582a3.841 3.841 0 0 1-1.936 1.559v.049c1.028.138 1.85.584 2.467 1.339.616.746.924 1.721.924 2.922 0 1.494-.467 2.703-1.402 3.629-.936.925-2.116 1.388-3.54 1.388H9.794Zm1.786-15.611v5.638h1.829c.978 0 1.746-.268 2.306-.803.56-.545.84-1.308.84-2.29 0-1.696-.975-2.545-2.924-2.545h-2.051Zm0 7.477v6.283h2.423c1.05 0 1.86-.284 2.435-.852.58-.569.871-1.348.871-2.338 0-2.062-1.226-3.093-3.678-3.093h-2.051Zm15.01 8.429c-1.609 0-2.895-.58-3.859-1.741-.957-1.169-1.435-2.716-1.435-4.64 0-2.094.5-3.73 1.499-4.907.999-1.177 2.349-1.765 4.05-1.765 1.622 0 2.887.572 3.795 1.717.914 1.144 1.37 2.731 1.37 4.76 0 1.989-.492 3.585-1.477 4.786-.977 1.193-2.292 1.79-3.943 1.79Zm.127-11.373c-1.12 0-2.005.439-2.657 1.316-.652.868-.978 2.069-.978 3.603 0 1.478.33 2.643.988 3.495.659.853 1.541 1.28 2.647 1.28 1.127 0 1.992-.419 2.594-1.255.61-.837.914-2.026.914-3.568 0-1.558-.305-2.76-.914-3.605-.602-.844-1.467-1.266-2.594-1.266Zm12.63 11.373c-1.61 0-2.896-.58-3.86-1.741-.956-1.169-1.434-2.716-1.434-4.64 0-2.094.5-3.73 1.498-4.907 1-1.177 2.35-1.765 4.05-1.765 1.623 0 2.888.572 3.796 1.717.914 1.144 1.371 2.731 1.371 4.76 0 1.989-.493 3.585-1.478 4.786-.978 1.193-2.292 1.79-3.944 1.79Zm.127-11.373c-1.12 0-2.006.439-2.658 1.316-.652.868-.978 2.069-.978 3.603 0 1.478.33 2.643.989 3.495.658.853 1.54 1.28 2.646 1.28 1.128 0 1.992-.419 2.595-1.255.609-.837.913-2.026.913-3.568 0-1.558-.304-2.76-.913-3.605-.603-.844-1.468-1.266-2.595-1.266Zm13.128 10.96c-.41.259-.953.389-1.627.389-1.906 0-2.859-1.217-2.859-3.653v-7.379h-1.87v-1.704h1.87v-3.044l1.744-.646v3.69h2.742v1.704h-2.742v7.026c0 .836.124 1.433.372 1.791.248.357.658.535 1.232.535.44 0 .82-.138 1.138-.413v1.704Zm1.67-.335v-2.143c.948.803 1.994 1.205 3.135 1.205 1.53 0 2.296-.584 2.296-1.752 0-.334-.067-.614-.202-.841a1.993 1.993 0 0 0-.532-.621 3.558 3.558 0 0 0-.786-.475 29.96 29.96 0 0 0-.968-.451 13.324 13.324 0 0 1-1.275-.657 4.307 4.307 0 0 1-.914-.755 3.08 3.08 0 0 1-.553-.962 3.932 3.932 0 0 1-.18-1.254c0-.584.117-1.1.35-1.546.234-.455.546-.833.935-1.132.39-.309.833-.541 1.33-.695a5.24 5.24 0 0 1 1.552-.232c.942 0 1.785.187 2.53.561v2.021c-.801-.601-1.723-.901-2.765-.901-.326 0-.62.044-.882.133-.262.082-.489.2-.68.355-.185.153-.33.34-.436.559-.1.211-.149.447-.149.707 0 .324.05.596.15.815.105.219.257.414.456.585.198.17.44.324.723.462.284.138.606.288.968.451.48.211.913.43 1.296.658.383.219.71.47.978.755.27.275.475.596.617.961.148.365.223.799.223 1.303 0 .617-.12 1.152-.36 1.607-.235.455-.55.832-.948 1.132a4.088 4.088 0 0 1-1.37.671 5.961 5.961 0 0 1-1.627.219c-1.12 0-2.091-.248-2.914-.743h.001Zm14.944.335c-.41.259-.953.389-1.626.389-1.906 0-2.86-1.217-2.86-3.653v-7.379h-1.87v-1.704h1.87v-3.044l1.744-.646v3.69h2.743v1.704h-2.743v7.026c0 .836.124 1.433.372 1.791.248.357.659.535 1.233.535.44 0 .818-.138 1.138-.413v1.704Zm8.006-10.327c-.305-.267-.745-.401-1.319-.401-.744 0-1.367.401-1.87 1.205-.497.804-.745 1.9-.745 3.287v6.357h-1.743v-12.468h1.743v2.569h.043c.248-.877.627-1.559 1.137-2.046.51-.495 1.08-.743 1.712-.743.453 0 .8.057 1.042.171v2.069Zm9.686 10.445h-1.744v-1.949h-.043c-.758 1.494-1.874 2.241-3.347 2.241-1.085 0-1.936-.329-2.553-.986-.609-.658-.913-1.531-.913-2.619 0-2.329 1.197-3.685 3.592-4.065l3.264-.525c0-2.118-.748-3.177-2.243-3.177-1.31 0-2.494.511-3.55 1.533v-2.045c1.07-.779 2.303-1.169 3.7-1.169 2.558 0 3.837 1.551 3.837 4.651v8.11Zm-1.744-6.307-2.626.413c-.807.13-1.417.361-1.828.694-.411.325-.616.905-.616 1.742 0 .609.188 1.108.563 1.498.383.38.89.571 1.52.571.865 0 1.577-.345 2.137-1.034.567-.698.85-1.579.85-2.643v-1.241Zm6.814 4.505h-.043v7.538h-1.743v-18.204h1.744v2.191h.042c.858-1.656 2.112-2.484 3.763-2.484 1.403 0 2.498.56 3.285 1.681.786 1.111 1.18 2.605 1.18 4.48 0 2.087-.443 3.759-1.329 5.017-.886 1.25-2.097 1.875-3.635 1.875-1.41 0-2.499-.698-3.264-2.095v.001Zm-.043-5.029v1.742c0 1.031.29 1.907.872 2.63.589.714 1.332 1.072 2.232 1.072 1.056 0 1.882-.463 2.478-1.388.601-.926.902-2.213.902-3.861 0-1.388-.28-2.476-.839-3.263-.56-.788-1.318-1.181-2.275-1.181-1.014 0-1.829.405-2.444 1.217-.617.804-.926 1.815-.926 3.032Z"/></svg>