<svg xmlns="http://www.w3.org/2000/svg" width="110" height="126" fill="none"><g clip-path="url(#a)"><path fill="#1572B6" d="m0 25.091 10.011 90.822L54.931 126l45.047-10.1L110 25.091H0Zm85.868 50.672-2.915 21.971.011 1.882L55 105.934v.001l-.022.015-28.188-6.247-1.907-17.404h13.823l.98 8.797 15.319 3.307-.005.015v-.032l15.377-3.507L72 76.277H39.857l-.275-2.364-.628-5.667-.329-3.01h34.598l1.258-11.04H21.785l-.276-2.598-.628-6.052-.329-3.393h68.979l-.331 3.346-3.332 30.264Zm.15-62.34-8.87-8.405h8.87V0H66.165v4.379l10.41 7.665h-10.41v5.018h19.851v-3.64Zm-23.574 0L54 5.018h8.445V0h-18.61v4.379l9.594 7.665h-9.594v5.018h18.61v-3.64Zm-22.332-1.38h-9.926V5.019h9.926V0h-17.37v17.062h17.37v-5.018Z"/></g><defs><clipPath id="a"><path fill="#fff" d="M0 0h110v126H0z"/></clipPath></defs></svg>