<svg xmlns="http://www.w3.org/2000/svg" width="110" height="126" fill="none"><g fill="#fff" clip-path="url(#a)"><path fill-rule="evenodd" d="M55 0C24.627 0 0 28.918 0 64.595c0 28.54 15.759 52.753 37.612 61.295 2.748.599 3.757-1.401 3.757-3.107 0-1.541-.051-6.629-.075-12.027-15.3 3.908-18.53-7.621-18.53-7.621-2.501-7.466-6.106-9.452-6.106-9.452-4.991-4.009.376-3.925.376-3.925 5.522.454 8.431 6.656 8.431 6.656 4.905 9.873 12.867 7.019 16.005 5.37.494-4.175 1.92-7.026 3.492-8.639-12.216-1.63-25.059-7.17-25.059-31.922 0-7.052 2.15-12.814 5.668-17.339-.572-1.626-2.455-8.196.532-17.093 0 0 4.617-1.736 15.127 6.621C45.62 31.98 50.325 31.26 55 31.235c4.672.025 9.38.743 13.777 2.175 10.497-8.357 15.11-6.621 15.11-6.621 2.993 8.896 1.11 15.467.54 17.093 3.526 4.525 5.66 10.287 5.66 17.34 0 24.81-12.867 30.27-25.114 31.871 1.974 2.005 3.732 5.937 3.732 11.962 0 8.643-.064 15.599-.064 17.727 0 1.719.991 3.733 3.778 3.098C94.259 117.33 110 93.125 110 64.595 109.999 28.921 85.374.001 55 .001V0Z" clip-rule="evenodd"/><path d="M20.831 92.743c-.121.321-.55.417-.942.198-.401-.21-.624-.647-.495-.969.118-.332.55-.422.947-.201.4.21.629.652.49.973Zm2.228 2.92c-.262.285-.774.152-1.122-.3-.36-.45-.428-1.052-.161-1.341.271-.285.768-.15 1.129.299.359.456.43 1.053.155 1.343l-.001-.002Zm2.17 3.719c-.338.276-.89.018-1.23-.557-.337-.575-.337-1.265.009-1.54.34-.276.883-.027 1.23.542.335.583.335 1.273-.01 1.553v.002Zm2.97 3.595c-.301.39-.944.285-1.414-.246-.48-.521-.614-1.262-.313-1.652.306-.391.952-.282 1.425.246.48.52.625 1.262.303 1.651l-.002.001Zm4.098 2.087c-.134.506-.752.736-1.375.52-.623-.222-1.03-.813-.902-1.325.127-.51.75-.748 1.377-.519.622.221 1.03.809.9 1.324Zm4.502.386c.015.533-.513.973-1.166.984-.659.018-1.191-.414-1.198-.938 0-.538.518-.974 1.175-.989.653-.013 1.19.414 1.19.942l-.001.001Zm4.188-.837c.078.519-.377 1.053-1.026 1.195-.638.139-1.23-.184-1.312-.698-.078-.533.385-1.067 1.022-1.205.65-.131 1.233.182 1.316.709v-.001Z"/></g><defs><clipPath id="a"><path fill="#fff" d="M0 0h110v126H0z"/></clipPath></defs></svg>