<svg width="110" height="126" viewBox="0 0 110 126" fill="none" xmlns="http://www.w3.org/2000/svg">
<path d="M17.1819 0H92.8182C102.315 0 110 8.80104 110 19.6764V106.324C110 117.199 102.315 126 92.8182 126H17.1819C7.68529 126 0 117.199 0 106.324V19.706C0 8.80104 7.68529 0 17.1819 0Z" fill="#330000"/>
<path d="M53.6415 76.6905H36.8478L33.4063 89.5216C33.3028 89.9661 32.9405 90.2921 32.5265 90.2625H24.0132C23.5215 90.2625 23.3663 89.9661 23.4957 89.3438L37.9864 41.3975C38.1416 40.8937 38.271 40.3307 38.4263 39.6787C38.6333 38.7601 38.7109 37.7822 38.7109 36.834C38.685 36.5673 38.8403 36.3006 39.0991 36.2413C39.1508 36.2413 39.1767 36.2413 39.2284 36.2413H50.7951C51.1315 36.2413 51.3385 36.3895 51.3644 36.6562L67.8993 89.4031C68.0546 89.9661 67.8993 90.2328 67.4594 90.2328H58.0146C57.6782 90.2625 57.3677 90.0254 57.2901 89.6402L53.6415 76.6905ZM39.3837 67.8302H51.7008C51.4161 66.7338 50.407 64.1557 50.0188 62.7629C49.6307 61.3702 49.0873 60.2738 48.6733 58.7032C48.2334 57.1326 47.7935 55.5325 47.3536 53.9619C46.9137 52.3914 46.5255 50.8504 46.1374 49.3688C45.7751 47.8871 45.4387 46.5536 45.1541 45.3387H45.0765C44.6625 47.5908 44.1449 49.8133 43.5498 52.0061C42.877 54.4953 42.1783 57.0437 41.4797 59.6515C40.781 62.2888 40.0565 65.6374 39.3837 67.8302Z" fill="#FF9A00"/>
<path d="M77.7841 44.9831C76.2833 45.0423 74.8342 44.3904 73.7733 43.1458C72.7382 41.8716 72.1948 40.1529 72.2465 38.4045C72.1948 36.6562 72.79 34.9967 73.8768 33.7818C74.9636 32.5964 76.4126 31.9445 77.9135 32.0038C79.4402 31.9149 80.941 32.5668 82.0278 33.7818C83.037 35.0263 83.5803 36.6858 83.5286 38.4045C83.5803 40.1529 83.0369 41.8716 81.976 43.1458C80.8633 44.3904 79.3366 45.072 77.7841 44.9831ZM73.0746 89.4624V51.4135C73.0746 50.9097 73.2557 50.6726 73.6439 50.6726H81.8984C82.2865 50.6726 82.4677 50.9097 82.4677 51.4135V89.4624C82.4677 90.0254 82.2865 90.2921 81.8984 90.2921H73.7215C73.3075 90.2921 73.0746 90.0254 73.0746 89.4624Z" fill="#FF9A00"/>
</svg>
