<svg width="110" height="126" viewBox="0 0 110 126" fill="none" xmlns="http://www.w3.org/2000/svg">
<path d="M19.4802 0H90.5197C101.282 0 110 10.2417 110 22.8842V103.116C110 115.758 101.282 126 90.5197 126H19.4802C8.71825 126 0 115.758 0 103.116V22.8842C0 10.2417 8.71825 0 19.4802 0Z" fill="#001E36"/>
<path d="M24.7578 88.3459V32.9435C24.7578 32.5789 24.8872 32.3661 25.2235 32.3661C25.9996 32.3661 26.7239 32.3661 27.7846 32.3053C28.897 32.2446 30.0353 32.2446 31.2771 32.1838C32.5189 32.123 33.8382 32.123 35.2611 32.0622C36.684 32.0014 38.0551 32.0014 39.4262 32.0014C43.1774 32.0014 46.3077 32.5485 48.8688 33.6729C51.1713 34.5846 53.2667 36.1042 55 38.0796C56.4746 39.8119 57.6129 41.9088 58.3373 44.2185C59.0358 46.4674 59.398 48.8075 59.398 51.2084C59.398 55.8278 58.4925 59.657 56.6557 62.6657C54.819 65.6744 52.2578 67.9537 49.2827 69.2301C46.1783 70.5673 42.7376 71.0535 38.9605 71.0535C37.8481 71.0535 37.1238 71.0535 36.6581 70.9927C36.1924 70.932 35.5457 70.932 34.692 70.932V88.2243C34.7437 88.589 34.5109 88.9233 34.2004 88.9841C34.1487 88.9841 34.0969 88.9841 34.0193 88.9841H25.3011C24.9389 89.0449 24.7578 88.8321 24.7578 88.3459ZM34.7437 42.7598V60.8422C35.3905 60.903 35.9855 60.9638 36.5287 60.9638H38.9605C40.7456 60.9638 42.5306 60.6295 44.2381 59.9913C45.7127 59.5051 46.9803 58.4718 47.9892 57.1346C48.9464 55.7974 49.4121 53.9435 49.4121 51.6035C49.4638 49.932 49.1016 48.2605 48.3514 46.8017C47.5753 45.4037 46.4629 44.3401 45.1435 43.7323C43.4361 42.9117 41.6252 42.6078 39.7366 42.6686C38.5466 42.6686 37.4859 42.6686 36.6322 42.7294C35.7009 42.6382 35.0541 42.699 34.7437 42.7598Z" fill="#31A8FF"/>
<path d="M88.0102 57.56C86.6391 56.7091 85.1645 56.1013 83.6123 55.7366C81.9049 55.3111 80.2233 55.0376 78.49 55.0376C77.5845 54.9768 76.6015 55.1592 75.7478 55.4023C75.1528 55.5542 74.6353 55.9493 74.3249 56.466C74.0921 56.8914 73.9627 57.4385 73.9627 57.9247C73.9627 58.411 74.1438 58.8972 74.4284 59.3227C74.8423 59.9001 75.3856 60.3864 75.9806 60.7815C77.0413 61.4197 78.1278 62.0275 79.2402 62.5441C81.7238 63.5166 84.1038 64.8538 86.3028 66.4645C87.8033 67.589 89.045 69.1085 89.9246 70.932C90.649 72.6642 91.037 74.5485 90.9853 76.4631C91.037 78.9855 90.3903 81.5383 89.2003 83.6353C87.9067 85.793 86.1217 87.4645 84.078 88.437C81.8273 89.5615 79.085 90.1693 75.7736 90.1693C73.6781 90.1693 71.6085 89.9566 69.5389 89.4703C67.935 89.136 66.331 88.5586 64.8564 87.738C64.546 87.5253 64.3131 87.1606 64.3649 86.7048V77.3444C64.3649 77.1925 64.4166 76.9797 64.546 76.8582C64.6753 76.7366 64.8305 76.7974 64.9599 76.9189C66.7449 78.165 68.6335 79.0159 70.6513 79.5629C72.3846 80.11 74.2214 80.3835 76.0582 80.3835C77.7915 80.3835 79.0333 80.11 79.8611 79.6237C80.5855 79.259 81.1029 78.3169 81.1029 77.3748C81.1029 76.615 80.7407 75.916 79.9905 75.2171C79.2661 74.5181 77.7398 73.6975 75.4891 72.6946C73.1607 71.7221 70.9876 70.4457 68.9698 68.8046C67.5469 67.6194 66.3569 66.0694 65.4773 64.2156C64.7529 62.4833 64.3649 60.5991 64.4166 58.7149C64.4166 56.4052 64.9599 54.1867 65.9688 52.2113C67.1071 50.0535 68.8146 48.3213 70.7807 47.2576C72.9279 45.9508 75.6443 45.3734 78.9039 45.3734C80.7924 45.3734 82.7068 45.5253 84.5954 45.8596C85.9665 46.0723 87.3117 46.4978 88.5276 47.1056C88.7087 47.1664 88.8898 47.3791 88.9933 47.5919C89.045 47.8046 89.0968 48.0173 89.0968 48.2301V57.013C89.0968 57.2257 88.9933 57.4385 88.8639 57.56C88.4241 57.6816 88.1913 57.6816 88.0102 57.56Z" fill="#31A8FF"/>
</svg>
