<svg width="110" height="126" viewBox="0 0 110 126" fill="none" xmlns="http://www.w3.org/2000/svg">
<g clip-path="url(#clip0_1_79)">
<path d="M10.3984 121.569H8.42188C5.92969 121.569 3.95312 119.305 3.95312 116.45C3.95312 113.497 6.01562 111.134 8.59375 111.134H10.3984V107H7.99219C3.60938 107 0 111.134 0 116.155C0 121.766 3.95313 126.294 8.85156 126.294H10.3984V121.569ZM99.6016 121.569H97.625C95.1328 121.569 93.1562 119.305 93.1562 116.45C93.1562 113.497 95.2188 111.134 97.7969 111.134H99.6016V107H97.1094C92.7266 107 89.1172 111.134 89.1172 116.155C89.1172 121.766 93.0703 126.294 97.9688 126.294H99.5156V121.569H99.6016ZM18.9922 107C15.125 107 12.0312 111.331 12.0312 116.647C12.0312 121.963 15.125 126.294 18.9922 126.294C22.8594 126.294 25.9531 121.963 25.9531 116.647C25.9531 111.331 22.8594 107 18.9922 107ZM18.9922 122.652C17.2734 122.652 15.9844 119.994 15.9844 116.745C15.9844 113.497 17.3594 110.839 18.9922 110.839C20.7109 110.839 22 113.497 22 116.745C22 119.994 20.625 122.652 18.9922 122.652ZM25.9531 126.294L28.6172 107H34.2031L35.8359 116.647L37.9844 107H43.1406L45.6328 126.294H41.3359L39.9609 113.202L37.6406 126.294H34.7188L31.5391 113.398L30.0781 126.294H25.9531ZM46.5781 126.294L49.2422 107H54.8281L56.375 116.647L58.5234 107H63.7656L66.2578 126.294H61.9609L60.5 113.202L58.1797 126.294H55.3438L52.0781 113.398L50.7031 126.294H46.5781ZM66.9453 126.294V107H75.7109V110.741H71.3281V114.875H75.1953V118.419H70.8125V122.159H75.7109V126.294H66.9453ZM101.234 126.294V107H110V110.741H105.617V114.875H109.484V118.419H105.102V122.159H110V126.294H101.234Z" fill="white"/>
<path d="M85.6797 117.336C87.0547 117.336 88.2578 116.056 88.2578 114.383V112.611C88.2578 109.461 86.0234 107 83.3594 107H77V126.294H80.9531V117.238L85.25 126.294H89.6328L85.6797 117.336ZM82.3281 115.663H80.8672V110.938H82.5C83.6172 110.938 84.4766 111.922 84.4766 113.202C84.3906 114.58 83.4453 115.663 82.3281 115.663Z" fill="white"/>
<path d="M97.517 76.3933H12.483C5.6547 76.3933 0 68.6758 0 59.0291V18.3642C0 8.86583 5.54801 1 12.483 1H97.517C104.345 1 110 8.71742 110 18.3642V59.0291C110 68.6758 104.345 76.3933 97.517 76.3933Z" fill="#7F54B3"/>
<path d="M52 75.3284L75 91L70.2458 75.3284L57.0112 71L52 75.3284Z" fill="#7F54B3"/>
<path d="M12.7651 61.424C12.7651 61.424 15.208 72.8605 20.0939 65.1956C24.9798 57.5308 29.6533 45.486 29.6533 45.486C29.6533 45.486 29.9719 42.4444 31.3527 49.136C32.7335 55.8275 38.6815 64.709 38.6815 64.709C38.6815 64.709 44.0985 72.3738 46.329 64.344C45.4793 53.6375 48.7719 34.1712 52.0646 24.8031C53.4454 16.5299 45.7979 18.8415 45.1606 20.9098C44.5233 22.9781 39.6375 35.1446 39.3188 48.1626C39.3188 48.1626 35.2827 35.7529 34.964 31.1296C34.6454 26.628 30.503 25.4114 28.06 29.7913C25.6171 34.1712 18.2883 51.0826 18.2883 51.0826L13.6148 23.4648C13.6148 23.4648 8.94136 16.4082 6.17978 25.0464C6.17978 25.0464 11.0657 58.9908 12.7651 61.424ZM75.3257 31.1296C67.9968 17.2599 57.2691 27.723 57.2691 27.723C57.2691 27.723 49.0906 38.5512 52.8081 53.2725C58.7561 67.8723 66.9347 61.3024 69.1652 60.2074C71.3957 58.9908 81.1675 46.3377 75.3257 31.1296ZM69.8025 43.2961C69.8025 49.136 65.6601 54.4892 62.155 53.2725C60.2432 52.0559 59.0748 48.5276 59.0748 42.8094C60.7742 33.3196 64.598 32.1029 66.5098 32.3463C70.1211 34.5362 69.9087 39.5245 69.8025 43.2961ZM102.517 31.1296C95.1879 17.2599 84.4602 27.723 84.4602 27.723C84.4602 27.723 76.2816 38.5512 79.9991 53.2725C85.9472 67.8723 94.1257 61.3024 96.3562 60.2074C98.6929 58.9908 108.465 46.3377 102.517 31.1296ZM96.9935 43.2961C96.9935 49.136 92.8511 54.4892 89.346 53.2725C87.4342 52.0559 86.2658 48.5276 86.2658 42.8094C87.9652 33.3196 91.789 32.1029 93.7008 32.3463C97.3122 34.5362 97.2059 39.5245 96.9935 43.2961Z" fill="white"/>
</g>
<defs>
<clipPath id="clip0_1_79">
<rect width="110" height="126" fill="white"/>
</clipPath>
</defs>
</svg>
