<svg width="110" height="126" viewBox="0 0 110 126" fill="none" xmlns="http://www.w3.org/2000/svg">
<g clip-path="url(#clip0_203_105)">
<path d="M7.76972 49.3516C7.76972 66.1586 18.5314 80.6407 34.2748 87.4354L11.957 32.1882C9.36589 37.5508 7.76972 43.2698 7.76972 49.3516ZM86.8877 47.2002C86.8877 42.0142 84.6938 38.2604 82.9008 35.5759C80.5102 31.9987 78.3199 29.1376 78.3199 25.5637C78.3199 21.6301 81.7091 18.0497 86.29 18.0497H86.8877C78.5132 11.088 67.3542 6.97133 55.0358 6.97133C38.4943 7.15115 24.1502 14.6587 15.5788 26.1031H18.5672C23.5489 26.1031 31.1218 25.5669 31.1218 25.5669C33.7129 25.3871 33.9133 28.7844 31.4797 29.1441C31.4797 29.1441 28.8886 29.4652 26.1007 29.4652L43.2792 75.2396L53.64 47.5277L46.2676 29.4684L41.2858 29.1473C38.6947 28.9675 39.0919 25.5701 41.4862 25.5701C41.4862 25.5701 49.2595 26.1064 53.8404 26.1064C58.8222 26.1064 66.3951 25.5701 66.3951 25.5701C68.9862 25.3903 69.1866 28.7876 66.753 29.1473C66.753 29.1473 64.1619 29.4684 61.374 29.4684L78.5525 75.0662L83.3339 60.9373C85.3273 55.0353 86.9199 50.9251 86.9199 47.168L86.8877 47.2002ZM55.7981 53.1086L41.6508 89.9401C45.8381 91.0126 50.4191 91.7287 55 91.7287C60.583 91.7287 65.7617 90.836 70.747 89.4038C70.5466 89.224 70.5466 89.0827 70.3891 88.8676L55.7981 53.1086ZM96.454 29.1537L96.8119 33.4437C96.8119 37.7338 96.0138 42.5633 93.2259 48.6419L78.9104 86.0097C92.8608 78.6787 102.424 65.0893 102.424 49.3548C102.223 42.0238 100.033 35.2259 96.4469 29.1505L96.454 29.1537ZM55 0C24.7085 0 0 22.1727 0 49.3484C0 76.524 24.7085 98.7 55 98.7C85.2915 98.7 110 76.5273 110 49.3516C110 22.176 85.2915 0 55 0ZM55 96.5518C26.1042 96.5518 2.5911 75.4547 2.5911 49.3484C2.5911 23.3898 26.1042 2.32485 55 2.32485C83.8958 2.32485 107.409 23.4219 107.409 49.3484C107.409 75.4547 83.8958 96.5518 55 96.5518Z" fill="#00749A"/>
<path d="M49.4647 107.39H43.7856V108.398C45.5606 108.398 45.8557 109.028 45.8557 112.846V119.719C45.8557 123.562 45.5606 124.267 43.7856 124.267C42.4249 123.965 41.4783 122.65 40.2356 120.326L38.7568 117.596C40.7088 116.966 41.7746 114.866 41.7746 112.543C41.7746 109.612 40.2958 107.287 37.5153 107.287H31.9542V108.295C33.7292 108.295 34.0242 108.925 34.0242 112.743V119.616C34.0242 123.459 33.7292 124.165 31.9542 124.165V125.173H38.2258V124.165C36.4507 124.165 36.1557 123.457 36.1557 119.616V117.697H36.688L40.179 125.173H49.4082C53.9637 125.173 55.9158 121.029 55.9158 116.178C55.9748 111.428 54.0227 107.386 49.4672 107.386L49.4647 107.39ZM36.2135 116.182V109.028H37.5165C38.9363 109.028 39.5865 110.746 39.5865 112.667C39.5865 114.589 38.935 116.203 37.5165 116.203L36.2135 116.182ZM49.584 123.658H49.3467C48.2232 123.658 48.0437 123.154 48.0437 120.727V109.009H49.5803C52.8931 109.009 53.4843 113.152 53.4843 116.285C53.4843 119.62 52.8328 123.663 49.5803 123.663L49.584 123.658ZM14.3231 118.226L16.5112 107.209C17.1627 103.975 16.88 103.066 14.8542 103.066V101.953H20.8283V103.066C18.8172 103.066 18.3452 103.874 17.5745 107.816L13.9642 126.29H13.4909L10.2371 109.412L6.9821 126.29H6.56784L3.07679 107.795C2.30729 103.853 1.84755 103.045 0 103.045V101.932H6.9821V103.045C5.08906 103.045 4.61581 103.753 5.26608 107.188L7.39635 118.205L10.5924 101.93H11.1824L14.3231 118.226ZM25.0888 126.111C21.5978 126.111 18.7582 121.764 18.7582 116.409C18.7582 111.153 21.5855 106.707 25.0888 106.707C28.5922 106.707 31.4194 111.054 31.4194 116.409C31.4194 121.764 28.5922 126.111 25.0888 126.111ZM25.0888 108.324C22.1903 108.324 21.1848 112.772 21.1848 116.308C21.1848 119.845 22.1903 124.293 25.0888 124.293C28.0464 124.293 29.0531 119.845 29.0531 116.308C29.0531 112.873 28.0476 108.324 25.0888 108.324ZM63.7817 124.291V125.404H56.5046V124.291C58.6349 124.291 58.9877 123.381 58.9877 117.923V109.229C58.9877 103.769 58.6189 102.963 56.5046 102.963V101.85H63.0712C66.325 101.85 68.1603 104.681 68.1603 108.52C68.1603 112.258 66.3262 115.189 63.0712 115.189H61.2962V118.02C61.2962 123.375 61.6649 124.286 63.7792 124.286L63.7817 124.291ZM63.0712 103.874H61.2962V113.274H63.0712C64.8462 113.274 65.6747 111.174 65.6747 108.625C65.6747 106.075 64.8462 103.874 63.0712 103.874ZM89.8724 120.347L89.6954 121.355C89.4003 123.173 89.0439 123.78 86.7968 123.78H86.3826C84.7255 123.78 84.4305 123.15 84.4305 119.332V116.806C86.9136 116.806 87.0931 117.211 87.0931 120.04H87.6831V111.955H87.0931C87.0931 114.786 86.9161 115.189 84.4305 115.189V109.133H86.1465C88.3961 109.133 88.7501 109.763 89.0451 111.558L89.2221 112.566H89.7544L89.5171 107.514H80.229V108.522C82.004 108.522 82.299 109.152 82.299 112.969V119.843C82.299 123.379 82.0618 124.291 80.642 124.391C79.339 124.089 78.3925 122.774 77.151 120.45L75.6722 117.72C77.6242 117.09 78.69 114.99 78.69 112.667C78.69 109.735 77.2112 107.411 74.4306 107.411H68.8695V108.419C70.6446 108.419 70.9396 109.049 70.9396 112.867V119.74C70.9396 123.583 70.6446 124.288 68.8695 124.288V125.296H75.1411V124.288C73.3661 124.288 73.0711 123.581 73.0711 119.74V117.82H73.6034L77.0944 125.296H90.1096L90.2866 120.244H89.8724V120.347ZM73.1301 116.203V109.028H74.4331C75.8529 109.028 76.5031 110.746 76.5031 112.667C76.5031 114.589 75.8516 116.203 74.4331 116.203H73.1301Z" fill="#00749A"/>
<path d="M96.321 126.111C95.0794 126.111 93.9547 124.998 93.4937 124.293C93.3167 124.595 93.0795 125.406 92.9615 126.111H92.3714V118.635H93.0229C93.2602 122.172 94.7389 124.295 96.573 124.295C97.5785 124.295 98.407 123.287 98.407 121.67C98.407 120.254 97.6965 119.143 96.396 118.133L94.6209 116.718C93.3794 115.71 92.4329 113.887 92.4329 111.562C92.4329 108.937 93.8527 106.732 95.8047 106.732C96.8692 106.732 97.7567 107.341 98.2878 108.148C98.4648 107.946 98.5828 107.339 98.702 106.732H99.2921V113.1H98.6406C98.4033 110.573 97.576 108.45 95.919 108.45C95.0315 108.45 94.203 109.36 94.203 110.676C94.203 112.092 94.8545 112.797 96.3911 114.011L98.1071 115.426C99.6436 116.64 100.237 118.66 100.237 120.256C100.178 123.692 98.4623 126.115 96.3333 126.115L96.321 126.111Z" fill="#00749A"/>
<path d="M106.084 126.111C104.842 126.111 103.717 124.998 103.256 124.293C103.079 124.595 102.842 125.406 102.724 126.111H102.134V118.635H102.786C103.023 122.172 104.502 124.295 106.336 124.295C107.341 124.295 108.17 123.287 108.17 121.67C108.17 120.254 107.459 119.143 106.159 118.133L104.384 116.718C103.142 115.71 102.196 113.887 102.196 111.562C102.196 108.937 103.615 106.732 105.567 106.732C106.632 106.732 107.519 107.341 108.05 108.148C108.227 107.946 108.345 107.339 108.465 106.732H109.055V113.1H108.403C108.166 110.573 107.339 108.45 105.682 108.45C104.794 108.45 103.966 109.36 103.966 110.676C103.966 112.092 104.617 112.797 106.154 114.011L107.87 115.426C109.406 116.64 110 118.66 110 120.256C109.941 123.692 108.225 126.115 106.096 126.115L106.084 126.111Z" fill="#00749A"/>
</g>
<defs>
<clipPath id="clip0_203_105">
<rect width="110" height="126" fill="white"/>
</clipPath>
</defs>
</svg>
