<svg width="110" height="126" fill="none" xmlns="http://www.w3.org/2000/svg"><g clip-path="url(#a)" fill="#fff"><path fill-rule="evenodd" clip-rule="evenodd" d="M54.5 0C31.03 0 12 22.99 12 51.355c0 22.69 12.177 41.94 29.064 48.731 2.123.476 2.903-1.114 2.903-2.47 0-1.225-.04-5.27-.058-9.562-11.823 3.107-14.318-6.059-14.318-6.059-1.933-5.936-4.719-7.514-4.719-7.514-3.857-3.188.29-3.121.29-3.121 4.268.361 6.516 5.292 6.516 5.292 3.79 7.85 9.942 5.58 12.367 4.27.381-3.32 1.483-5.586 2.698-6.869-9.44-1.297-19.363-5.701-19.363-25.379 0-5.606 1.66-10.188 4.38-13.785-.443-1.293-1.898-6.516.41-13.59 0 0 3.568-1.38 11.69 5.265 3.39-1.14 7.027-1.712 10.64-1.731 3.61.02 7.248.59 10.646 1.729 8.111-6.645 11.675-5.264 11.675-5.264 2.314 7.073.859 12.297.418 13.59 2.725 3.597 4.374 8.178 4.374 13.785 0 19.724-9.943 24.066-19.406 25.338 1.525 1.594 2.883 4.72 2.883 9.51 0 6.872-.05 12.402-.05 14.094 0 1.366.766 2.968 2.92 2.463C84.837 93.28 97 74.037 97 51.355 97 22.993 77.97 0 54.5 0V0Z"/><path d="M28.097 73.733c-.094.255-.426.332-.729.158-.31-.167-.482-.515-.382-.77.092-.264.424-.337.732-.16.31.167.486.518.378.773Zm1.721 2.321c-.202.227-.598.122-.867-.238-.279-.357-.33-.836-.125-1.066.21-.227.595-.12.873.238.277.362.332.837.12 1.067Zm1.677 2.957c-.26.22-.687.014-.95-.442-.26-.458-.26-1.006.006-1.225.263-.22.683-.021.95.431.26.464.26 1.012-.006 1.235v.001Zm2.295 2.858c-.233.31-.73.227-1.093-.195-.37-.414-.474-1.004-.241-1.313.236-.312.735-.225 1.1.195.372.414.483 1.004.235 1.313h-.001Zm3.167 1.66c-.104.402-.581.585-1.063.413-.48-.176-.795-.647-.697-1.053.099-.406.58-.595 1.064-.412.48.175.795.642.696 1.051Zm3.478.306c.012.424-.396.774-.9.783-.51.014-.921-.33-.926-.746 0-.428.4-.774.908-.786.505-.01.919.33.919.749Zm3.236-.665c.06.413-.29.837-.792.95-.493.11-.95-.146-1.014-.555-.06-.424.297-.848.79-.957.502-.105.953.144 1.016.563Z"/></g><path d="M64.57 119.523h-1.357v-18.681h4.574c3.736 0 5.015 2.687 5.015 5.602 0 2.916-1.284 5.602-5.015 5.602h-3.212l-.005 7.477Zm0-9.043h3.392c.445.083.9.037 1.329-.133.429-.171.82-.462 1.145-.852.325-.389.573-.866.727-1.394a4.524 4.524 0 0 0 .158-1.651 4.523 4.523 0 0 0-.156-1.651 3.857 3.857 0 0 0-.726-1.396 2.894 2.894 0 0 0-1.144-.853 2.386 2.386 0 0 0-1.329-.136H64.57v8.066Zm13.205-2.115a7.22 7.22 0 0 0-2.993.629v-1.498a6.66 6.66 0 0 1 2.993-.675c2.997 0 3.776 1.698 3.776 4.185v8.517h-.779l-.302-.994c-.877.793-1.929 1.229-3.012 1.246a2.462 2.462 0 0 1-1.349-.119 2.97 2.97 0 0 1-1.174-.837 3.932 3.932 0 0 1-.767-1.39 4.647 4.647 0 0 1-.207-1.667c0-2.115.94-3.687 3.557-3.887l2.635-.2v-.698c0-1.818-.518-2.612-2.378-2.612Zm-.358 4.859c-1.42.171-2.04 1.097-2.04 2.544 0 1.12.22 2.463 2.118 2.463.945 0 1.87-.346 2.658-.994v-4.333l-2.736.32Zm8.525 2.818a1.583 1.583 0 0 0-.38.915c0 .628.243.903.76.971l3.392.503c1.88.252 2.741 1.172 2.741 3.339 0 3.041-2.438 4.23-5.193 4.23-2.796 0-4.473-1.018-4.473-3.756a4.05 4.05 0 0 1 .59-2.07c.371-.592.886-1.019 1.468-1.217v-.028a1.778 1.778 0 0 1-.496-.714 2.23 2.23 0 0 1-.146-.927c.016-.336.093-.663.225-.957.132-.294.315-.547.536-.741-.548-.423-.989-1.03-1.272-1.753a5.197 5.197 0 0 1-.328-2.328c0-2.567.88-4.688 3.896-4.688a5.096 5.096 0 0 1 1.6.252h3.391v.943l-1.673.6c.415.872.615 1.875.578 2.887 0 2.567-.88 4.688-3.896 4.688a5.176 5.176 0 0 1-1.32-.155v.006Zm.582 3.361c-1.32.372-2.438 1.144-2.438 2.744 0 1.841 1.118 2.361 3.176 2.361 1.994 0 3.873-.623 3.873-2.744 0-1.263-.481-1.766-1.696-1.943l-2.915-.418Zm3.332-7.894c0-1.646-.256-3.167-2.594-3.167-2.337 0-2.599 1.521-2.599 3.167s.262 3.161 2.6 3.161c2.337 0 2.593-1.52 2.593-3.167v.006Zm7.503-4.688c3.392 0 3.795 2.893 3.795 6.477v.8h-6.59c.082 2.167.54 4.133 2.795 4.133a6.297 6.297 0 0 0 3.296-.697v1.492a6.693 6.693 0 0 1-3.296.749c-3.373 0-4.194-2.887-4.194-6.477 0-3.59.82-6.477 4.194-6.477Zm-2.796 5.854h5.193c0-2.212-.1-4.304-2.397-4.304-2.319 0-2.736 2.057-2.796 4.304Zm11.922-.297c2.837.326 3.515 1.52 3.515 3.561 0 1.921-.976 3.836-4.015 3.836a8.105 8.105 0 0 1-2.975-.623v-1.492c.966.405 1.98.598 2.998.571 2.076 0 2.635-1.097 2.635-2.269 0-1.143-.279-1.944-2.255-2.138-2.896-.326-3.497-1.601-3.497-3.315 0-1.773.917-3.688 3.736-3.688a6.168 6.168 0 0 1 2.873.629v1.487a6.764 6.764 0 0 0-2.892-.572c-1.98 0-2.397.926-2.397 2.149 0 1.086.358 1.658 2.274 1.864Zm-95.274-3.767H6.325a.21.21 0 0 0-.162.083.327.327 0 0 0-.067.202v2.984c0 .076.024.149.067.203a.21.21 0 0 0 .162.083h1.907v3.71a4.7 4.7 0 0 1-1.61.183c-1.397 0-3.35-.64-3.35-5.991 0-5.35 2.03-6.059 3.942-6.059a6.366 6.366 0 0 1 2.814.537.177.177 0 0 0 .102-.003.215.215 0 0 0 .09-.057.292.292 0 0 0 .063-.101.35.35 0 0 0 .02-.125l.55-2.881a.323.323 0 0 0-.023-.125.27.27 0 0 0-.068-.098c-1.286-.777-2.716-1.103-4.14-.943-3.276 0-6.622 1.727-6.622 10.061 0 8.335 3.836 9.575 7.067 9.575 1.513.043 3.005-.452 4.3-1.429a.25.25 0 0 0 .059-.097.301.301 0 0 0 .014-.12v-9.307a.327.327 0 0 0-.067-.202.21.21 0 0 0-.162-.083Zm25.414-7.397a.323.323 0 0 0-.067-.202.208.208 0 0 0-.162-.084h-2.754c-.061 0-.12.03-.162.084a.323.323 0 0 0-.067.202v6.636h-4.29v-6.636a.352.352 0 0 0-.018-.11.298.298 0 0 0-.05-.092.223.223 0 0 0-.074-.062.183.183 0 0 0-.088-.022h-2.75c-.03 0-.06.007-.087.022a.223.223 0 0 0-.075.062.296.296 0 0 0-.05.092.352.352 0 0 0-.017.11v17.978c0 .076.024.148.067.202a.211.211 0 0 0 .162.084h2.75c.061 0 .12-.031.162-.084a.325.325 0 0 0 .067-.202v-7.689h4.295l-.01 7.689c0 .076.025.148.068.202a.211.211 0 0 0 .162.084h2.764c.06 0 .119-.031.162-.084a.325.325 0 0 0 .067-.202l-.005-17.978Zm-20.116 2.355a2.619 2.619 0 0 0-.309-1.227 1.923 1.923 0 0 0-.802-.807 1.45 1.45 0 0 0-1.027-.115 1.71 1.71 0 0 0-.906.613 2.44 2.44 0 0 0-.48 1.138c-.067.43-.03.875.106 1.279.136.403.365.748.657.99.293.242.636.371.987.37.474-.005.926-.243 1.259-.663.332-.421.518-.988.515-1.578Zm-.192 11.821v-8.294a.352.352 0 0 0-.018-.11.296.296 0 0 0-.05-.092.222.222 0 0 0-.074-.062.183.183 0 0 0-.088-.022h-2.75a.247.247 0 0 0-.165.105.371.371 0 0 0-.068.215v11.89c0 .343.174.452.399.452h2.474c.276 0 .34-.172.34-.457v-3.625Zm31.001-8.557h-2.736c-.06 0-.119.03-.162.084a.324.324 0 0 0-.067.202v8.814c-.5.409-1.084.627-1.682.629-.986 0-1.247-.554-1.247-1.755v-7.683a.327.327 0 0 0-.067-.202.21.21 0 0 0-.162-.083h-2.768c-.03 0-.06.007-.088.021a.25.25 0 0 0-.074.062.303.303 0 0 0-.05.093.35.35 0 0 0-.018.109v8.266c0 3.579 1.595 4.453 3.795 4.453 1.155-.04 2.28-.468 3.255-1.24.023.246.057.49.1.732a.28.28 0 0 0 .085.11.21.21 0 0 0 .117.044l1.765-.011c.06 0 .119-.031.162-.084a.325.325 0 0 0 .067-.202v-12.073a.323.323 0 0 0-.067-.202.208.208 0 0 0-.162-.084h.004Zm7.618-.4c-.915-.009-1.816.287-2.608.857v-6.076a.352.352 0 0 0-.018-.11.296.296 0 0 0-.05-.092.223.223 0 0 0-.074-.062.183.183 0 0 0-.087-.022h-2.76c-.03 0-.06.007-.087.022a.223.223 0 0 0-.075.062.297.297 0 0 0-.05.092.349.349 0 0 0-.017.11v17.978c0 .076.025.148.068.202a.211.211 0 0 0 .162.084h1.915a.197.197 0 0 0 .118-.043.27.27 0 0 0 .084-.112c.055-.27.093-.545.115-.823.926.917 2.086 1.389 3.268 1.332 2.511 0 3.95-1.589 3.95-7.134s-2.3-6.265-3.854-6.265Zm-1.077 10.123a2.812 2.812 0 0 1-1.59-.571v-5.694a3.163 3.163 0 0 1 1.411-.571c.985-.109 1.934.263 1.934 3.189 0 3.087-.43 3.693-1.755 3.647Zm-29.677-9.752h-2.063l-.009-3.401c0-.131-.05-.194-.17-.194h-2.818c-.11 0-.165.057-.165.188v3.516l-1.513.457a.243.243 0 0 0-.116.104.339.339 0 0 0-.044.171v2.212c0 .037.006.075.017.109a.3.3 0 0 0 .05.093.236.236 0 0 0 .074.062.195.195 0 0 0 .088.022h1.444v5.316c0 3.956 2.218 4.344 3.721 4.344a5.15 5.15 0 0 0 1.637-.343.23.23 0 0 0 .095-.1.315.315 0 0 0 .033-.151l.005-2.435a.352.352 0 0 0-.018-.11.298.298 0 0 0-.05-.092.223.223 0 0 0-.074-.062.183.183 0 0 0-.088-.022c-.119 0-.43.057-.747.057-1.013 0-1.356-.583-1.356-1.349v-5.053h2.067c.06 0 .119-.03.162-.084a.325.325 0 0 0 .067-.202v-2.767a.346.346 0 0 0-.018-.109.3.3 0 0 0-.05-.093.223.223 0 0 0-.074-.062.195.195 0 0 0-.087-.022Z" fill="#fff"/><defs><clipPath id="a"><path fill="#fff" transform="translate(12)" d="M0 0h85v100.173H0z"/></clipPath></defs></svg>