<svg width="145" height="76" viewBox="0 0 145 76" fill="none" xmlns="http://www.w3.org/2000/svg">
<g clip-path="url(#clip0_303_2)">
<path d="M101.5 52.25L123.25 38L115.637 32.8938L106.937 38.5938V23.75H96.0625V38.5938L87.3625 32.8938L79.75 38L101.5 52.25ZM14.5 76C10.5125 76 7.09776 75.069 4.25576 73.207C1.41376 71.345 -0.00482102 69.1093 1.2309e-05 66.5V9.50001C1.2309e-05 6.88751 1.42101 4.65026 4.26301 2.78826C7.10501 0.926257 10.5173 -0.0031586 14.5 8.06452e-06H130.5C134.487 8.06452e-06 137.902 0.931007 140.744 2.79301C143.586 4.65501 145.005 6.89067 145 9.50001V66.5C145 69.1125 143.579 71.3497 140.737 73.2117C137.895 75.0737 134.483 76.0032 130.5 76H14.5ZM25.375 52.25H36.25V30.875H43.5V45.125H54.375V30.875H61.625V52.25H72.5V28.5C72.5 27.1542 71.804 26.0253 70.412 25.1133C69.02 24.2013 67.2993 23.7468 65.25 23.75H32.625C30.5708 23.75 28.8478 24.206 27.4558 25.118C26.0638 26.03 25.3702 27.1573 25.375 28.5V52.25Z" fill="white"/>
</g>
<defs>
<clipPath id="clip0_303_2">
<rect width="145" height="76" fill="white"/>
</clipPath>
</defs>
</svg>
