<svg xmlns="http://www.w3.org/2000/svg" width="110" height="126" fill="none"><path fill="#61DAFB" d="M55 55.506c5.55 0 10.05-4.225 10.05-9.437s-4.5-9.437-10.05-9.437c-5.55 0-10.05 4.225-10.05 9.437s4.5 9.437 10.05 9.437Z"/><path fill="#61DAFB" d="M55 80.773c7.888 7.205 15.668 11.467 21.935 11.467 2.053 0 3.998-.406 5.619-1.32 5.619-3.044 7.672-10.654 5.727-21.512a63.96 63.96 0 0 0-1.297-5.886c2.161-.608 4.106-1.217 6.051-1.826C103.95 57.739 110 52.259 110 46.272c0-6.088-6.051-11.568-16.965-15.424a51.894 51.894 0 0 0-6.05-1.827 63.96 63.96 0 0 0 1.296-5.885c1.837-11.06-.216-18.773-5.835-21.817C80.826.406 78.88 0 76.827 0 70.668 0 62.78 4.262 54.892 11.466 47.112 4.263 39.332 0 33.065 0c-2.053 0-3.998.406-5.619 1.32-5.619 3.043-7.672 10.654-5.727 21.512a63.968 63.968 0 0 0 1.297 5.885c-2.161.609-4.106 1.218-6.051 1.827C6.05 34.5 0 39.98 0 45.968c0 6.088 6.051 11.567 16.965 15.423 1.945.71 3.89 1.32 6.05 1.827a63.97 63.97 0 0 0-1.296 5.885c-1.837 10.858.216 18.57 5.727 21.513 1.62.913 3.566 1.32 5.619 1.32 6.267.202 14.047-4.06 21.935-11.163Zm-6.051-13.699c1.945.102 3.998.102 6.051.102s4.106 0 6.051-.102c-1.945 2.435-3.998 4.668-6.051 6.799-2.053-2.131-4.106-4.364-6.051-6.799ZM35.55 56.622c1.08 1.725 2.053 3.349 3.242 4.972-3.35-.405-6.484-.913-9.51-1.522.973-2.74 2.054-5.58 3.35-8.422.865 1.624 1.837 3.349 2.918 4.972Zm-6.267-24.455c3.025-.609 6.159-1.116 9.509-1.522-1.08 1.624-2.161 3.247-3.242 4.972-1.08 1.725-2.053 3.349-2.917 5.074a65.24 65.24 0 0 1-3.35-8.524Zm5.943 13.902c1.405-2.74 2.917-5.48 4.646-8.22 1.621-2.638 3.458-5.276 5.295-7.914A156.52 156.52 0 0 1 55 29.63c3.458 0 6.7.102 9.833.305 1.945 2.638 3.674 5.276 5.295 7.915 1.729 2.74 3.241 5.48 4.646 8.219-1.405 2.74-2.917 5.48-4.646 8.22-1.621 2.638-3.458 5.276-5.295 7.914a156.52 156.52 0 0 1-9.833.305c-3.458 0-6.7-.102-9.833-.305-1.945-2.638-3.674-5.276-5.295-7.915-1.729-2.74-3.241-5.48-4.646-8.219Zm42.25-5.48-2.918-5.073c-1.08-1.725-2.053-3.349-3.242-4.972 3.35.405 6.484.913 9.51 1.522-.973 2.84-2.054 5.682-3.35 8.523Zm0 10.96c1.296 2.84 2.377 5.682 3.35 8.422-3.026.609-6.16 1.116-9.51 1.522a212.048 212.048 0 0 0 3.242-4.972c.972-1.522 1.945-3.247 2.917-4.972Zm2.485 35.21c-.865.508-1.945.711-3.134.711-5.295 0-11.886-4.059-18.37-10.147 3.134-3.146 6.16-6.697 9.185-10.655 5.079-.406 9.942-1.116 14.48-2.13.54 1.826.864 3.652 1.188 5.479 1.513 8.625.325 14.815-3.35 16.743Zm5.619-53.476c12.102 3.248 19.341 8.22 19.341 12.786 0 3.957-4.97 7.915-13.723 11.06a71.762 71.762 0 0 1-5.618 1.726 102.814 102.814 0 0 0-5.295-12.786c2.161-4.363 3.998-8.625 5.295-12.786ZM76.935 4.668c1.189 0 2.161.203 3.134.71 3.566 1.928 4.862 8.017 3.35 16.743-.325 1.725-.757 3.552-1.19 5.48-4.537-.913-9.4-1.624-14.478-2.131-2.918-3.958-6.052-7.51-9.185-10.655C65.049 8.828 71.64 4.668 76.936 4.668ZM61.051 25.064c-1.945-.102-3.998-.102-6.051-.102s-4.106 0-6.051.102c1.945-2.435 3.998-4.668 6.051-6.799 2.053 2.131 4.106 4.465 6.051 6.799ZM30.04 5.378c.865-.507 1.945-.71 3.134-.71 5.295 0 11.886 4.059 18.37 10.147-3.134 3.146-6.16 6.697-9.185 10.655-5.079.406-9.941 1.116-14.48 2.13-.54-1.826-.864-3.652-1.188-5.479-1.513-8.625-.325-14.713 3.35-16.743ZM24.42 58.855C12.318 55.608 5.08 50.635 5.08 46.069c0-3.958 4.97-7.915 13.723-11.06a71.762 71.762 0 0 1 5.618-1.726 102.807 102.807 0 0 0 5.295 12.786c-2.161 4.363-3.998 8.727-5.295 12.786Zm2.27 11.162c.324-1.725.756-3.552 1.188-5.48 4.538.913 9.401 1.624 14.48 2.131 2.917 3.958 6.05 7.51 9.184 10.655C45.06 83.31 38.468 87.47 33.172 87.47c-1.188 0-2.16-.203-3.133-.71-3.674-1.928-4.862-8.118-3.35-16.743Zm-4.539 41.807c2.378-2.74 2.486-5.784 1.189-8.828-1.297-3.044-3.998-4.465-7.348-4.567-3.998-.101-8.104 0-12.102 0h-.756v26.282h3.241v-9.944h5.079c.648 0 1.188.203 1.513.71l6.483 9.437c.108.203.432.507.648.507h4.214a1029.853 1029.853 0 0 0-7.672-10.959c2.27-.304 4.215-1.015 5.511-2.638Zm-15.776-.203v-10.046h1.189c2.485 0 5.078-.101 7.564.102 2.917.101 4.97 2.232 4.97 4.972s-2.377 4.87-5.294 4.972c-2.594.101-5.187 0-8.429 0Zm41.818 1.319c-1.73-7.103-8.645-8.93-13.94-6.697-4.106 1.725-5.943 5.074-6.05 9.234-.109 3.146.864 5.987 3.457 8.118 2.918 2.435 6.483 2.74 10.157 2.131 2.053-.406 3.89-1.319 5.295-2.74-.54-.71-1.08-1.421-1.62-2.03-3.026 2.436-6.376 3.248-10.05 1.624-2.377-1.116-3.566-3.856-3.782-5.885H48.41v-1.32c.108-.913 0-1.725-.216-2.435Zm-16.317 1.624c-.324-3.045 2.918-6.292 6.483-6.292 4.107-.101 6.7 2.233 6.808 6.292h-13.29Zm33.173-8.829c-1.62-.304-3.35-.405-4.97-.304-2.594.203-4.863 1.319-6.7 3.146.54.71.973 1.42 1.621 2.232.216-.203.432-.406.648-.507 1.73-1.522 3.782-2.334 6.267-2.131 1.946.101 3.782.71 4.323 2.537.432 1.42.324 2.942.432 4.465-.324 0-.432-.102-.54-.203-2.594-2.03-5.511-2.436-8.645-1.725-2.917.71-4.754 2.841-4.97 5.581-.216 3.145 1.296 5.479 4.214 6.595 1.837.711 3.89.711 5.835.305 1.513-.305 2.161-1.116 4.322-2.233v1.319h3.026c0-4.058.108-9.031 0-13.698 0-2.943-1.837-4.77-4.863-5.379Zm1.513 12.786c-.108.305 0 .609 0 .913 0 2.131-.54 2.842-2.701 3.653-1.513.508-3.134.711-4.755.203-1.837-.507-3.134-2.029-3.134-3.754-.108-1.725 1.081-3.45 2.918-3.958 2.485-.811 4.754-.304 6.807 1.117.649.507 1.081 1.014.865 1.826Zm16.856-10.046c2.81-.812 5.403-.304 7.348 1.928l.324.203c.757-.609 1.405-1.217 2.27-1.928-.325-.304-.433-.507-.649-.812-3.133-3.145-9.293-3.551-13.075-1.014-5.294 3.653-5.186 10.756-2.593 14.51 2.485 3.552 6.051 4.77 10.265 4.262 2.486-.304 4.539-1.42 6.16-3.348-.757-.609-1.513-1.218-2.27-1.928-.216.203-.324.304-.432.507-2.917 3.044-7.78 2.74-10.373-.507-1.513-1.928-1.837-4.161-1.405-6.393.216-2.537 1.621-4.566 4.43-5.48Zm22.476 13.801c-.216.101-.324.203-.324.203-.865.608-1.729.71-2.702.405-.972-.405-1.08-1.217-1.188-2.029v-11.568c0-.203 0 .203.108-.812h4.106v-3.044h-4.322v-5.074H98.33v5.48h-2.81c-.215 0-.54.203-.54.406-.108.71 0 1.218 0 2.232h3.458v12.989c0 1.623.432 3.044 1.945 3.856 1.621.913 4.755.71 6.159-.406.216-.102.324-.507.324-.609a38.638 38.638 0 0 1-.972-2.029Z"/></svg>