<svg xmlns="http://www.w3.org/2000/svg" width="110" height="126" fill="none"><g clip-path="url(#a)"><path fill="url(#b)" d="M109.636 18.79 57.964 124.359c-1.067 2.179-3.808 2.192-4.891.023L.376 18.801c-1.18-2.364.59-5.227 2.933-4.748l51.728 10.564c.33.067.668.066.998-.002l50.646-10.547c2.337-.486 4.114 2.354 2.955 4.723Z"/><path fill="url(#c)" d="M78.6.491 42.07 8.812c-.6.137-1.045.729-1.082 1.438L38.74 54.37c-.053 1.04.768 1.846 1.64 1.612l10.172-2.729c.951-.255 1.811.72 1.616 1.832l-3.022 17.201c-.203 1.158.731 2.148 1.704 1.805l6.282-2.22c.974-.343 1.91.65 1.704 1.809l-4.802 27.019c-.3 1.69 1.633 2.611 2.44 1.162l.538-.967 29.768-69.06c.499-1.156-.36-2.474-1.453-2.23l-10.47 2.35c-.983.22-1.82-.845-1.543-1.964l6.833-27.536C80.425 1.333 79.585.267 78.6.49Z"/></g><defs><linearGradient id="b" x1="-.911" x2="74.897" y1="10.28" y2="100.392" gradientUnits="userSpaceOnUse"><stop stop-color="#41D1FF"/><stop offset="1" stop-color="#BD34FE"/></linearGradient><linearGradient id="c" x1="52.224" x2="67.133" y1="2.75" y2="90.735" gradientUnits="userSpaceOnUse"><stop stop-color="#FFEA83"/><stop offset=".083" stop-color="#FFDD35"/><stop offset="1" stop-color="#FFA800"/></linearGradient><clipPath id="a"><path fill="#fff" d="M0 0h110v126H0z"/></clipPath></defs></svg>