<svg width="50" height="50" viewBox="0 0 50 50" fill="none" xmlns="http://www.w3.org/2000/svg">
<path d="M43 50H7C3.141 50 0 46.859 0 43V7C0 3.141 3.141 0 7 0H43C46.859 0 50 3.141 50 7V43C50 46.859 46.859 50 43 50ZM7 2C4.243 2 2 4.243 2 7V43C2 45.757 4.243 48 7 48H43C45.757 48 48 45.757 48 43V7C48 4.243 45.757 2 43 2H7Z" fill="url(#paint0_linear_58_18)"/>
<path d="M20.0551 41.8189C20.0526 41.5152 20.0501 40.1994 20.0476 38.9679L20.0452 37.6885C14.4908 38.4437 13.1462 34.5683 13.1313 34.5271C12.3604 32.5724 11.3063 32.0136 11.2609 31.9905L11.1586 31.9311C10.7764 31.6702 9.76275 30.976 10.0508 30.0631C10.3108 29.2402 11.3187 29.1551 11.7768 29.17C14.3142 29.3475 15.5986 31.6281 15.6514 31.7247C16.9465 33.9443 18.9234 33.7148 20.1987 33.2468C20.3176 32.6789 20.5016 32.1572 20.7427 31.6967C16.6518 30.9711 12.017 28.7953 12.017 20.8802C12.017 18.7068 12.6939 16.786 14.0319 15.1608C13.7331 14.1653 13.393 12.1347 14.4 9.57671L14.5437 9.21187L14.9167 9.093C15.2601 8.97992 17.1355 8.57793 20.9911 11.1013C22.5825 10.6935 24.2673 10.483 26.0048 10.4748C27.7506 10.483 29.4369 10.6935 31.0317 11.1013C34.884 8.57711 36.7552 8.98405 37.0994 9.093L37.4717 9.21269L37.6153 9.57588C38.6265 12.1331 38.2864 14.1645 37.9876 15.1608C39.3231 16.7811 40 18.7027 40 20.8802C40 28.7969 35.3602 30.9661 31.2603 31.6826C31.725 32.5617 31.9768 33.6653 31.9768 34.8836C31.9768 36.2729 31.971 40.8301 31.9644 41.8189L30.3135 41.8074C30.3201 40.8202 30.3259 36.2704 30.3259 34.8828C30.3259 32.8671 29.5475 31.9756 29.2116 31.6851L27.7836 30.4494L29.6606 30.2406C33.957 29.7635 38.3483 28.2769 38.3483 20.8794C38.3483 18.9561 37.7069 17.2796 36.4416 15.897L36.0866 15.5099L36.2864 15.0254C36.4234 14.6944 37.0243 13.0097 36.2509 10.658C35.6252 10.6952 34.1312 10.9898 31.6417 12.6779L31.3247 12.8916L30.9574 12.7901C29.4196 12.3625 27.7068 12.1331 26.004 12.1248C24.3102 12.1331 22.5999 12.3625 21.0646 12.7901L20.6973 12.8916L20.3811 12.6779C17.8891 10.9907 16.3918 10.6935 15.7636 10.6564C14.9919 13.0097 15.5936 14.6944 15.7306 15.0254L15.9304 15.5099L15.5763 15.897C14.3084 17.2846 13.6662 18.9611 13.6662 20.8794C13.6662 28.2736 18.0493 29.7693 22.3366 30.2571L24.1954 30.4684L22.7856 31.6983C22.4785 31.9666 21.9354 32.6162 21.7505 33.9493L21.6886 34.4024L21.2709 34.5898C20.1805 35.0785 16.4512 36.3744 14.2151 32.5386C14.2028 32.518 13.7661 31.7586 12.9753 31.2534C13.5086 31.7808 14.1582 32.6343 14.6823 33.9666C14.7368 34.1234 15.8024 36.9563 20.6915 35.8973L21.6869 35.681L21.6969 38.9646C21.6993 40.192 21.7018 41.5036 21.7043 41.8074L20.0551 41.8189Z" fill="url(#paint1_linear_58_18)"/>
<defs>
<linearGradient id="paint0_linear_58_18" x1="25" y1="-0.5" x2="25" y2="50.5" gradientUnits="userSpaceOnUse">
<stop stop-color="#FEE195"/>
<stop offset="1" stop-color="#5912AB"/>
</linearGradient>
<linearGradient id="paint1_linear_58_18" x1="25.0002" y1="8.79585" x2="25.0002" y2="41.27" gradientUnits="userSpaceOnUse">
<stop stop-color="#FEE195"/>
<stop offset="1" stop-color="#5912AB"/>
</linearGradient>
</defs>
</svg>
