<svg width="50" height="50" viewBox="0 0 50 50" fill="none" xmlns="http://www.w3.org/2000/svg">
<path d="M43 13.615H42.9931C42.9585 11.6125 41.4838 10 39.6769 10H10.3231C8.51615 10 7.04154 11.6125 7.00692 13.615H7C7 13.6225 7.00692 13.63 7.00692 13.645C7.00692 13.66 7 13.6675 7 13.6825V36.3175C7 38.35 8.49538 40 10.3231 40H39.6769C41.5046 40 43 38.35 43 36.3175V13.6825C43 13.6675 42.9931 13.66 42.9931 13.645C42.9931 13.63 43 13.6225 43 13.615ZM37.9254 11.5L25 21.3325L12.0746 11.5H37.9254ZM9.79 11.5975L25 23.17L40.21 11.5975C41.0062 11.8525 41.5946 12.6625 41.6085 13.6375C41.5877 14.1175 41.0062 14.7175 40.7085 14.9425L25 27.0775L9.28462 14.935C8.99385 14.7175 8.41231 14.1175 8.39154 13.6375C8.40538 12.6625 8.99385 11.8525 9.79 11.5975ZM11.1538 18.25V38.5H10.3231C9.25692 38.5 8.38462 37.5175 8.38462 36.3175V16.0825C8.43308 16.12 8.46769 16.15 8.48154 16.165L11.1885 18.25H11.1538ZM37.4615 38.5H12.5385V19.2925L25 28.9225L37.4615 19.2925V38.5ZM41.6154 36.3175C41.6154 37.5175 40.7431 38.5 39.6769 38.5H38.8462V18.25H38.8115L41.5115 16.165C41.5254 16.15 41.5669 16.12 41.6154 16.0825V36.3175Z" fill="url(#paint0_linear_1_79)"/>
<path d="M41.6154 16.0825V36.3175C41.6154 37.5175 40.7431 38.5 39.6769 38.5H38.8461V18.25H38.8115L41.5115 16.165C41.5254 16.15 41.5669 16.12 41.6154 16.0825Z" fill="url(#paint1_linear_1_79)"/>
<path d="M11.1885 18.25H11.1538V38.5H10.3231C9.25692 38.5 8.38461 37.5175 8.38461 36.3175V16.0825C8.43307 16.12 8.46769 16.15 8.48154 16.165L11.1885 18.25Z" fill="url(#paint2_linear_1_79)"/>
<path d="M41.6085 13.6375C41.5877 14.1175 41.0062 14.7175 40.7085 14.9425L25 27.0775L9.28463 14.935C8.99386 14.7175 8.41233 14.1175 8.39156 13.6375C8.4054 12.6625 8.99386 11.8525 9.79002 11.5975L25 23.17L40.21 11.5975C41.0062 11.8525 41.5946 12.6625 41.6085 13.6375Z" fill="url(#paint3_linear_1_79)"/>
<path d="M43 50H7C3.141 50 0 46.859 0 43V7C0 3.141 3.141 0 7 0H43C46.859 0 50 3.141 50 7V43C50 46.859 46.859 50 43 50ZM7 2C4.243 2 2 4.243 2 7V43C2 45.757 4.243 48 7 48H43C45.757 48 48 45.757 48 43V7C48 4.243 45.757 2 43 2H7Z" fill="url(#paint4_linear_1_79)"/>
<defs>
<linearGradient id="paint0_linear_1_79" x1="25" y1="10" x2="25" y2="40" gradientUnits="userSpaceOnUse">
<stop stop-color="#FEE195"/>
<stop offset="1" stop-color="#5912AB"/>
</linearGradient>
<linearGradient id="paint1_linear_1_79" x1="40.2134" y1="16.0825" x2="40.2134" y2="38.5" gradientUnits="userSpaceOnUse">
<stop stop-color="white"/>
<stop offset="1" stop-color="#9042EB"/>
</linearGradient>
<linearGradient id="paint2_linear_1_79" x1="9.78654" y1="16.0825" x2="9.78654" y2="38.5" gradientUnits="userSpaceOnUse">
<stop stop-color="white"/>
<stop offset="1" stop-color="#9042EB"/>
</linearGradient>
<linearGradient id="paint3_linear_1_79" x1="25" y1="11.5975" x2="25" y2="27.0775" gradientUnits="userSpaceOnUse">
<stop stop-color="white"/>
<stop offset="1" stop-color="#9042EB"/>
</linearGradient>
<linearGradient id="paint4_linear_1_79" x1="25" y1="-0.5" x2="25" y2="50.5" gradientUnits="userSpaceOnUse">
<stop stop-color="#FEE195"/>
<stop offset="1" stop-color="#5912AB"/>
</linearGradient>
</defs>
</svg>
