<svg width="50" height="50" viewBox="0 0 50 50" fill="none" xmlns="http://www.w3.org/2000/svg">
<path d="M37 50H13C5.832 50 0 44.168 0 37V13C0 5.832 5.832 0 13 0H37C44.168 0 50 5.832 50 13V37C50 44.168 44.168 50 37 50ZM13 2C6.935 2 2 6.935 2 13V37C2 43.065 6.935 48 13 48H37C43.065 48 48 43.065 48 37V13C48 6.935 43.065 2 37 2H13Z" fill="url(#paint0_linear_1_17)"/>
<path d="M25 38C17.832 38 12 32.168 12 25C12 17.832 17.832 12 25 12C32.168 12 38 17.832 38 25C38 32.168 32.168 38 25 38ZM25 16C20.038 16 16 20.038 16 25C16 29.963 20.038 34 25 34C29.963 34 34 29.963 34 25C34 20.038 29.963 16 25 16Z" fill="url(#paint1_linear_1_17)"/>
<path d="M39 8C37.3432 8 36 9.34315 36 11C36 12.6568 37.3432 14 39 14C40.6568 14 42 12.6568 42 11C42 9.34315 40.6568 8 39 8Z" fill="url(#paint2_linear_1_17)"/>
<defs>
<linearGradient id="paint0_linear_1_17" x1="25" y1="-0.333" x2="25" y2="50.872" gradientUnits="userSpaceOnUse">
<stop stop-color="#FEE195"/>
<stop offset="1" stop-color="#5912AB"/>
</linearGradient>
<linearGradient id="paint1_linear_1_17" x1="25" y1="11.167" x2="25" y2="38.679" gradientUnits="userSpaceOnUse">
<stop stop-color="white"/>
<stop offset="1" stop-color="#9042EB"/>
</linearGradient>
<linearGradient id="paint2_linear_1_17" x1="39" y1="5.75" x2="39" y2="16.049" gradientUnits="userSpaceOnUse">
<stop stop-color="white"/>
<stop offset="1" stop-color="#9042EB"/>
</linearGradient>
</defs>
</svg>
