<svg width="50" height="50" viewBox="0 0 50 50" fill="none" xmlns="http://www.w3.org/2000/svg">
<path fill-rule="evenodd" clip-rule="evenodd" d="M15 41V19H9V41H15Z" fill="url(#paint0_linear_1_41)"/>
<path fill-rule="evenodd" clip-rule="evenodd" d="M12.358 16C14.87 16 16.434 14.526 16.434 12.446C16.387 10.32 14.87 8.797 12.406 8.797C9.941 8.797 8.33 10.272 8.33 12.398C8.33 14.478 9.893 16 12.311 16H12.358Z" fill="url(#paint1_linear_1_41)"/>
<path fill-rule="evenodd" clip-rule="evenodd" d="M19.946 41H27V28.911C27 28.263 27.122 27.616 27.313 27.153C27.833 25.858 29.19 24.518 31.18 24.518C33.787 24.518 35.001 26.506 35.001 29.419V41H41.001V28.588C41.001 21.931 37.916 19.09 33.175 19.09C29.289 19.09 28.051 21 27.103 23H27V19H19.946C20.041 21 19.771 41 19.771 41H19.946Z" fill="url(#paint2_linear_1_41)"/>
<path d="M43 50H7C3.141 50 0 46.859 0 43V7C0 3.141 3.141 0 7 0H43C46.859 0 50 3.141 50 7V43C50 46.859 46.859 50 43 50ZM7 2C4.243 2 2 4.243 2 7V43C2 45.757 4.243 48 7 48H43C45.757 48 48 45.757 48 43V7C48 4.243 45.757 2 43 2H7Z" fill="url(#paint3_linear_1_41)"/>
<defs>
<linearGradient id="paint0_linear_1_41" x1="12" y1="17.858" x2="12" y2="42.041" gradientUnits="userSpaceOnUse">
<stop stop-color="white"/>
<stop offset="1" stop-color="#9042EB"/>
</linearGradient>
<linearGradient id="paint1_linear_1_41" x1="12.382" y1="8.423" x2="12.382" y2="16.341" gradientUnits="userSpaceOnUse">
<stop stop-color="white"/>
<stop offset="1" stop-color="#9042EB"/>
</linearGradient>
<linearGradient id="paint2_linear_1_41" x1="30.386" y1="7.125" x2="30.386" y2="42.525" gradientUnits="userSpaceOnUse">
<stop stop-color="white"/>
<stop offset="1" stop-color="#9042EB"/>
</linearGradient>
<linearGradient id="paint3_linear_1_41" x1="25" y1="-0.5" x2="25" y2="50.5" gradientUnits="userSpaceOnUse">
<stop stop-color="#FEE195"/>
<stop offset="1" stop-color="#5912AB"/>
</linearGradient>
</defs>
</svg>
