<svg width="50" height="50" viewBox="0 0 50 50" fill="none" xmlns="http://www.w3.org/2000/svg">
<path d="M16.4184 31.2305C14.0046 31.2305 12.0408 28.4351 12.0408 25C12.0408 21.5649 14.0046 18.7695 16.4184 18.7695C18.8321 18.7695 20.7959 21.5649 20.7959 25C20.7959 28.4351 18.8321 31.2305 16.4184 31.2305ZM16.4184 20.154C14.7758 20.154 13.3877 22.3735 13.3877 25C13.3877 27.6265 14.7758 29.846 16.4184 29.846C18.0609 29.846 19.449 27.6265 19.449 25C19.449 22.3735 18.0609 20.154 16.4184 20.154Z" fill="url(#paint0_linear_1_90)"/>
<path d="M37.6327 13.2312H25.5102V9.06025C25.5102 8.41089 25.2193 7.81345 24.7121 7.42162C24.1983 7.02356 23.547 6.89895 22.9268 7.08379L10.4265 10.782C8.99808 11.2042 8 12.5563 8 14.0696V35.9304C8 37.4445 8.99808 38.7965 10.4265 39.2188L22.9268 42.9169C23.1153 42.973 23.3066 43 23.4959 43C23.9302 43 24.3539 42.856 24.7121 42.5791C25.2193 42.1873 25.5102 41.5891 25.5102 40.9405V36.7688H37.6327C39.4894 36.7688 41 35.216 41 33.3074V16.6926C41 14.7847 39.4894 13.2312 37.6327 13.2312ZM24.1633 10.4621V39.5379V40.9405C24.1633 41.1509 24.0676 41.3448 23.902 41.4735C23.7289 41.6071 23.5093 41.6487 23.2985 41.5871L10.7989 37.8889C9.94431 37.6355 9.34694 36.8304 9.34694 35.9304V14.0696C9.34694 13.1696 9.94431 12.3645 10.7989 12.1118L23.2985 8.41366C23.5087 8.35136 23.7282 8.39289 23.902 8.5272C24.0676 8.65596 24.1633 8.8498 24.1633 9.06025V10.4621ZM37.6327 14.6158C37.9344 14.6158 38.2186 14.6892 38.4758 14.8117L28.2014 26.0682L25.5102 23.1475V14.6158H37.6327ZM39.6531 33.3074C39.6531 34.4524 38.7466 35.3842 37.6327 35.3842H25.5102V25.1599L27.7151 27.5525C27.8424 27.6909 28.0196 27.7691 28.2041 27.7691H28.2054C28.3913 27.7691 28.5684 27.6895 28.6957 27.5504L39.4389 15.7802C39.5716 16.0571 39.6531 16.3638 39.6531 16.6926V33.3074Z" fill="url(#paint1_linear_1_90)"/>
<path d="M43 50H7C3.141 50 0 46.859 0 43V7C0 3.141 3.141 0 7 0H43C46.859 0 50 3.141 50 7V43C50 46.859 46.859 50 43 50ZM7 2C4.243 2 2 4.243 2 7V43C2 45.757 4.243 48 7 48H43C45.757 48 48 45.757 48 43V7C48 4.243 45.757 2 43 2H7Z" fill="url(#paint2_linear_1_90)"/>
<defs>
<linearGradient id="paint0_linear_1_90" x1="16.4184" y1="18.7695" x2="16.4184" y2="31.2305" gradientUnits="userSpaceOnUse">
<stop stop-color="white"/>
<stop offset="1" stop-color="#9042EB"/>
</linearGradient>
<linearGradient id="paint1_linear_1_90" x1="24.5" y1="7.00002" x2="24.5" y2="43" gradientUnits="userSpaceOnUse">
<stop stop-color="#FEE195"/>
<stop offset="1" stop-color="#5912AB"/>
</linearGradient>
<linearGradient id="paint2_linear_1_90" x1="25" y1="-0.5" x2="25" y2="50.5" gradientUnits="userSpaceOnUse">
<stop stop-color="#FEE195"/>
<stop offset="1" stop-color="#5912AB"/>
</linearGradient>
</defs>
</svg>
