<svg width="50" height="50" viewBox="0 0 50 50" fill="none" xmlns="http://www.w3.org/2000/svg">
<path d="M43 50H7C3.141 50 0 46.859 0 43V7C0 3.141 3.141 0 7 0H43C46.859 0 50 3.141 50 7V43C50 46.859 46.859 50 43 50ZM7 2C4.243 2 2 4.243 2 7V43C2 45.757 4.243 48 7 48H43C45.757 48 48 45.757 48 43V7C48 4.243 45.757 2 43 2H7Z" fill="url(#paint0_linear_101_5)"/>
<path d="M10.0753 11L22.025 26.9776L10 39.9682H12.7066L23.2347 28.5945L31.7408 39.9682H40.9507L28.3284 23.092L39.5213 11H36.8148L27.1192 21.4746L19.2852 11H10.0753ZM14.0554 12.9934H18.2864L36.9701 37.9747H32.7391L14.0554 12.9934Z" fill="url(#paint1_linear_101_5)"/>
<defs>
<linearGradient id="paint0_linear_101_5" x1="25" y1="-0.5" x2="25" y2="50.5" gradientUnits="userSpaceOnUse">
<stop stop-color="#FEE195"/>
<stop offset="1" stop-color="#5912AB"/>
</linearGradient>
<linearGradient id="paint1_linear_101_5" x1="25.4753" y1="11" x2="25.4753" y2="39.9682" gradientUnits="userSpaceOnUse">
<stop stop-color="#FEE195"/>
<stop offset="1" stop-color="#5912AB"/>
</linearGradient>
</defs>
</svg>
