<svg width="50" height="50" viewBox="0 0 50 50" fill="none" xmlns="http://www.w3.org/2000/svg">
<path d="M43 50H7C3.141 50 0 46.859 0 43V7C0 3.141 3.141 0 7 0H43C46.859 0 50 3.141 50 7V43C50 46.859 46.859 50 43 50ZM7 2C4.243 2 2 4.243 2 7V43C2 45.757 4.243 48 7 48H43C45.757 48 48 45.757 48 43V7C48 4.243 45.757 2 43 2H7Z" fill="url(#paint0_linear_1_29)"/>
<path d="M45.471 11.3594C45.2403 11.0671 44.8565 10.9737 44.5274 11.1271C44.0323 11.3594 43.5234 11.566 43.0025 11.7434C43.667 10.8563 44.1815 9.844 44.5137 8.75114C44.6162 8.41171 44.5121 8.04229 44.2508 7.81943C43.9896 7.59571 43.6267 7.56657 43.3388 7.74829C41.9057 8.64057 40.3775 9.28086 38.7897 9.65371C37.1236 7.96171 34.8696 7 32.5358 7C27.5609 7 23.5126 11.2669 23.5126 16.5117C23.5126 16.858 23.5303 17.206 23.5666 17.5523C17.591 16.948 12.0435 13.8297 8.22264 8.89257C8.0557 8.67657 7.8049 8.56257 7.53717 8.58229C7.27508 8.60371 7.03879 8.75971 6.90492 9.00057C6.10414 10.4397 5.67995 12.0974 5.67995 13.7946C5.67995 15.892 6.33074 17.8917 7.49201 19.5203C7.25653 19.4149 7.02508 19.2974 6.79928 19.1671C6.54848 19.024 6.24607 19.0291 6.00252 19.1851C5.75818 19.3403 5.60899 19.6197 5.60899 19.9214V20.0234C5.60899 23.2017 7.1154 26.086 9.46857 27.8269C9.4589 27.8251 9.44922 27.8226 9.43954 27.8209C9.15729 27.7651 8.87585 27.874 8.68956 28.1011C8.50327 28.3283 8.44279 28.642 8.52989 28.9291C9.48309 32.056 11.8758 34.39 14.7951 35.2137C12.3733 36.7317 9.63309 37.5254 6.76541 37.5254C6.13155 37.5254 5.50496 37.486 4.90416 37.408C4.52756 37.3574 4.17353 37.5949 4.04692 37.9711C3.92031 38.3483 4.0566 38.7691 4.37514 38.9834C8.2807 41.6114 12.7854 43 17.4031 43C32.5414 43 41.5872 30.0409 41.5872 17.512C41.5872 17.2797 41.5832 17.0483 41.5759 16.8177C43.1138 15.598 44.4404 14.11 45.5242 12.3871C45.7234 12.07 45.7016 11.6517 45.471 11.3594ZM40.2872 15.694C40.0622 15.8629 39.934 16.1423 39.9469 16.4354C39.963 16.7911 39.9743 17.1503 39.9743 17.512C39.9743 29.1974 31.5318 41.2857 17.4031 41.2857C14.1919 41.2857 11.0371 40.5657 8.1299 39.184C11.5379 38.9089 14.741 37.5983 17.4644 35.3543C17.7345 35.1314 17.8434 34.7526 17.7353 34.408C17.6273 34.0634 17.3273 33.8277 16.9853 33.82C14.2588 33.7643 11.8209 32.1469 10.5758 29.6757C11.475 29.7083 12.3524 29.5909 13.2177 29.3389C13.5782 29.2334 13.8233 28.8786 13.8104 28.4817C13.7967 28.084 13.5282 27.7497 13.162 27.6717C10.1194 27.0271 7.81377 24.4377 7.32024 21.2869C8.22505 21.6323 9.17261 21.8277 10.1169 21.8586C10.4871 21.868 10.8008 21.6263 10.9097 21.262C11.0193 20.8969 10.8879 20.4991 10.5879 20.2874C8.52505 18.832 7.29443 16.4046 7.29443 13.7946C7.29443 12.8217 7.46378 11.866 7.78958 10.9771C12.079 15.9717 18.099 19.0009 24.494 19.3429C24.7585 19.3617 24.9916 19.2434 25.1529 19.0369C25.3158 18.8303 25.3771 18.5543 25.3198 18.2929C25.1908 17.7057 25.1263 17.1066 25.1263 16.5126C25.1263 12.2131 28.4504 8.71514 32.5366 8.71514C34.5825 8.71514 36.5518 9.61257 37.9397 11.176C38.1292 11.3886 38.4082 11.4837 38.6792 11.4297C39.7961 11.2009 40.888 10.8546 41.9436 10.3934C41.3557 11.2566 40.6009 11.992 39.7187 12.5483C39.3905 12.7557 39.2437 13.1783 39.3671 13.5631C39.4905 13.9463 39.8485 14.1889 40.2284 14.1366C40.9961 14.0363 41.7493 13.8863 42.4839 13.6866C41.8138 14.428 41.0799 15.0991 40.2872 15.694Z" fill="url(#paint1_linear_1_29)"/>
<path d="M23.84 36.8165L24.3408 38.4451C30.085 36.4514 34.6825 31.6617 36.9551 25.3051L35.4478 24.6957C34.214 28.1465 31.0665 34.3077 23.84 36.8165Z" fill="url(#paint2_linear_1_29)"/>
<path d="M32.8946 16.4286C33.7854 16.4286 34.5075 15.6611 34.5075 14.7143C34.5075 13.7675 33.7854 13 32.8946 13C32.0039 13 31.2818 13.7675 31.2818 14.7143C31.2818 15.6611 32.0039 16.4286 32.8946 16.4286Z" fill="url(#paint3_linear_1_29)"/>
<defs>
<linearGradient id="paint0_linear_1_29" x1="25" y1="-0.167" x2="25" y2="51.017" gradientUnits="userSpaceOnUse">
<stop stop-color="#FEE195"/>
<stop offset="1" stop-color="#5912AB"/>
</linearGradient>
<linearGradient id="paint1_linear_1_29" x1="24.8303" y1="6.088" x2="24.8303" y2="42.31" gradientUnits="userSpaceOnUse">
<stop stop-color="#FEE195"/>
<stop offset="1" stop-color="#5912AB"/>
</linearGradient>
<linearGradient id="paint2_linear_1_29" x1="30.3971" y1="6.08796" x2="30.3971" y2="42.31" gradientUnits="userSpaceOnUse">
<stop stop-color="#FEE195"/>
<stop offset="1" stop-color="#5912AB"/>
</linearGradient>
<linearGradient id="paint3_linear_1_29" x1="32.8946" y1="12.982" x2="32.8946" y2="16.024" gradientUnits="userSpaceOnUse">
<stop stop-color="white"/>
<stop offset="1" stop-color="#9042EB"/>
</linearGradient>
</defs>
</svg>
