<svg width="50" height="50" viewBox="0 0 50 50" fill="none" xmlns="http://www.w3.org/2000/svg">
<path d="M8 41L10.518 32.379C9.13949 30.0505 8.41303 27.4138 8.41436 24.7385C8.41768 16.0602 15.9512 9 25.2072 9C29.6974 9.00187 33.916 10.6412 37.0861 13.6159C40.2562 16.5906 42.0013 20.5584 42 24.7877C41.996 33.4878 34.4625 40.5648 25.2072 40.5648C22.5351 40.5648 19.8464 39.9304 17.4087 38.7282L8 41ZM17.5814 37.4008L17.8111 37.5178C20.116 38.6964 22.6706 39.3196 25.2005 39.3196C33.7307 39.3196 40.6679 32.8005 40.6719 24.7877C40.6733 20.8903 39.0663 17.2357 36.1472 14.4962C33.2281 11.7568 29.3415 10.2471 25.2072 10.2452C16.6836 10.2452 9.74642 16.7469 9.7431 24.7385C9.74177 27.2843 10.4549 29.7896 11.8063 31.9849L11.945 32.2096L9.88586 39.2586L17.5814 37.4008ZM25.2072 38.0744C22.7595 38.0744 20.2833 37.4145 18.0402 36.1674L17.75 35.9695L11.8707 37.4157L13.4524 32.0048L13.2904 31.7638C11.8806 29.662 11.1369 27.237 11.1382 24.7478C11.1409 17.4822 17.4552 11.5707 25.2125 11.5707C28.959 11.5719 32.491 12.9516 35.1591 15.455C37.8152 17.9473 39.2774 21.2732 39.2761 24.8182C39.2735 32.1274 32.9618 38.0744 25.2072 38.0744ZM18.7468 35.1121C20.7774 36.2359 23.0086 36.8293 25.2019 36.8293C32.23 36.8293 37.9454 31.4413 37.948 24.8182C37.9494 21.605 36.6253 18.5923 34.2201 16.3354C31.8017 14.0667 28.6031 12.8171 25.2125 12.8159C18.1863 12.8159 12.469 18.1689 12.4663 24.7485C12.465 27.0016 13.1383 29.1975 14.4139 31.0995L14.8887 31.8037L13.7612 35.6631L18.0303 34.6128L18.7468 35.1121Z" fill="url(#paint0_linear_1_55)"/>
<path fill-rule="evenodd" clip-rule="evenodd" d="M21.0955 18.2878C20.7874 17.6459 20.4633 17.6328 20.1698 17.6216C19.9301 17.6123 19.6558 17.6123 19.3816 17.6123C19.1074 17.6123 18.6618 17.7088 18.2853 18.0948C17.9081 18.4808 16.8456 19.4135 16.8456 21.3099C16.8456 23.2069 18.3191 25.0398 18.525 25.2976C18.7308 25.5547 21.3697 29.5717 25.5498 31.117C29.0234 32.4014 29.7306 32.1461 30.4843 32.0813C31.238 32.0172 32.9173 31.1487 33.26 30.2484C33.6026 29.3482 33.6026 28.5768 33.4997 28.4155C33.3968 28.2549 33.1225 28.1584 32.7115 27.9654C32.3004 27.7724 30.2784 26.8397 29.9013 26.7115C29.5241 26.5832 29.2498 26.5185 28.9756 26.9045C28.7014 27.2899 27.9138 28.1584 27.6741 28.4155C27.4344 28.6733 27.194 28.705 26.783 28.5126C26.3719 28.319 25.0472 27.9125 23.476 26.5988C22.2536 25.5771 21.4282 24.3151 21.1884 23.9291C20.9487 23.5437 21.1625 23.3346 21.3691 23.1422C21.5537 22.9697 21.7801 22.692 21.9859 22.4667C22.1911 22.2413 22.2595 22.0806 22.397 21.8235C22.5338 21.5658 22.4654 21.341 22.3625 21.148C22.2595 20.955 21.4607 19.0499 21.0955 18.2878Z" fill="url(#paint1_linear_1_55)"/>
<path d="M43 50H7C3.141 50 0 46.859 0 43V7C0 3.141 3.141 0 7 0H43C46.859 0 50 3.141 50 7V43C50 46.859 46.859 50 43 50ZM7 2C4.243 2 2 4.243 2 7V43C2 45.757 4.243 48 7 48H43C45.757 48 48 45.757 48 43V7C48 4.243 45.757 2 43 2H7Z" fill="url(#paint2_linear_1_55)"/>
<defs>
<linearGradient id="paint0_linear_1_55" x1="25" y1="8.34566" x2="25" y2="41.7066" gradientUnits="userSpaceOnUse">
<stop stop-color="#FEE195"/>
<stop offset="1" stop-color="#5912AB"/>
</linearGradient>
<linearGradient id="paint1_linear_1_55" x1="25.2025" y1="15.9724" x2="25.2025" y2="34.0444" gradientUnits="userSpaceOnUse">
<stop stop-color="white"/>
<stop offset="1" stop-color="#9042EB"/>
</linearGradient>
<linearGradient id="paint2_linear_1_55" x1="25" y1="-0.5" x2="25" y2="50.5" gradientUnits="userSpaceOnUse">
<stop stop-color="#FEE195"/>
<stop offset="1" stop-color="#5912AB"/>
</linearGradient>
</defs>
</svg>
