<svg width="50" height="50" viewBox="0 0 50 50" fill="none" xmlns="http://www.w3.org/2000/svg">
<path d="M25 37.624C21.2726 37.624 17.5452 37.5096 13.686 37.2816C10.7782 37.1098 8.43258 34.7947 8.22915 31.8957C7.92371 27.527 7.92371 23.0967 8.22856 18.7285C8.43258 15.8295 10.7782 13.5138 13.686 13.3421C21.4051 12.886 28.5961 12.886 36.314 13.3421C39.2218 13.5138 41.5674 15.8289 41.7708 18.728C42.0763 23.0967 42.0763 27.527 41.7714 31.8951C41.5674 34.7941 39.2218 37.1098 36.314 37.2816C32.4548 37.5096 28.7274 37.624 25 37.624ZM36.2454 36.1114C38.5664 35.9743 40.4389 34.1264 40.6019 31.8136C40.9038 27.5 40.9038 23.1248 40.6013 18.81C40.4395 16.4979 38.5664 14.65 36.2454 14.5128C28.5726 14.0596 21.428 14.0596 13.7551 14.5128C11.4342 14.65 9.5617 16.4979 9.39872 18.8106C9.0968 23.1242 9.0968 27.4994 9.39931 31.8142C9.56111 34.1264 11.4342 35.9743 13.7551 36.1114C21.4274 36.5646 28.5726 36.5646 36.2454 36.1114Z" fill="url(#paint0_linear_59_24)"/>
<path d="M21.6001 29.9082V20.7158L29.4793 25.312L21.6001 29.9082Z" fill="url(#paint1_linear_59_24)"/>
<path d="M20.4668 30.6834V19.4497L30.0959 25.0666L20.4668 30.6834ZM21.6393 21.491V28.6415L27.7691 25.0666L21.6393 21.491Z" fill="url(#paint2_linear_59_24)"/>
<path d="M43 50H7C3.141 50 0 46.859 0 43V7C0 3.141 3.141 0 7 0H43C46.859 0 50 3.141 50 7V43C50 46.859 46.859 50 43 50ZM7 2C4.243 2 2 4.243 2 7V43C2 45.757 4.243 48 7 48H43C45.757 48 48 45.757 48 43V7C48 4.243 45.757 2 43 2H7Z" fill="url(#paint3_linear_59_24)"/>
<defs>
<linearGradient id="paint0_linear_59_24" x1="25" y1="12.4146" x2="25" y2="38.6499" gradientUnits="userSpaceOnUse">
<stop stop-color="#FEE195"/>
<stop offset="1" stop-color="#5912AB"/>
</linearGradient>
<linearGradient id="paint1_linear_59_24" x1="25.5397" y1="20.7686" x2="25.5397" y2="29.5635" gradientUnits="userSpaceOnUse">
<stop stop-color="#FEE195"/>
<stop offset="1" stop-color="#5912AB"/>
</linearGradient>
<linearGradient id="paint2_linear_59_24" x1="25.2811" y1="12.1691" x2="25.2811" y2="38.4043" gradientUnits="userSpaceOnUse">
<stop stop-color="#FEE195"/>
<stop offset="1" stop-color="#9042EB"/>
</linearGradient>
<linearGradient id="paint3_linear_59_24" x1="25" y1="-0.5" x2="25" y2="50.5" gradientUnits="userSpaceOnUse">
<stop stop-color="#FEE195"/>
<stop offset="1" stop-color="#5912AB"/>
</linearGradient>
</defs>
</svg>
