<?xml version="1.0" encoding="UTF-8"?>
<svg id="Camada_2" data-name="Camada 2" xmlns="http://www.w3.org/2000/svg" viewBox="0 0 3448.99 1079.49">
  <defs>
    <style>
      .cls-1 {
        fill: #60194e;
      }

      .cls-1, .cls-2 {
        stroke-width: 0px;
      }

      .cls-2, .cls-3 {
        fill: #fff;
      }

      .cls-4 {
        letter-spacing: 0em;
      }

      .cls-3 {
        font-family: Corbel-Bold, Corbel;
        font-size: 400px;
        font-weight: 700;
      }
    </style>
  </defs>
  <g id="Camada_1-2" data-name="Camada 1">
    <g>
      <g>
        <polygon class="cls-2" points="1008.5 250.39 1008.5 330.55 1006.92 331.46 935.92 290.47 935.5 290.23 864.5 249.23 864.5 247.71 863.18 248.47 792.5 207.66 792.5 206.7 791.66 207.18 719.82 165.7 719.5 165.52 648.5 124.53 648.5 123.74 647.82 124.13 575.82 82.57 575.76 82.53 575.76 82.6 504.24 123.9 503.09 124.56 432.4 165.37 431.57 165.85 360.4 206.94 359.73 207.33 288.4 248.51 287.73 248.9 216.4 290.08 215.73 290.47 143.76 332.02 143.73 332.04 71.76 373.59 71.09 373.97 71.76 374.36 71.76 456.72 71.09 457.11 71.76 457.5 71.76 539.86 71.33 540.11 71.76 540.36 71.76 622.82 71.25 623.11 71.76 623.41 71.76 705.4 71.61 705.49 71.76 705.58 71.76 788.76 0 747.33 0 664.25 .08 664.2 0 664.15 0 331.87 71.72 290.47 71.76 290.49 71.76 290.44 143.73 248.89 143.76 248.91 143.76 248.87 215.72 207.33 216.4 207.72 216.4 206.94 287.72 165.76 288.4 166.15 288.4 165.37 359.56 124.28 360.4 124.76 360.4 123.8 431.08 82.99 431.09 82.99 432.4 83.74 432.4 82.23 503.82 40.99 504.24 41.24 504.24 40.75 574.82 0 575.76 .54 646.83 41.57 648.5 42.54 718.82 83.14 719.5 83.53 790.82 124.71 792.5 125.68 862.66 166.19 864.5 167.25 934.19 207.48 935.5 208.24 1006.92 249.48 1006.93 249.48 1008.5 250.39"/>
        <g>
          <polygon class="cls-1" points="864.5 498.76 864.5 581.12 863.83 581.51 792.5 622.69 791.83 623.07 719.82 664.65 719.5 664.46 719.5 664.83 648.5 705.83 647.19 706.58 575.76 747.82 575.76 498.41 575.83 498.37 575.76 498.33 575.76 166.51 647.09 207.7 648.5 208.51 648.5 289.83 647.41 290.47 648.5 291.1 648.5 372.42 647.09 373.24 648.5 374.05 648.5 456.41 647.83 456.8 648.5 457.19 648.5 538.4 646.83 539.36 648.5 540.32 648.5 622.69 647.83 623.08 648.5 623.47 648.5 622.69 719.5 581.7 719.83 581.51 791.83 539.94 792.5 540.33 792.5 539.55 863.83 498.37 864.5 498.76"/>
          <polygon class="cls-1" points="504.24 290.17 503.72 290.47 504.24 290.77 504.24 373.12 503.57 373.51 504.24 373.9 504.24 455.71 503.09 456.37 504.24 457.03 504.24 539.7 503.83 539.94 504.24 540.18 504.24 621.69 502.19 622.87 504.24 624.05 504.24 705.98 503.19 706.59 432.4 665.72 432.4 663.16 430.19 664.44 360.4 624.15 360.4 622.75 359.19 623.45 288.4 582.58 288.4 499.43 358.45 539.88 360.4 541 431.19 581.88 432.4 582.57 432.4 248.51 503.57 207.42 504.24 207.81 504.24 290.17"/>
        </g>
        <polygon class="cls-2" points="1008.5 497.98 1007.67 498.46 1008.5 498.94 1008.5 579.97 1006.83 580.93 1008.5 581.9 1008.5 664.26 1007.83 664.65 935.83 706.21 935.5 706.02 935.5 706.41 864.5 747.4 863.83 747.79 792.5 788.97 791.19 789.72 719.5 831.11 719.19 831.29 648.5 872.11 647.43 872.72 575.76 914.1 575.51 914.25 504.24 873.1 504.24 871.1 502.51 872.1 432.4 831.62 432.4 830.59 431.51 831.11 360.4 790.05 360.4 789.03 359.51 789.54 288.4 748.49 288.4 746.3 286.51 747.39 216.4 706.92 216.4 705.89 215.51 706.4 143.76 664.98 143.76 415.15 215.72 373.6 215.73 373.6 216.4 374 216.4 373.21 287.73 332.03 288.4 332.42 288.4 331.65 359.72 290.47 359.73 290.47 360.4 290.85 360.4 373.22 359.73 373.6 288.4 414.79 287.73 415.18 287.72 415.18 216.4 456.36 215.09 457.11 216.4 457.86 216.4 539.31 214.93 540.16 216.4 541.01 216.4 621.89 214.69 622.88 216.4 623.86 287.43 664.88 288.4 665.43 358.43 705.87 360.4 707 431.43 748.01 431.44 748.01 432.4 748.57 503.43 789.58 504.24 790.05 574.43 830.57 574.44 830.57 575.76 831.34 575.76 829.81 646.19 789.15 648.5 790.48 648.5 787.81 718.19 747.57 718.2 747.57 719.5 748.33 719.5 746.82 790.83 705.64 792.5 706.61 792.5 704.67 862.83 664.07 864.5 665.03 864.5 663.1 934.83 622.5 935.5 622.89 935.5 540.13 935.82 539.94 935.5 539.75 935.5 456.99 935.67 456.89 935.5 456.8 864.5 415.8 864.5 413.69 862.67 414.75 792.5 374.23 792.5 373.27 791.67 373.75 719.5 332.09 719.5 249.5 790.45 290.47 792.5 291.65 863.19 332.46 864.5 333.22 934.19 373.45 935.5 374.21 1007.19 415.6 1008.5 416.36 1008.5 497.98"/>
        <polygon class="cls-2" points="1151.5 332.95 1151.5 497.41 1150.19 498.16 1151.5 498.92 1151.5 663.68 1150.83 664.07 1151.5 664.46 1151.5 746.82 1150.83 747.21 1079.5 788.39 1078.83 788.77 1008.5 829.38 1006.83 830.35 935.5 871.53 934.19 872.28 864.5 912.52 862.19 913.85 792.5 954.09 790.43 955.28 719.5 996.23 718.51 996.81 648.5 1037.23 647.34 1037.89 575.76 1079.22 575.31 1079.49 504.24 1038.46 504.24 1037.38 503.31 1037.92 432.4 996.98 432.4 996.87 432.31 996.92 360.4 955.41 360.4 954.15 359.31 954.78 288.4 913.84 288.4 913.73 288.31 913.78 216.4 872.27 216.4 872.16 216.31 872.22 143.76 830.33 143.76 747.82 144.34 747.49 215.35 788.48 216.4 789.09 288.35 830.63 288.4 830.66 360.34 872.19 360.4 872.23 431.34 913.19 431.35 913.19 432.4 913.8 504.24 955.27 504.24 955.39 504.35 955.33 575.35 996.33 575.76 996.56 575.76 996.09 646.51 955.24 648.5 956.39 648.5 954.09 718.44 913.71 719.5 914.33 719.5 913.1 790.19 872.29 792.5 873.62 792.5 870.95 862.2 830.71 864.5 832.04 864.5 829.38 934.83 788.78 935.5 789.17 935.5 788.39 1006.83 747.21 1008.5 748.17 1008.5 746.25 1078.83 705.64 1079.5 706.03 1079.5 623.27 1079.83 623.08 1079.5 622.89 1079.5 373.85 1079.92 373.61 1079.5 373.36 1079.5 291.38 1150.93 332.62 1151.5 332.95"/>
      </g>
      <text class="cls-3" transform="translate(1223.01 747.47)"><tspan x="0" y="0">JL D</tspan><tspan class="cls-4" x="733.98" y="0">e</tspan><tspan x="937.11" y="0">veloper</tspan></text>
    </g>
  </g>
</svg>