<svg xmlns="http://www.w3.org/2000/svg" width="110" height="126" fill="none"><g fill="#00C4CC" clip-path="url(#a)"><path d="M51.03.059c-.416.05-1.718.227-2.866.382-4.627.604-9.875 2.196-14.48 4.417-16.667 7.975-29.21 25.47-32.671 45.538C.198 55.17 0 57.514 0 63.018c0 7.095.616 11.99 2.248 18.177 5.334 20.245 19.222 36.123 36.946 42.255C44.53 125.295 48.828 126 55 126c6.196 0 10.471-.705 15.874-2.574 17.678-6.108 31.544-22.012 36.899-42.308 1.611-6.11 2.227-11.032 2.227-18.1 0-3.005-.131-6.436-.286-7.7-1.786-14.59-7.033-26.859-15.782-36.881C85.199 8.49 74.53 2.459 62.052.414 60.335.136 52.376-.12 51.03.059ZM33.065 39.818c1.171.404 1.719.783 2.513 1.69 1.544 1.795 1.897 2.778 1.897 5.478 0 2.023-.068 2.4-.595 3.46-1.017 1.968-3.374 3.786-5.005 3.835-1.148.028-1.1-.554.155-2.067 1.675-1.995 1.917-2.752 1.917-5.733-.021-2.876-.33-3.859-1.498-4.668-.971-.68-2.028-.63-3.572.2-4.012 2.2-8.355 9.52-10.05 17.018-2.25 9.996 1.739 17.996 8.308 16.633 1.917-.405 5.533-2.523 7.101-4.191 1.299-1.36 1.299-1.387 1.43-3.077.289-3.537 2.468-7.069 5.381-8.71 1.342-.76 1.675-.832 3.482-.832 1.719 0 2.116.1 2.953.628 2.667 1.745 2.116 5.808-.77 5.808-1.675 0-2.536-.986-1.322-1.513 1.19-.505.747-2.4-.639-2.828-1.632-.48-3.485.782-4.652 3.205-1.413 2.929-1.477 6.413-.135 8.001 1.302 1.59 2.933.331 4.191-3.282.66-1.842 1.608-2.828 2.712-2.828.969 0 1.147.683.726 2.754-.619 3.205-.198 4.037 1.544 3.055.572-.304 1.52-1.008 2.092-1.513l1.08-.986.73-4.369c.794-4.896 1.1-5.554 2.732-5.904 1.567-.332 1.92.554 1.345 3.354l-.31 1.568 1.148-1.34c2.71-3.182 6.04-4.746 7.187-3.432.616.705.549 1.59-.332 4.718-.418 1.49-.993 3.84-1.255 5.177-.397 2.018-.42 2.5-.198 2.828.706.958 2.865-.028 4.783-2.173l1.124-1.26.134-2.804c.13-3.231.393-4.391 1.143-5.427.707-.959 1.985-1.664 2.668-1.464.683.204.683.96.067 3.182-.86 3.054-.77 10.096.111 10.096.354 0 2.16-2.17 3.307-3.987l.858-1.341-.683-.805c-1.191-1.44-1.477-2.372-1.477-4.722 0-1.714.111-2.346.484-3.182.62-1.31 1.588-2.268 2.735-2.65 1.21-.428 2.71.278 3.326 1.54.62 1.288.465 4.165-.33 6.137l-.571 1.437h.77c1.06 0 1.477-.301 3.374-2.346.992-1.086 2.14-2.022 2.997-2.476 3.374-1.815 7.344-.883 8.002 1.894.551 2.223-.658 3.787-2.778 3.61-1.52-.127-1.806-.583-.925-1.437 1.588-1.518 0-3.459-2.27-2.754-1.235.38-2.624 1.968-3.35 3.813-1.457 3.686-.684 8.027 1.409 8.027.838 0 2.317-1.894 2.889-3.736.683-2.122 2.116-3.458 3.195-2.978.596.251.64.933.267 3.078-.42 2.35-.485 4.546-.155 5.555.131.377.528 1.086.905 1.564.702.908.726 1.236.13 1.667-.285.227-.663.128-1.587-.453-1.278-.76-2.381-2.123-2.778-3.41l-.242-.755-.882.755c-.508.404-1.301.859-1.763 1.009-1.83.555-4.08-.882-5.135-3.305-.422-.936-.553-3.686-.243-4.746.175-.581.175-.581-.532-.177-.373.228-1.166.478-1.782.555-1.016.128-1.171.254-2.183 1.718-1.433 2.041-3.97 4.796-5.006 5.378-2.202 1.26-2.93.905-3.504-1.696l-.397-1.74-.95.959c-1.21 1.213-3.635 2.677-5.025 3.031-1.322.327-2.734-.154-3.306-1.163-.857-1.514-.571-4.719.794-9.037 1.012-3.205.286-3.254-2.27-.2-1.897 2.295-2.712 3.936-3.24 6.486-.551 2.65-1.214 3.61-2.71 4.014-.906.227-1.327-.405-1.148-1.791l.131-1.113-.838.658c-1.19.933-2.69 1.792-3.727 2.12-1.035.327-2.401-.024-2.73-.683-.596-1.159-.596-1.159-1.52-.327-2.009 1.868-4.875 1.337-6.328-1.136l-.465-.782-1.453 1.54c-4.191 4.392-9.435 6.36-13.316 4.997-4.939-1.714-7.67-6.564-7.626-13.555.02-7.018 2.731-14.414 7.296-19.891 2.58-3.082 5.005-4.9 7.474-5.582 1.783-.505 2.866-.478 4.56.128v-.001Z"/><path d="M77.749 57.768c-.485.554-.307 2.777.31 4.191.309.732.639 1.313.749 1.313.088 0 .286-.581.44-1.29.552-2.623-.44-5.428-1.5-4.214Z"/></g><defs><clipPath id="a"><path fill="#fff" d="M0 0h110v126H0z"/></clipPath></defs></svg>