<svg xmlns="http://www.w3.org/2000/svg" width="110" height="126" fill="none"><g clip-path="url(#a)"><path fill="#0ACF83" d="M37.5 127c11.346 0 20.5-9.377 20.5-21V85H37.5C26.154 85 17 94.377 17 106s9.154 21 20.5 21Z"/><path fill="#A259FF" d="M6 63.5C6 51.6 17.61 42 32 42h26v43H32C17.61 85 6 75.4 6 63.5Z"/><path fill="#F24E1E" d="M6 21C6 9.377 17.61 0 32 0h26v42H32C17.61 42 6 32.623 6 21Z"/><path fill="#FF7262" d="M58 0h25c13.837 0 25 9.377 25 21S96.837 42 83 42H58V0Z"/><path fill="#1ABCFE" d="M108 63.5C108 75.4 96.837 85 83 85s-25-9.6-25-21.5S69.163 42 83 42s25 9.6 25 21.5Z"/></g><defs><clipPath id="a"><path fill="#fff" d="M0 0h110v126H0z"/></clipPath></defs></svg>