<svg xmlns="http://www.w3.org/2000/svg" width="110" height="126" fill="none"><g clip-path="url(#a)"><path fill="#F34F29" d="M107.928 57.388 59.91 2.376c-2.764-3.168-7.249-3.168-10.016 0l-9.97 11.425 12.649 14.491c2.94-1.137 6.31-.374 8.652 2.31 1.117 1.28 1.896 2.894 2.25 4.658a10.984 10.984 0 0 1-.252 5.316l12.19 13.968c2.949-1.165 6.353-.412 8.707 2.29 3.293 3.77 3.293 9.883 0 13.655a8.453 8.453 0 0 1-2.735 2.094 7.507 7.507 0 0 1-3.226.735 7.507 7.507 0 0 1-3.226-.735 8.454 8.454 0 0 1-2.734-2.094c-1.176-1.348-1.977-3.065-2.304-4.933a10.975 10.975 0 0 1 .47-5.569L58.998 46.962l-.002 34.278a8.587 8.587 0 0 1 2.23 1.824c3.292 3.77 3.292 9.88 0 13.658-3.293 3.77-8.629 3.77-11.918 0-3.291-3.777-3.561-9.887-.27-13.658.813-.931 1.615-1.635 2.487-2.106V46.363c-.872-.47-1.673-1.17-2.489-2.107-2.492-2.854-2.958-7.047-1.68-10.556L34.958 19.413 2.066 57.133c-2.766 3.171-2.749 8.31.017 11.48l48.026 55.011c2.764 3.168 7.252 3.168 10.021 0l47.794-54.756c2.766-3.17 2.769-8.312.004-11.48Z"/></g><defs><clipPath id="a"><path fill="#fff" d="M0 0h110v126H0z"/></clipPath></defs></svg>