<svg xmlns="http://www.w3.org/2000/svg" width="120" height="120" fill="none"><path fill="#fff" d="M13.333 0h93.334A13.334 13.334 0 0 1 120 13.333v93.334A13.336 13.336 0 0 1 106.667 120h-29.6c-2.134-.467-2.2-4.533-2.2-5.933l.066-16.467c0-5.6-1.933-9.267-4.066-11.133 13.4-1.467 27.4-6.467 27.4-29.6 0-6.534-2.334-11.934-6.134-16.134.6-1.466 2.667-7.6-.6-15.866 0 0-5.066-1.534-16.533 6.2-4.8-1.334-9.867-2-15-2.067-5.067.067-10.267.733-15 2.067-11.467-7.734-16.533-6.2-16.533-6.2-3.267 8.266-1.2 14.4-.6 15.866-3.8 4.2-6.134 9.6-6.134 16.134 0 23.133 14 28.133 27.334 29.8-1.734 1.333-3.267 4-3.8 7.866-3.467 1.534-12.134 4.2-17.467-5 0 0-3.2-5.733-9.2-6.2 0 0-5.867 0-.4 3.667 0 0 3.933 1.867 6.667 8.8 0 0 3.466 11.667 20.2 8.067l.066 10.2c0 1.4-.133 5.466-2.266 5.933H13.333A13.335 13.335 0 0 1 0 106.667V13.333A13.333 13.333 0 0 1 13.333 0Z"/></svg>