<svg xmlns="http://www.w3.org/2000/svg" width="110" height="126" fill="none"><g clip-path="url(#a)"><path fill="#E44D26" d="m0 25.581 10.01 90.658L54.933 126l45.046-9.577L110 25.581H0Zm89.178 20.64-.628 5.881-.276 2.717H35.58l1.259 12.099H87.02l-.335 2.25-3.237 29.146-.238 1.703L55 106.202v-.005l-.033.012-28.195-5.965-1.914-17.195h13.824l.98 8.53 15.33 3.165.008-.236v.012l15.365-2.671 1.604-13.84H24.243l-3.385-31.09-.33-3.19h68.979l-.33 2.491ZM10.382 0h6.96v5.602h6.367V0h6.96v16.96h-6.96v-5.68h-6.366v5.68h-6.96V0Zm29.44 5.625h-6.128V0h19.218v5.625h-6.13V16.96h-6.96V5.625ZM55.961 0h7.256l4.465 5.96L72.143 0h7.26v16.96H72.47V8.554l-4.787 6.03h-.121l-4.79-6.03v8.406H55.96V0Zm26.906 0h6.962v11.354h9.788v5.607h-16.75V0Z"/></g><defs><clipPath id="a"><path fill="#fff" d="M0 0h110v126H0z"/></clipPath></defs></svg>