<svg width="110" height="126" viewBox="0 0 110 126" fill="none" xmlns="http://www.w3.org/2000/svg">
<g clip-path="url(#clip0_1_20)">
<path d="M0 25.5813L10.0107 116.239L54.9319 126L99.9782 116.423L110 25.5813H0ZM89.1777 46.2204L88.5501 52.1023L88.2741 54.8194H35.579L36.8379 66.9179H87.0213L86.6859 69.1672L83.4488 98.3136L83.2112 100.017L55 106.202V106.197L54.9666 106.209L26.7715 100.244L24.8578 83.0493H38.6823L39.6615 91.5787L54.9926 94.7435L55 94.5076V94.5197L70.3645 91.8489L71.9688 78.0082H24.2425L20.8582 46.9191L20.5277 43.7291H89.507L89.1777 46.2204ZM10.3821 0H17.3414V5.60161H23.709V0H30.6696V16.9601H23.709V11.2809H17.3426V16.9601H10.3821V0ZM39.8212 5.6248H33.6937V0H52.9117V5.6248H46.7818V16.9601H39.8212V5.6248ZM55.9618 0H63.2183L67.6833 5.95953L72.1433 0H79.4035V16.9601H72.4701V8.55365L67.6833 14.5838H67.562L62.7714 8.55365V16.9601H55.9606L55.9618 0ZM82.8683 0H89.8301V11.3545H99.618V16.9611H82.8683V0Z" fill="#E44D26"/>
</g>
<defs>
<clipPath id="clip0_1_20">
<rect width="110" height="126" fill="white"/>
</clipPath>
</defs>
</svg>
