<svg width="110" height="126" viewBox="0 0 110 126" fill="none" xmlns="http://www.w3.org/2000/svg">
<g clip-path="url(#clip0_308_6)">
<path d="M110 56V42H97.7778V28C97.7681 24.2904 96.4773 20.7359 94.1873 18.1127C91.8973 15.4896 88.7941 14.0111 85.5556 14H73.3333V0H61.1111V14H48.8889V0H36.6667V14H24.4444C21.2059 14.0111 18.1027 15.4896 15.8127 18.1127C13.5227 20.7359 12.2319 24.2904 12.2222 28V42H0V56H12.2222V70H0V84H12.2222V98C12.2319 101.71 13.5227 105.264 15.8127 107.887C18.1027 110.51 21.2059 111.989 24.4444 112H36.6667V126H48.8889V112H61.1111V126H73.3333V112H85.5556C88.7941 111.989 91.8973 110.51 94.1873 107.887C96.4773 105.264 97.7681 101.71 97.7778 98V84H110V70H97.7778V56H110ZM85.5556 98H24.4444V28H85.5556V98Z" fill="white"/>
<path d="M53.3951 42H45.2188L33 84H39.2432L42.0638 74.1562H56.1429L58.8906 84H65.3465L53.3951 42ZM42.8845 69.951L49.0729 46.9875H49.3526L55.3283 69.951H42.8845ZM70.921 42H77V84H70.921V42Z" fill="white"/>
</g>
<defs>
<clipPath id="clip0_308_6">
<rect width="110" height="126" fill="white"/>
</clipPath>
</defs>
</svg>
