<svg width="110" height="126" viewBox="0 0 110 126" fill="none" xmlns="http://www.w3.org/2000/svg">
<g clip-path="url(#clip0_202_95)">
<path d="M0 32V126H110V32H0ZM58.1847 112.098C56.5611 114.917 53.4618 116.769 49.8705 117.663C44.352 118.746 39.0738 118.129 35.1472 116.115C32.5195 114.737 30.4674 112.617 29.0743 110.173L37.4519 105.789C37.525 105.816 37.745 106.155 38.0389 106.595C39.1072 108.124 40.0286 109.207 41.8396 109.967C43.619 110.486 47.5253 110.818 49.0336 108.142C49.955 106.781 49.6619 102.406 49.6619 97.5654C49.661 89.9589 49.7024 82.384 49.7024 74.864H60.0063C60.0063 83.136 60.0591 90.9703 60.0063 99.0423C60.0283 103.99 60.5308 108.402 58.1847 112.098ZM100.93 109.61C97.3482 120.08 77.3793 120.419 69.3994 113.503C67.7134 111.874 66.6565 111.024 65.6506 109.145C69.8914 107.06 69.8914 107.06 74.0177 105.02C76.259 107.964 78.3314 109.583 82.06 110.246C87.1182 110.774 92.2073 109.288 91.0659 104.697C89.8929 100.948 80.7083 100.036 74.4577 96.026C68.112 92.3841 66.6248 83.5346 71.8397 78.4781C73.5777 76.6079 76.5415 75.2122 79.6514 74.5414L82.8969 74.1827C89.1282 74.0752 93.023 75.4814 95.8822 78.2096C96.6777 78.8985 97.3271 79.6415 98.5415 81.2515C95.2222 83.0593 95.2327 83.042 90.4781 85.6725C89.4626 83.803 87.7774 82.6299 85.9962 82.12C83.2313 81.4041 79.7447 82.1825 79.0214 84.6791C78.7706 85.4484 78.8225 86.1643 79.2211 87.4352C80.3414 89.6182 84.1007 90.5673 87.4729 91.8915C97.1802 95.256 100.458 98.8633 101.264 103.157C102.04 106.854 101.077 109.252 100.93 109.61Z" fill="#F0DB4F"/>
<path d="M1.89219 28.4611C1.47541 28.4611 1.1142 28.427 0.805779 28.3554C0.495971 28.2956 0.227841 28.2103 0 28.0994V25.6973C0.293179 25.7915 0.591144 25.8616 0.891915 25.9072C1.23132 25.9691 1.57407 25.9994 1.9172 25.9976C2.22227 25.9965 2.52589 25.946 2.82023 25.8475C3.12591 25.7598 3.41051 25.5851 3.65101 25.3373C3.90386 25.0866 4.1067 24.7402 4.2623 24.3035C4.41789 23.8667 4.4943 23.3037 4.4943 22.6247V0.703601H6.77688V22.3262C6.77688 23.3754 6.65463 24.2847 6.41011 25.0558C6.1998 25.7766 5.85704 26.4281 5.40845 26.9598C4.97456 27.4773 4.44778 27.8624 3.87052 28.0841C3.27591 28.3349 2.46457 28.4594 1.74076 28.4594M18.1273 20.3471H18.03C17.7859 20.7618 17.5166 21.153 17.2242 21.5175C16.6871 22.1551 16.0136 22.5923 15.282 22.7783C14.8902 22.8806 14.4401 22.9284 13.9261 22.9284C13.3648 22.9284 12.848 22.826 12.3757 22.6281C11.9133 22.4557 11.4906 22.1518 11.142 21.741C10.8002 21.3315 10.5307 20.8197 10.3362 20.2124C10.1417 19.5931 10.0583 18.8475 10.0583 18.0235C10.0583 16.3857 10.5265 15.1232 11.4476 14.2446C12.3923 13.3642 13.8094 12.8848 15.746 12.8047L17.9925 12.6989V11.665C17.9925 10.9945 17.9314 10.4366 17.8091 9.98625C17.6952 9.53585 17.5243 9.17587 17.2951 8.90632C17.0663 8.61939 16.7796 8.41216 16.4643 8.30579C16.0987 8.17973 15.7201 8.11939 15.3404 8.12665C14.6981 8.12037 14.0591 8.24135 13.4482 8.48493C12.8737 8.7232 12.3146 9.01404 11.7755 9.35501L10.9947 7.30092C11.5977 6.9017 12.2687 6.56049 13.0092 6.2807C13.7652 5.99816 14.5515 5.85668 15.3418 5.86101C16.1725 5.86101 16.888 5.96678 17.491 6.17663C18.1022 6.37624 18.6024 6.70209 18.9914 7.14908C19.4009 7.61169 19.7079 8.19469 19.8833 8.8432C20.0806 9.53074 20.1612 10.3684 20.1612 11.3477V22.6077H18.5857L18.1273 20.3471ZM14.5151 20.7139C14.985 20.7192 15.452 20.6227 15.8947 20.429C16.3077 20.2485 16.6826 19.9571 16.9922 19.576C17.302 19.187 17.5424 18.7008 17.7146 18.1224C17.8952 17.5321 17.9828 16.8429 17.9828 16.053V14.5687L16.2365 14.6745C15.5043 14.7137 14.8889 14.8144 14.3929 14.9748C13.8969 15.1351 13.4968 15.3603 13.1981 15.6504C12.9203 15.9302 12.6938 16.2748 12.5632 16.6842C12.4276 17.1196 12.3611 17.5829 12.3673 18.0491C12.3673 18.9703 12.5618 19.6442 12.9536 20.0742C13.3454 20.5041 13.8733 20.7191 14.5165 20.7191M22.0422 6.16298H24.3373L26.7824 15.3245L27.102 16.5989L27.4687 18.189L27.798 19.7176L28.0064 20.8129H28.0925L28.3009 19.7176L28.6302 18.189L28.9969 16.5989L29.3165 15.3245L31.7477 6.16298H34.0067L29.4276 22.6264H26.6074L22.0422 6.16298ZM43.1009 20.3471H43.0036C42.7595 20.7618 42.4902 21.153 42.1978 21.5175C41.6607 22.1551 40.9872 22.5923 40.2556 22.7783C39.8638 22.8806 39.4137 22.9284 38.8997 22.9284C38.3384 22.9284 37.8216 22.826 37.3493 22.6281C36.8869 22.4557 36.4642 22.1518 36.1156 21.741C35.7738 21.3315 35.5043 20.8197 35.3098 20.2124C35.1153 19.5931 35.032 18.8475 35.032 18.0235C35.032 16.3857 35.5001 15.1232 36.4212 14.2446C37.3659 13.3642 38.783 12.8848 40.7196 12.8047L42.9661 12.6989V11.665C42.9661 10.9945 42.905 10.4366 42.7827 9.98625C42.6688 9.53585 42.4979 9.17587 42.2687 8.90632C42.0399 8.61939 41.7532 8.41216 41.4379 8.30579C41.0723 8.17973 40.6937 8.11939 40.314 8.12665C39.6717 8.12037 39.0327 8.24135 38.4218 8.48493C37.8473 8.7232 37.2882 9.01404 36.7491 9.35501L35.9683 7.30092C36.5713 6.9017 37.2423 6.56049 37.9828 6.2807C38.7392 5.99799 39.526 5.85651 40.3168 5.86101C41.1475 5.86101 41.863 5.96678 42.466 6.17663C43.0772 6.37624 43.5774 6.70209 43.9664 7.14908C44.3759 7.61169 44.6829 8.19469 44.8583 8.8432C45.0556 9.53074 45.1361 10.3684 45.1361 11.3477V22.6077H43.5385L43.1009 20.3471ZM39.4887 20.7225C39.9587 20.7277 40.4256 20.6313 40.8683 20.4376C41.2813 20.2571 41.6562 19.9656 41.9658 19.5845C42.2756 19.1921 42.516 18.7093 42.6882 18.131C42.8689 17.5407 42.9564 16.8514 42.9564 16.0615V14.5773L41.2101 14.683C40.4779 14.7223 39.8625 14.8229 39.3665 14.9833C38.8705 15.1437 38.4704 15.3689 38.1717 15.6589C37.8939 15.9387 37.6674 16.2833 37.5368 16.6928C37.4012 17.1282 37.3347 17.5915 37.3409 18.0576C37.3409 18.9789 37.5354 19.6528 37.9272 20.0827C38.3259 20.5126 38.8469 20.7276 39.4901 20.7276M58.8469 16.7644C58.8469 17.7335 58.7038 18.6035 58.419 19.3747C58.1484 20.1251 57.7388 20.7876 57.2228 21.3093C56.7019 21.8212 56.067 22.2443 55.3195 22.5241C54.5693 22.7936 53.7274 22.9284 52.791 22.9284C51.9396 22.9337 51.0895 22.8435 50.2515 22.6588C49.4693 22.4882 48.8149 22.2323 48.2856 21.8945V19.2263L49.2262 19.704L50.3376 20.1083L51.5463 20.4086C51.9551 20.4773 52.3673 20.5126 52.7799 20.5143C54.0817 20.5143 55.0445 20.2141 55.6613 19.6152C56.2865 19.0147 56.6018 18.1566 56.6018 17.0357C56.6098 16.5563 56.5477 16.079 56.4184 15.6265C56.3045 15.2273 56.0989 14.8622 55.7961 14.5312C55.5182 14.19 55.1084 13.8488 54.611 13.5587C54.0014 13.1681 53.3733 12.8228 52.7299 12.5249C52.0726 12.2155 51.4393 11.8341 50.8377 11.3852C50.3098 10.9655 49.8694 10.4947 49.5179 9.97602C49.1762 9.45567 48.9205 8.86708 48.7483 8.20683C48.5857 7.54659 48.5037 6.79763 48.5037 5.95825C48.5037 5.07793 48.6343 4.29485 48.8927 3.6039C49.1446 2.92731 49.5207 2.33165 49.9917 1.86372C50.4896 1.36675 51.0622 0.994621 51.6768 0.768428C52.3368 0.519343 53.0606 0.3931 53.8497 0.3931C54.818 0.3931 55.6891 0.507405 56.4615 0.737723C57.2353 0.95951 57.923 1.24272 58.5246 1.59075L57.691 3.92805C57.1631 3.63802 56.5602 3.38893 55.885 3.17738C55.2079 2.95613 54.51 2.84542 53.8094 2.84811C52.8161 2.84811 52.045 3.13302 51.5032 3.70114C51.2324 3.97832 51.0165 4.32765 50.8721 4.72259C50.7277 5.11754 50.6584 5.54771 50.6696 5.98043C50.6696 6.55025 50.7308 7.04501 50.853 7.4647C50.9841 7.89149 51.1927 8.27598 51.4629 8.58899C51.7477 8.91826 52.1228 9.23388 52.5743 9.53415C53.0467 9.82418 53.6246 10.1347 54.3081 10.464C54.9744 10.7802 55.6228 11.1507 56.249 11.5729C56.7676 11.913 57.2412 12.3479 57.6535 12.8627C58.0271 13.3381 58.3141 13.9057 58.4954 14.5278C58.6899 15.159 58.7941 15.9302 58.7941 16.79M67.0658 22.9267C66.2434 22.9267 65.4737 22.7561 64.7597 22.4609C64.0495 22.1476 63.4093 21.6332 62.8911 20.9596C62.3631 20.2704 61.9464 19.3952 61.6463 18.3357C61.3448 17.266 61.1948 15.9813 61.1948 14.48C61.1948 12.9104 61.3337 11.5797 61.6588 10.4912C61.9686 9.39084 62.3909 8.50198 62.9286 7.82297C63.4587 7.14674 64.1106 6.63253 64.8319 6.32164C65.5543 6.00943 66.3323 5.85589 67.1659 5.85589C67.7904 5.8544 68.413 5.93967 69.0219 6.11009C69.5493 6.24531 70.0618 6.45662 70.5488 6.73962L69.8889 9.04963C69.7013 8.94726 69.4943 8.85514 69.2665 8.76471C69.0386 8.66491 68.8068 8.5795 68.5718 8.50881C68.3273 8.42863 68.0856 8.36891 67.8494 8.32967C67.6278 8.28153 67.4034 8.25641 67.1784 8.2546C65.9003 8.2546 64.9555 8.7596 64.3818 9.76958C63.7955 10.7693 63.5024 12.3287 63.5024 14.4476C63.5024 16.5563 63.7802 18.102 64.3818 19.0812C64.9764 20.0503 65.8752 20.5348 67.0797 20.5348C67.681 20.5436 68.2806 20.453 68.8622 20.2652C69.3637 20.0914 69.8537 19.8707 70.3279 19.605V22.0344C69.8808 22.329 69.4045 22.551 68.9108 22.6947C68.4148 22.8448 67.7716 22.9199 67.0464 22.9199M79.2303 5.86271L80.0222 5.90707C80.2763 5.92138 80.5292 5.95672 80.7794 6.01285L80.5015 8.53269L79.8069 8.41327C79.5707 8.37233 79.3484 8.35356 79.1359 8.35356C78.6218 8.35356 78.155 8.48321 77.7466 8.74253C77.3166 8.99914 76.9406 9.37393 76.6477 9.83783C76.3279 10.3468 76.0919 10.9275 75.953 11.5473C75.7838 12.2633 75.7015 13.006 75.7085 13.7515V22.6281H73.4857V6.16469H75.2917L75.5599 9.17929H75.6571L76.3045 7.93387C76.5303 7.5471 76.7929 7.19486 77.0867 6.88464C77.3776 6.5761 77.7075 6.32775 78.0633 6.14933C78.4636 5.95375 78.8913 5.85693 79.322 5.86442M85.5043 22.6264H83.2815V6.16298H85.5043V22.6264ZM83.476 0.405042C83.7334 0.132796 84.0644 -0.0114232 84.404 0.000707559C84.5746 -0.00204353 84.7441 0.0338136 84.9041 0.106484C85.0609 0.162179 85.2038 0.265437 85.3195 0.406747C85.4465 0.556606 85.5427 0.741384 85.6002 0.945858C85.6738 1.1557 85.7113 1.41161 85.7113 1.71017C85.7113 2.29023 85.5807 2.72528 85.3223 3.01531C85.0695 3.2951 84.7666 3.43499 84.4054 3.43499C84.0442 3.43499 83.7205 3.22515 83.4676 2.94365C83.2231 2.66386 83.1064 2.22711 83.1092 1.67435C83.1106 1.11135 83.2467 0.674599 83.476 0.405042ZM95.6682 22.925C95.2278 22.9312 94.7887 22.8658 94.3623 22.7305C93.9733 22.6008 93.6177 22.4302 93.2995 22.2187C92.9982 22.0065 92.7192 21.7499 92.4687 21.4544C92.2373 21.1712 92.0249 20.8654 91.8338 20.5399H91.688L91.7616 21.5124L91.8102 22.3227L91.8352 22.9676V30H89.6124V6.16298H91.4184L91.738 8.38085H91.8352C92.0216 8.03249 92.2342 7.70634 92.4701 7.4067C92.7094 7.09355 92.9852 6.82563 93.2884 6.61168C93.6213 6.37407 93.9788 6.19272 94.3512 6.07256C94.7804 5.92641 95.2243 5.85575 95.6696 5.86271C96.4337 5.86271 97.1311 6.04185 97.7577 6.40183C98.3843 6.76181 98.9177 7.30092 99.3554 8.02258C99.8027 8.7323 100.147 9.61775 100.393 10.6772C100.639 11.7367 100.76 12.9667 100.76 14.3657C100.76 15.7749 100.638 17.0152 100.393 18.0849C100.149 19.1427 99.8027 20.0349 99.3554 20.7532C98.9164 21.4731 98.3829 22.0157 97.7577 22.3876C97.1325 22.7288 96.2809 22.9267 95.5154 22.9267M95.2417 8.12665C94.6235 8.12665 94.0984 8.24096 93.6663 8.47128C93.2426 8.7016 92.8966 9.05133 92.6285 9.5205C92.3604 9.98966 92.1728 10.5748 92.0422 11.2743C91.9103 12.0891 91.841 12.9174 91.8352 13.7481V14.3623C91.8287 15.2657 91.8817 16.1683 91.9936 17.0613C92.1075 17.8409 92.2951 18.5012 92.5549 19.0403C92.812 19.557 93.1796 19.9771 93.6177 20.255C94.0567 20.5246 94.6068 20.6593 95.2667 20.6593C96.3782 20.6593 97.17 20.1134 97.6841 19.0249C98.2051 17.9331 98.4648 16.3703 98.4662 14.3333C98.4662 12.2519 98.2051 10.6994 97.6855 9.67063C97.1659 8.64188 96.3573 8.12665 95.2417 8.12665ZM108.18 20.6918C108.326 20.6918 108.49 20.6747 108.669 20.661L109.207 20.586L109.671 20.4802L110 20.3744V22.4439C109.894 22.5036 109.76 22.5633 109.583 22.623C109.407 22.6863 109.227 22.7364 109.046 22.7731C108.851 22.8243 108.647 22.8584 108.434 22.8789C108.228 22.9087 108.02 22.9235 107.812 22.9233C107.308 22.9233 106.839 22.8431 106.423 22.6844C105.998 22.5289 105.611 22.2457 105.297 21.8604C104.987 21.468 104.744 20.946 104.565 20.2857C104.385 19.6152 104.297 18.7759 104.297 17.7659V8.21196H102.405V6.99724L104.297 5.82689L105.25 2.37724H106.532V6.15616H109.903V8.21025H106.532V17.7642C106.532 18.7332 106.671 19.4634 106.91 19.953C107.149 20.4427 107.594 20.6866 108.18 20.6866" fill="#F0DB4F"/>
<path d="M1.89219 28.4611C1.47541 28.4611 1.1142 28.427 0.805779 28.3554C0.495971 28.2956 0.227841 28.2103 0 28.0994V25.6973C0.293179 25.7915 0.591144 25.8616 0.891915 25.9072C1.23132 25.9691 1.57407 25.9994 1.9172 25.9976C2.22227 25.9965 2.52589 25.946 2.82023 25.8475C3.12591 25.7598 3.41051 25.5851 3.65101 25.3373C3.90386 25.0866 4.1067 24.7402 4.2623 24.3035C4.41789 23.8667 4.4943 23.3037 4.4943 22.6247V0.703601H6.77688V22.3262C6.77688 23.3754 6.65463 24.2847 6.41011 25.0558C6.1998 25.7766 5.85704 26.4281 5.40845 26.9598C4.97456 27.4773 4.44778 27.8624 3.87052 28.0841C3.27591 28.3349 2.46457 28.4594 1.74076 28.4594M14.5151 20.7139C14.985 20.7192 15.452 20.6227 15.8947 20.429C16.3077 20.2485 16.6826 19.9571 16.9922 19.576C17.302 19.187 17.5424 18.7008 17.7146 18.1224C17.8952 17.5321 17.9828 16.8429 17.9828 16.053V14.5687L16.2365 14.6745C15.5043 14.7137 14.8889 14.8144 14.3929 14.9748C13.8969 15.1351 13.4968 15.3603 13.1981 15.6504C12.9203 15.9302 12.6938 16.2748 12.5632 16.6842C12.4276 17.1196 12.3611 17.5829 12.3673 18.0491C12.3673 18.9703 12.5618 19.6442 12.9536 20.0742C13.3454 20.5041 13.8733 20.7191 14.5165 20.7191M39.4887 20.7225C39.9587 20.7277 40.4256 20.6313 40.8683 20.4376C41.2813 20.2571 41.6562 19.9656 41.9658 19.5845C42.2756 19.1921 42.516 18.7093 42.6882 18.131C42.8689 17.5407 42.9564 16.8514 42.9564 16.0615V14.5773L41.2101 14.683C40.4779 14.7223 39.8625 14.8229 39.3665 14.9833C38.8705 15.1437 38.4704 15.3689 38.1717 15.6589C37.8939 15.9387 37.6674 16.2833 37.5368 16.6928C37.4012 17.1282 37.3347 17.5915 37.3409 18.0576C37.3409 18.9789 37.5354 19.6528 37.9272 20.0827C38.3259 20.5126 38.8469 20.7276 39.4901 20.7276M58.8469 16.7644C58.8469 17.7335 58.7038 18.6035 58.419 19.3747C58.1484 20.1251 57.7388 20.7876 57.2228 21.3093C56.7019 21.8212 56.067 22.2443 55.3195 22.5241C54.5693 22.7936 53.7274 22.9284 52.7911 22.9284C51.9396 22.9337 51.0895 22.8435 50.2515 22.6588C49.4693 22.4882 48.8149 22.2323 48.2856 21.8945V19.2263L49.2262 19.704L50.3376 20.1083L51.5463 20.4086C51.9551 20.4773 52.3673 20.5126 52.7799 20.5143C54.0817 20.5143 55.0445 20.2141 55.6613 19.6152C56.2865 19.0147 56.6018 18.1566 56.6018 17.0357C56.6098 16.5563 56.5477 16.079 56.4184 15.6265C56.3045 15.2273 56.0989 14.8622 55.796 14.5312C55.5182 14.19 55.1084 13.8488 54.611 13.5587C54.0014 13.1681 53.3733 12.8228 52.7299 12.5249C52.0726 12.2155 51.4393 11.8341 50.8377 11.3852C50.3098 10.9655 49.8694 10.4947 49.5179 9.97602C49.1762 9.45567 48.9205 8.86708 48.7483 8.20683C48.5857 7.54659 48.5037 6.79763 48.5037 5.95825C48.5037 5.07793 48.6343 4.29485 48.8927 3.6039C49.1446 2.92731 49.5207 2.33165 49.9917 1.86372C50.4896 1.36675 51.0622 0.994621 51.6768 0.768428C52.3368 0.519343 53.0606 0.3931 53.8497 0.3931C54.818 0.3931 55.6891 0.507405 56.4615 0.737723C57.2353 0.95951 57.923 1.24272 58.5246 1.59075L57.691 3.92805C57.1631 3.63802 56.5602 3.38893 55.885 3.17738C55.2079 2.95613 54.51 2.84542 53.8094 2.84811C52.8161 2.84811 52.045 3.13303 51.5032 3.70114C51.2324 3.97832 51.0165 4.32765 50.8721 4.72259C50.7277 5.11754 50.6584 5.5477 50.6696 5.98043C50.6696 6.55025 50.7308 7.04501 50.853 7.4647C50.9841 7.89149 51.1927 8.27598 51.4629 8.58899C51.7477 8.91826 52.1228 9.23388 52.5743 9.53415C53.0467 9.82418 53.6246 10.1347 54.3081 10.464C54.9744 10.7802 55.6228 11.1507 56.249 11.5729C56.7676 11.913 57.2412 12.3479 57.6535 12.8627C58.0271 13.3381 58.3141 13.9057 58.4954 14.5278C58.6899 15.159 58.7941 15.9302 58.7941 16.79M67.0659 22.9267C66.2434 22.9267 65.4737 22.7561 64.7596 22.4609C64.0495 22.1476 63.4093 21.6332 62.8911 20.9596C62.3631 20.2704 61.9464 19.3952 61.6463 18.3357C61.3448 17.266 61.1948 15.9813 61.1948 14.48C61.1948 12.9104 61.3337 11.5797 61.6588 10.4912C61.9686 9.39084 62.3909 8.50199 62.9286 7.82297C63.4587 7.14674 64.1106 6.63253 64.8319 6.32164C65.5543 6.00943 66.3323 5.85589 67.1659 5.85589C67.7904 5.8544 68.413 5.93967 69.0219 6.11009C69.5493 6.24531 70.0618 6.45662 70.5488 6.73963L69.8889 9.04963C69.7013 8.94726 69.4943 8.85514 69.2665 8.76471C69.0386 8.66491 68.8068 8.5795 68.5718 8.50881C68.3273 8.42863 68.0856 8.36891 67.8494 8.32967C67.6278 8.28153 67.4034 8.25641 67.1784 8.2546C65.9003 8.2546 64.9555 8.7596 64.3818 9.76958C63.7955 10.7693 63.5024 12.3287 63.5024 14.4476C63.5024 16.5563 63.7802 18.102 64.3818 19.0812C64.9764 20.0503 65.8752 20.5348 67.0797 20.5348C67.681 20.5436 68.2806 20.453 68.8622 20.2652C69.3637 20.0914 69.8537 19.8707 70.3279 19.605V22.0344C69.8808 22.329 69.4045 22.551 68.9108 22.6947C68.4148 22.8448 67.7716 22.9199 67.0464 22.9199M79.2303 5.86271L80.0222 5.90707C80.2763 5.92138 80.5292 5.95672 80.7794 6.01285L80.5015 8.53269L79.8069 8.41327C79.5707 8.37233 79.3484 8.35356 79.1359 8.35356C78.6218 8.35356 78.155 8.48321 77.7466 8.74253C77.3166 8.99914 76.9406 9.37393 76.6477 9.83783C76.3279 10.3468 76.0919 10.9275 75.953 11.5473C75.7838 12.2633 75.7015 13.006 75.7085 13.7515V22.6281H73.4857V6.16469H75.2917L75.5599 9.17929H75.6571L76.3045 7.93387C76.5303 7.5471 76.7929 7.19486 77.0867 6.88464C77.3776 6.5761 77.7075 6.32775 78.0633 6.14934C78.4636 5.95375 78.8913 5.85693 79.322 5.86442M95.6682 22.925C95.2278 22.9312 94.7887 22.8658 94.3623 22.7305C93.9733 22.6008 93.6177 22.4302 93.2995 22.2187C92.9982 22.0065 92.7192 21.7499 92.4687 21.4544C92.2373 21.1712 92.0249 20.8654 91.8338 20.5399H91.688L91.7616 21.5124L91.8102 22.3227L91.8352 22.9676V30H89.6124V6.16298H91.4184L91.738 8.38085H91.8352C92.0216 8.03249 92.2342 7.70634 92.4701 7.4067C92.7094 7.09355 92.9852 6.82563 93.2884 6.61168C93.6213 6.37407 93.9788 6.19272 94.3512 6.07256C94.7804 5.92641 95.2243 5.85575 95.6696 5.86271C96.4337 5.86271 97.1311 6.04185 97.7577 6.40183C98.3843 6.76181 98.9177 7.30092 99.3554 8.02258C99.8027 8.7323 100.147 9.61775 100.393 10.6772C100.639 11.7367 100.76 12.9667 100.76 14.3657C100.76 15.7749 100.638 17.0152 100.393 18.0849C100.149 19.1427 99.8027 20.0349 99.3554 20.7532C98.9164 21.4731 98.3829 22.0157 97.7577 22.3876C97.1325 22.7288 96.2809 22.9267 95.5154 22.9267M108.18 20.6918C108.326 20.6918 108.49 20.6747 108.669 20.661L109.207 20.586L109.671 20.4802L110 20.3744V22.4439C109.894 22.5036 109.76 22.5633 109.583 22.623C109.407 22.6863 109.227 22.7364 109.046 22.7731C108.851 22.8243 108.647 22.8585 108.434 22.8789C108.228 22.9087 108.02 22.9235 107.812 22.9233C107.308 22.9233 106.839 22.8431 106.423 22.6844C105.998 22.5289 105.611 22.2457 105.297 21.8604C104.987 21.468 104.744 20.946 104.565 20.2857C104.385 19.6152 104.297 18.7759 104.297 17.7659V8.21196H102.405V6.99724L104.297 5.82689L105.25 2.37724H106.532V6.15616H109.903V8.21025H106.532V17.7642C106.532 18.7332 106.671 19.4634 106.91 19.953C107.149 20.4427 107.594 20.6866 108.18 20.6866M18.1273 20.3471H18.03C17.7859 20.7618 17.5166 21.153 17.2242 21.5175C16.6871 22.1551 16.0136 22.5923 15.282 22.7783C14.8902 22.8806 14.4401 22.9284 13.9261 22.9284C13.3648 22.9284 12.848 22.826 12.3757 22.6281C11.9133 22.4557 11.4906 22.1518 11.142 21.741C10.8002 21.3315 10.5307 20.8197 10.3362 20.2124C10.1417 19.5931 10.0583 18.8475 10.0583 18.0235C10.0583 16.3857 10.5265 15.1232 11.4476 14.2446C12.3923 13.3642 13.8094 12.8848 15.746 12.8047L17.9925 12.6989V11.665C17.9925 10.9945 17.9314 10.4366 17.8091 9.98625C17.6952 9.53585 17.5243 9.17587 17.2951 8.90632C17.0663 8.61939 16.7796 8.41216 16.4643 8.30579C16.0987 8.17973 15.7201 8.11939 15.3404 8.12665C14.6981 8.12037 14.0591 8.24135 13.4482 8.48493C12.8737 8.7232 12.3146 9.01404 11.7755 9.35501L10.9947 7.30092C11.5977 6.9017 12.2687 6.56049 13.0092 6.2807C13.7652 5.99816 14.5515 5.85668 15.3418 5.86101C16.1725 5.86101 16.888 5.96679 17.491 6.17663C18.1022 6.37624 18.6024 6.70209 18.9914 7.14908C19.4009 7.61169 19.7079 8.19469 19.8833 8.8432C20.0806 9.53074 20.1612 10.3684 20.1612 11.3477V22.6077H18.5857L18.1273 20.3471ZM22.0422 6.16298H24.3373L26.7824 15.3245L27.102 16.5989L27.4687 18.189L27.798 19.7176L28.0064 20.8129H28.0925L28.3009 19.7176L28.6302 18.189L28.9969 16.5989L29.3165 15.3245L31.7477 6.16298H34.0067L29.4276 22.6264H26.6074L22.0422 6.16298ZM43.1009 20.3471H43.0036C42.7595 20.7618 42.4902 21.153 42.1978 21.5175C41.6607 22.1551 40.9872 22.5923 40.2556 22.7783C39.8639 22.8806 39.4137 22.9284 38.8997 22.9284C38.3384 22.9284 37.8216 22.826 37.3493 22.6281C36.8869 22.4557 36.4642 22.1518 36.1156 21.741C35.7738 21.3315 35.5043 20.8197 35.3098 20.2124C35.1153 19.5931 35.032 18.8475 35.032 18.0235C35.032 16.3857 35.5001 15.1232 36.4212 14.2446C37.3659 13.3642 38.783 12.8848 40.7196 12.8047L42.9661 12.6989V11.665C42.9661 10.9945 42.905 10.4366 42.7827 9.98625C42.6688 9.53585 42.4979 9.17587 42.2687 8.90632C42.0399 8.61939 41.7532 8.41216 41.4379 8.30579C41.0723 8.17973 40.6937 8.11939 40.314 8.12665C39.6717 8.12037 39.0327 8.24135 38.4218 8.48493C37.8473 8.7232 37.2882 9.01404 36.7491 9.35501L35.9683 7.30092C36.5713 6.9017 37.2423 6.56049 37.9828 6.2807C38.7392 5.99799 39.526 5.85651 40.3168 5.86101C41.1475 5.86101 41.863 5.96679 42.466 6.17663C43.0772 6.37624 43.5774 6.70209 43.9664 7.14908C44.3759 7.61169 44.6829 8.19469 44.8583 8.8432C45.0556 9.53074 45.1361 10.3684 45.1361 11.3477V22.6077H43.5385L43.1009 20.3471ZM85.5043 22.6264H83.2815V6.16298H85.5043V22.6264ZM83.476 0.405042C83.7334 0.132796 84.0644 -0.0114232 84.404 0.000707559C84.5746 -0.00204353 84.7441 0.0338136 84.9041 0.106484C85.0609 0.162179 85.2038 0.265437 85.3195 0.406747C85.4465 0.556606 85.5427 0.741384 85.6002 0.945858C85.6738 1.1557 85.7113 1.41161 85.7113 1.71017C85.7113 2.29023 85.5807 2.72528 85.3223 3.01531C85.0695 3.2951 84.7666 3.43499 84.4054 3.43499C84.0442 3.43499 83.7205 3.22515 83.4676 2.94365C83.2231 2.66386 83.1064 2.22711 83.1092 1.67435C83.1106 1.11135 83.2467 0.674599 83.476 0.405042ZM95.2417 8.12665C94.6235 8.12665 94.0984 8.24096 93.6663 8.47128C93.2426 8.7016 92.8966 9.05133 92.6285 9.5205C92.3604 9.98966 92.1728 10.5748 92.0422 11.2743C91.9103 12.0891 91.841 12.9174 91.8352 13.7481V14.3623C91.8287 15.2657 91.8817 16.1683 91.9936 17.0613C92.1075 17.8409 92.2951 18.5012 92.5549 19.0403C92.812 19.557 93.1796 19.9771 93.6177 20.255C94.0567 20.5246 94.6068 20.6593 95.2667 20.6593C96.3782 20.6593 97.17 20.1134 97.6841 19.0249C98.2051 17.9331 98.4648 16.3703 98.4662 14.3333C98.4662 12.2519 98.2051 10.6994 97.6855 9.67063C97.1659 8.64188 96.3573 8.12665 95.2417 8.12665Z" stroke="#F0DB4F"/>
</g>
<defs>
<clipPath id="clip0_202_95">
<rect width="110" height="126" fill="white"/>
</clipPath>
</defs>
</svg>
