<svg xmlns="http://www.w3.org/2000/svg" width="110" height="126" fill="none"><g clip-path="url(#a)"><path fill="#F0DB4F" d="M0 0v126h110V0H0Zm58.185 107.365c-1.624 3.779-4.723 6.262-8.315 7.46-5.518 1.452-10.796.624-14.723-2.075-2.627-1.847-4.68-4.689-6.073-7.964l8.378-5.877c.073.035.293.49.587 1.08 1.068 2.05 1.99 3.501 3.8 4.52 1.78.696 5.686 1.14 7.195-2.446.921-1.824.628-7.689.628-14.178-.001-10.195.04-20.349.04-30.429h10.304c0 11.088.053 21.59 0 32.41.022 6.632.525 12.545-1.821 17.499Zm42.745-3.334c-3.582 14.033-23.55 14.489-31.53 5.217-1.687-2.182-2.744-3.322-3.75-5.841 4.241-2.794 4.241-2.794 8.368-5.53 2.241 3.947 4.313 6.117 8.042 7.005 5.058.708 10.147-1.283 9.006-7.437-1.173-5.025-10.358-6.248-16.608-11.623-6.346-4.882-7.833-16.744-2.618-23.522 1.738-2.506 4.701-4.377 7.811-5.276l3.246-.481c6.231-.144 10.126 1.74 12.985 5.398.796.923 1.445 1.919 2.66 4.077-3.32 2.423-3.31 2.4-8.064 5.926-1.015-2.506-2.7-4.078-4.482-4.762-2.765-.96-6.251.084-6.975 3.43-.25 1.032-.198 1.991.2 3.695 1.12 2.926 4.88 4.198 8.252 5.973 9.707 4.51 12.985 9.345 13.791 15.101.776 4.955-.187 8.17-.334 8.65Z"/></g><defs><clipPath id="a"><path fill="#fff" d="M0 0h110v126H0z"/></clipPath></defs></svg>