<svg xmlns="http://www.w3.org/2000/svg" width="120" height="120" fill="none"><path fill="#fff" d="M0 8.595C0 3.847 3.945 0 8.813 0h102.375C116.055 0 120 3.848 120 8.595v102.81c0 4.748-3.945 8.595-8.812 8.595H8.812C3.946 120 0 116.153 0 111.405V8.595Zm37.072 91.86V46.267H19.065v54.188h18.007Zm-9-61.59c6.278 0 10.186-4.155 10.186-9.36-.113-5.317-3.9-9.36-10.066-9.36-6.165 0-10.192 4.05-10.192 9.36 0 5.205 3.907 9.36 9.953 9.36h.12Zm36.81 61.59V70.192c0-1.62.12-3.24.6-4.394 1.298-3.233 4.26-6.586 9.24-6.586 6.518 0 9.12 4.965 9.12 12.255v28.988h18.008v-31.08c0-16.65-8.88-24.39-20.73-24.39-9.555 0-13.838 5.25-16.238 8.947v.188h-.12l.12-.188v-7.665h-18c.226 5.085 0 54.188 0 54.188h18Z"/></svg>