<svg xmlns="http://www.w3.org/2000/svg" width="124" height="124" fill="none"><mask id="a" width="124" height="125" x="0" y="0" maskUnits="userSpaceOnUse" style="mask-type:luminance"><path stroke="#fff" stroke-linecap="round" stroke-linejoin="round" stroke-width="4" d="M19.574 90.483C8.714 93.825 2 98.44 2 103.54 2 113.736 28.862 122 62 122c33.138 0 60-8.264 60-18.461 0-5.099-6.717-9.714-17.574-13.056"/><path fill="#fff" stroke="#fff" stroke-linejoin="round" stroke-width="4" d="M62 97.385s39-26.142 39-56.364C101 19.472 83.54 2 62 2S23 19.47 23 41.022c0 30.221 39 56.363 39 56.363Z"/><path fill="#000" stroke="#000" stroke-linejoin="round" stroke-width="4" d="M62 57.385c3.978 0 7.794-1.621 10.607-4.506C75.42 49.992 77 46.08 77 42c0-4.08-1.58-7.993-4.393-10.879-2.813-2.885-6.629-4.506-10.607-4.506-3.978 0-7.794 1.621-10.607 4.506C48.58 34.007 47 37.92 47 42c0 4.08 1.58 7.993 4.393 10.879 2.813 2.885 6.629 4.506 10.607 4.506Z"/></mask><g mask="url(#a)"><path fill="#fff" d="M-10-10.308h144v147.693H-10V-10.308Z"/></g></svg>