<?xml version="1.0" encoding="UTF-8"?>
<svg id="Camada_2" data-name="Camada 2" xmlns="http://www.w3.org/2000/svg" viewBox="0 0 1669.48 1390.11">
  <defs>
    <style>
      .cls-1 {
        font-family: Corbel-Bold, Corbel;
        font-size: 300px;
        font-weight: 700;
      }

      .cls-1, .cls-2 {
        fill: #fff;
      }

      .cls-3 {
        fill: #60194e;
      }

      .cls-3, .cls-2 {
        stroke: #000;
        stroke-miterlimit: 10;
      }

      .cls-4 {
        letter-spacing: 0em;
      }
    </style>
  </defs>
  <g id="Camada_1-2" data-name="Camada 1">
    <g>
      <g>
        <polygon class="cls-2" points="1267.49 250.97 1267.49 331.13 1265.91 332.04 1194.91 291.05 1194.49 290.81 1123.49 249.81 1123.49 248.29 1122.17 249.05 1051.49 208.24 1051.49 207.28 1050.65 207.76 978.81 166.28 978.49 166.1 907.49 125.11 907.49 124.32 906.81 124.71 834.81 83.15 834.75 83.11 834.75 83.18 763.23 124.48 762.08 125.14 691.39 165.95 690.56 166.43 619.39 207.52 618.72 207.91 547.39 249.09 546.72 249.48 475.39 290.66 474.72 291.05 402.75 332.6 402.72 332.62 330.75 374.17 330.08 374.55 330.75 374.94 330.75 457.3 330.08 457.69 330.75 458.08 330.75 540.44 330.32 540.69 330.75 540.94 330.75 623.4 330.24 623.69 330.75 623.99 330.75 705.98 330.6 706.07 330.75 706.16 330.75 789.34 258.99 747.91 258.99 664.83 259.07 664.78 258.99 664.73 258.99 332.45 330.71 291.05 330.75 291.07 330.75 291.02 402.72 249.47 402.75 249.49 402.75 249.45 474.71 207.91 475.39 208.3 475.39 207.52 546.71 166.34 547.39 166.73 547.39 165.95 618.55 124.86 619.39 125.34 619.39 124.38 690.07 83.57 690.08 83.57 691.39 84.32 691.39 82.81 762.81 41.57 763.23 41.82 763.23 41.33 833.81 .58 834.75 1.12 905.82 42.15 907.49 43.12 977.81 83.72 978.49 84.11 1049.81 125.29 1051.49 126.26 1121.65 166.77 1123.49 167.83 1193.18 208.06 1194.49 208.82 1265.91 250.06 1265.92 250.06 1267.49 250.97"/>
        <g>
          <polygon class="cls-3" points="1123.49 499.34 1123.49 581.7 1122.82 582.09 1051.49 623.27 1050.82 623.65 978.81 665.23 978.49 665.04 978.49 665.41 907.49 706.41 906.18 707.16 834.75 748.4 834.75 498.99 834.82 498.95 834.75 498.91 834.75 167.09 906.08 208.28 907.49 209.09 907.49 290.41 906.4 291.05 907.49 291.68 907.49 373 906.08 373.82 907.49 374.63 907.49 456.99 906.82 457.38 907.49 457.77 907.49 538.98 905.82 539.94 907.49 540.9 907.49 623.27 906.82 623.66 907.49 624.05 907.49 623.27 978.49 582.28 978.82 582.09 1050.82 540.52 1051.49 540.91 1051.49 540.13 1122.82 498.95 1123.49 499.34"/>
          <polygon class="cls-3" points="763.23 290.75 762.71 291.05 763.23 291.35 763.23 373.7 762.56 374.09 763.23 374.48 763.23 456.29 762.08 456.95 763.23 457.61 763.23 540.28 762.82 540.52 763.23 540.76 763.23 622.27 761.18 623.45 763.23 624.63 763.23 706.56 762.18 707.17 691.39 666.3 691.39 663.74 689.18 665.02 619.39 624.73 619.39 623.33 618.18 624.03 547.39 583.16 547.39 500.01 617.44 540.46 619.39 541.58 690.18 582.46 691.39 583.15 691.39 249.09 762.56 208 763.23 208.39 763.23 290.75"/>
        </g>
        <polygon class="cls-2" points="1267.49 498.56 1266.66 499.04 1267.49 499.52 1267.49 580.55 1265.82 581.51 1267.49 582.48 1267.49 664.84 1266.82 665.23 1194.82 706.79 1194.49 706.6 1194.49 706.99 1123.49 747.98 1122.82 748.37 1051.49 789.55 1050.18 790.3 978.49 831.69 978.18 831.87 907.49 872.69 906.42 873.3 834.75 914.68 834.5 914.83 763.23 873.68 763.23 871.68 761.5 872.68 691.39 832.2 691.39 831.17 690.5 831.69 619.39 790.63 619.39 789.61 618.5 790.12 547.39 749.07 547.39 746.88 545.5 747.97 475.39 707.5 475.39 706.47 474.5 706.98 402.75 665.56 402.75 415.73 474.71 374.18 474.72 374.18 475.39 374.58 475.39 373.79 546.72 332.61 547.39 333 547.39 332.23 618.71 291.05 618.72 291.05 619.39 291.43 619.39 373.8 618.72 374.18 547.39 415.37 546.72 415.76 546.71 415.76 475.39 456.94 474.08 457.69 475.39 458.44 475.39 539.89 473.92 540.74 475.39 541.59 475.39 622.47 473.68 623.46 475.39 624.44 546.42 665.46 547.39 666.01 617.42 706.45 619.39 707.58 690.42 748.59 690.43 748.59 691.39 749.15 762.42 790.16 763.23 790.63 833.42 831.15 833.43 831.15 834.75 831.92 834.75 830.39 905.18 789.73 907.49 791.06 907.49 788.39 977.18 748.15 977.19 748.15 978.49 748.91 978.49 747.4 1049.82 706.22 1051.49 707.19 1051.49 705.25 1121.82 664.65 1123.49 665.61 1123.49 663.68 1193.82 623.08 1194.49 623.47 1194.49 540.71 1194.81 540.52 1194.49 540.33 1194.49 457.57 1194.66 457.47 1194.49 457.38 1123.49 416.38 1123.49 414.27 1121.66 415.33 1051.49 374.81 1051.49 373.85 1050.66 374.33 978.49 332.67 978.49 250.08 1049.44 291.05 1051.49 292.23 1122.18 333.04 1123.49 333.8 1193.18 374.03 1194.49 374.79 1266.18 416.18 1267.49 416.94 1267.49 498.56"/>
        <polygon class="cls-2" points="1410.49 333.53 1410.49 497.99 1409.18 498.74 1410.49 499.5 1410.49 664.26 1409.82 664.65 1410.49 665.04 1410.49 747.4 1409.82 747.79 1338.49 788.97 1337.82 789.35 1267.49 829.96 1265.82 830.93 1194.49 872.11 1193.18 872.86 1123.49 913.1 1121.18 914.43 1051.49 954.67 1049.42 955.86 978.49 996.81 977.5 997.39 907.49 1037.81 906.33 1038.47 834.75 1079.8 834.3 1080.07 763.23 1039.04 763.23 1037.96 762.3 1038.5 691.39 997.56 691.39 997.45 691.3 997.5 619.39 955.99 619.39 954.73 618.3 955.36 547.39 914.42 547.39 914.31 547.3 914.36 475.39 872.85 475.39 872.74 475.3 872.8 402.75 830.91 402.75 748.4 403.33 748.07 474.34 789.06 475.39 789.67 547.34 831.21 547.39 831.24 619.33 872.77 619.39 872.81 690.33 913.77 690.34 913.77 691.39 914.38 763.23 955.85 763.23 955.97 763.34 955.91 834.34 996.91 834.75 997.14 834.75 996.67 905.5 955.82 907.49 956.97 907.49 954.67 977.43 914.29 978.49 914.91 978.49 913.68 1049.18 872.87 1051.49 874.2 1051.49 871.53 1121.19 831.29 1123.49 832.62 1123.49 829.96 1193.82 789.36 1194.49 789.75 1194.49 788.97 1265.82 747.79 1267.49 748.75 1267.49 746.83 1337.82 706.22 1338.49 706.61 1338.49 623.85 1338.82 623.66 1338.49 623.47 1338.49 374.43 1338.91 374.19 1338.49 373.94 1338.49 291.96 1409.92 333.2 1410.49 333.53"/>
      </g>
      <text class="cls-1" transform="translate(0 1318.04)"><tspan x="0" y="0">JL D</tspan><tspan class="cls-4" x="550.49" y="0">e</tspan><tspan x="702.83" y="0">veloper</tspan></text>
    </g>
  </g>
</svg>