<svg xmlns="http://www.w3.org/2000/svg" width="120" height="120" fill="none"><path fill="#fff" d="M108 0H12C5.4 0 .06 6.75.06 15L0 105c0 8.25 5.4 15 12 15h96c6.6 0 12-6.75 12-15V15c0-8.25-5.4-15-12-15Zm-2.4 31.875-42.42 33.15c-1.92 1.5-4.44 1.5-6.36 0L14.4 31.875a5.64 5.64 0 0 1-1.549-1.677 7.14 7.14 0 0 1-.896-2.303 7.928 7.928 0 0 1-.098-2.558c.106-.852.349-1.668.715-2.4a6.004 6.004 0 0 1 1.412-1.855 4.64 4.64 0 0 1 1.883-1.01 4.104 4.104 0 0 1 2.049-.002 4.636 4.636 0 0 1 1.884 1.005L60 52.5l40.2-31.425a4.634 4.634 0 0 1 1.884-1.005 4.105 4.105 0 0 1 2.049.002 4.644 4.644 0 0 1 1.883 1.01 5.999 5.999 0 0 1 1.412 1.855 7.42 7.42 0 0 1 .715 2.4 7.954 7.954 0 0 1-.098 2.558 7.146 7.146 0 0 1-.896 2.303 5.646 5.646 0 0 1-1.549 1.677Z"/></svg>