<svg xmlns="http://www.w3.org/2000/svg" width="110" height="126" fill="none"><path fill="#00618A" d="M0 107.372h3.645V80.166l5.642 23.718c.665 2.871 1.576 3.886 3.364 3.886 1.787 0 2.664-1.015 3.33-3.886l5.641-23.718v27.206h3.645v-27.16c0-2.65-.561-3.934-1.718-4.594-2.769-1.634-4.626-.22-5.467 3.314l-5.537 23.407-5.36-23.41c-.807-3.53-2.699-4.945-5.468-3.313C.561 76.278 0 77.56 0 80.21v27.163Zm28.298-22.147h3.643v14.99c-.034.813.139 2.725 2.134 2.785 1.019.03 7.862 0 7.926 0V85.152h3.652c.017 0-.003 24.34-.003 24.441.019 6.003-3.94 7.306-5.766 7.407H28.377v-4.635c.02 0 11.5.005 11.528-.002 2.346-.468 2.068-2.671 2.067-3.413v-1.808h-7.745c-3.603-.062-5.9-3.035-5.928-6.456-.002-.314.079-15.31-.001-15.46Zm20.165 22.147H58.94c1.227 0 2.42-.484 3.365-1.323 1.576-1.368 2.347-3.223 2.347-5.655V95.36c0-1.988-.876-3.844-2.593-5.078a5.359 5.359 0 0 0-3.12-1.015h-4.416c-1.472 0-2.172-.838-2.347-2.693-.035-.222-.035-.398-.035-.62V82.82c0-.176 0-.354.035-.574.175-1.413.56-1.81 1.857-2.032l.35-.044h10.41v-4.591H54.56c-1.471 0-2.242.176-2.943.573-2.172 1.281-3.12 3.312-3.12 6.846v4.018c0 3.092 1.859 5.742 4.977 6.36.351.043.7.09 1.051.09h3.785c.14 0 .28 0 .386.042 1.157.176 1.647.575 1.998 1.368.09.157.161.349.21.561.048.213.071.443.07.675v4.02c0 .484-.175 1.103-.526 1.633-.315.53-.84.884-1.542.973l-.386.044H48.462v4.591Zm38.926-7.993c0 4.725 1.858 7.374 5.607 7.906.35.044.7.087 1.051.087h9.498v-4.591h-9.567c-2.138 0-2.943-1.017-2.943-3.447v-23.76H87.39V99.38Zm-20.41.239V83.242c0-4.16 1.545-6.683 4.6-7.48a3.74 3.74 0 0 1 .983-.133h6.919c.351 0 .667.044 1.018.133 3.055.797 4.6 3.319 4.6 7.48v16.376c0 3.377-.656 5.182-2.168 6.359l3.59 6.126H82.29l-2.905-4.957-2.924.35h-3.899c-.724-.008-1.444-.202-2.141-.575-2.318-1.194-3.442-3.497-3.442-7.303Zm3.934-.398c0 .222.035.445.07.71.21 1.903 1.16 2.965 2.599 2.965h3.31l-3.04-5.19h4.232l2.651 4.527c.49-.495.811-1.246.924-2.214.034-.22.034-.442.034-.664v-15.71c0-.176 0-.4-.034-.62-.211-1.771-1.16-2.788-2.564-2.788h-5.514c-1.615 0-2.669 1.328-2.669 3.408V99.22h.001Zm35.838-31.268c-2.24-.116-3.952.279-5.415 1.444-.416.332-1.079.34-1.146 1.325.228.454.263 1.13.445 1.687.349 1.068.939 2.5 1.465 3.25.574.82 1.167 1.699 1.784 2.41 1.096 1.264 2.32 1.986 3.377 3.25.621.748 1.239 1.687 1.847 2.53.3.415.501 1.064.892 1.324v-.12c-.205-.492-.258-1.17-.446-1.686l-.829-1.567a23.79 23.79 0 0 0-2.931-5.298c-.871-1.182-2.821-2.78-3.184-4.697l-.064-.119c.617-.132 1.341-.555 1.91-.843.959-.487 1.815-.361 2.804-.844l1.337-.724v-.48c-.499-.97-.856-2.254-1.401-3.131-1.426-2.296-2.983-4.59-4.586-6.505-.889-1.06-1.988-1.75-2.931-2.648-.316-.304-.873-.46-1.084-.965-.495-1.192-.764-2.703-1.147-4.093a238.452 238.452 0 0 1-2.293-9.153c-.482-2.088-.798-4.148-1.4-6.02-2.893-8.991-6.007-14.418-10.83-19.751-1.027-1.136-2.262-1.582-3.567-2.167l-2.103-.241c-.426-.337-.872-1.327-1.274-1.807-1.598-1.908-5.697-6.059-6.88-.6-.747 3.445 1.118 6.805 1.784 8.551.467 1.224 1.067 2.596 1.402 3.973.22.906.257 1.813.446 2.77.462 2.358.866 4.926 1.464 7.104.303 1.104.637 2.266 1.02 3.252.234.604.637.872.7 1.806-.393 1.04-.416 2.657-.637 3.973-.996 5.935-.62 13.312.828 17.704.445 1.35 1.491 4.242 2.93 3.132 1.26-.97.979-3.973 1.339-6.625.082-.598.031-1.041.19-1.444v.121l1.148 4.335c.849 2.584 2.354 5.283 3.63 7.106.662.944 1.184 2.579 2.04 3.13v-.122h-.064c-.167-.488-.425-.689-.638-1.083a29.217 29.217 0 0 1-1.464-3.131c-1.161-2.978-2.187-6.24-3.122-9.635-.446-1.62-.834-3.407-1.21-5.057-.145-.636-.144-1.599-.445-1.926-.414 1.208-1.02 2.186-1.339 3.613-.51 2.28-.575 5.063-.764 7.947l-.127.12c-.889-.405-1.2-2.132-1.53-3.613-.834-3.745-.989-9.777-.254-14.089.19-1.117 1.047-4.63.7-5.661-.166-1.029-.714-1.622-1.019-2.41a26.489 26.489 0 0 1-1.02-3.373c-.682-2.92-1-6.198-1.718-9.151-.345-1.412-.925-2.84-1.402-4.094-.528-1.392-1.12-2.415-1.53-4.095-.145-.597-.343-1.555-.127-2.169.068-.414.167-.587.383-.723.37-.538 1.398.18 1.783.482 1.022.803 1.875 1.566 2.74 2.65.416.521.835 1.527 1.338 1.806h.573c.897.389 1.902.119 2.74.6 1.481.852 2.808 2.175 4.013 3.614 3.672 4.384 6.673 10.622 8.727 18.065.33 1.199.474 2.341.764 3.612.587 2.563 1.327 5.2 1.91 7.708.584 2.5 1.152 5.024 1.976 7.105.433 1.094 2.106 1.68 2.867 2.288.533.426 1.406.87 1.91 1.444.965 1.1 1.9 2.41 2.804 3.614.451.607 1.841 1.927 1.911 3.015ZM78.275 22.07a2.542 2.542 0 0 0-1.147.242v.119h.064c.223.867.616 1.424.892 2.168l.638 2.53.063-.12c.394-.525.574-1.365.573-2.65-.16-.315-.182-.709-.319-1.083-.18-.503-.534-.785-.764-1.206Z"/></svg>