<svg xmlns="http://www.w3.org/2000/svg" width="110" height="126" fill="none"><g clip-path="url(#a)"><path fill="#83CD29" d="M105.652 27.919 60.319 1.238c-2.859-1.65-6.581-1.65-9.463 0L5.038 27.918C2.088 29.64 0 32.874 0 36.332v53.291c0 3.459 2.142 6.693 5.093 8.423l12.105 6.969c5.786 2.888 7.83 2.888 10.463 2.888 8.567 0 13.46-5.251 13.46-14.409V40.882c0-.743-.38-1.849-1.1-1.849H34.24c-.732 0-2.37 1.106-2.37 1.847v52.612c0 4.06-3.624 8.1-10.394 4.668L8.968 90.853a1.441 1.441 0 0 1-.744-1.23V36.33c0-.502.57-1.007 1.01-1.264l45.67-26.635c.426-.245 1.053-.245 1.479 0l45.112 26.629c.432.264.28.752.28 1.27v53.291c0 .509.188 1.004-.239 1.248l-45.322 26.651c-.389.237-.87.237-1.296 0l-11.624-7.033c-.35-.206-.767-.28-1.103-.089-3.235 1.858-3.83 2.105-6.865 3.171-.746.263-1.847.721.422 2.01l15.213 9.122a9.473 9.473 0 0 0 9.575 0l45.115-26.657c2.951-1.743 4.349-4.965 4.349-8.423v-53.29c0-3.46-1.398-6.684-4.348-8.413ZM69.814 81.177c-12.055 0-14.71-3.37-15.595-9.446-.103-.655-.651-1.437-1.308-1.437h-5.892c-.728 0-1.314.896-1.314 1.631 0 7.78 4.172 17.206 24.11 17.206 14.433 0 22.707-5.684 22.707-15.744 0-9.974-6.648-12.591-20.645-14.47-14.148-1.895-15.585-2.852-15.585-6.212 0-2.77 1.217-6.463 11.693-6.463 9.36 0 12.81 2.036 14.23 8.43a1.302 1.302 0 0 0 1.275 1.033h5.915c.364 0 .712-.149.967-.412a1.36 1.36 0 0 0 .344-1.02C89.8 43.26 82.582 38.128 67.984 38.128c-12.985 0-20.731 5.559-20.731 14.875 0 10.106 7.707 12.898 20.172 14.148 14.912 1.482 16.071 3.69 16.071 6.664 0 5.163-4.09 7.362-13.682 7.362Z"/></g><defs><clipPath id="a"><path fill="#fff" d="M0 0h110v126H0z"/></clipPath></defs></svg>