<svg xmlns="http://www.w3.org/2000/svg" width="110" height="126" fill="none"><g clip-path="url(#a)"><path fill="#CB6699" fill-rule="evenodd" d="M0 52.54c0 .944.181 1.566.283 2.172.662 3.935 2.086 7.313 3.775 10.393 2.406 4.39 5.352 7.925 8.37 11.249 2.618 2.882 5.29 5.7 7.918 8.56.451.492.878 1.057 1.368 1.66-.422.348-.772.655-1.137.939-3.468 2.694-6.805 5.714-9.881 9.373-1.854 2.206-3.647 4.551-4.913 7.614-2.037 4.927-2.758 10.176-1.24 15.781.444 1.637 1.12 3.051 2.074 4.097.31.338.657.673 1.018.805.927.334 1.872.553 2.81.817l2.657-.003c2.939-.401 5.614-1.943 8.03-4.497 3.779-3.994 6.324-9.348 7.418-16.219.796-4.994.828-9.994-.11-14.966-.09-.46-.193-.914-.31-1.36-.113-.447-.248-.882-.405-1.439l6.024-5.305.09.118c-.11.549-.226 1.096-.325 1.65-.716 4.004-1.191 8.078-1.02 12.234.182 4.428.989 8.573 2.681 12.272 1.369 2.992 4.63 3.104 6.084.101.516-1.067 1.016-2.182 1.392-3.372.982-3.107 1.892-6.268 2.83-9.408l.164-.574c-.068 1.487-.147 2.792-.182 4.1-.056 2.04.021 4.069.477 6.011.39 1.661 1.053 2.902 2.296 3.121.85.149 1.527-.447 2.151-1.203.968-1.171 1.77-2.631 2.358-4.292 1.665-4.684 3.376-9.34 4.885-14.143 1.633-5.194 3.061-10.54 4.578-15.823l.25-.936c.359 2.156.608 4.268 1.068 6.267.535 2.32 1.196 4.585 1.916 6.787.341 1.04.302 1.715-.17 2.587-1.977 3.65-3.92 7.344-5.863 11.034-.43.815-.859 1.644-1.217 2.534a6.844 6.844 0 0 0-.42 1.83c-.061.595.031 1.203.257 1.696.226.493.568.833.954.949a5.62 5.62 0 0 0 2.372.258c2.714-.305 5.177-1.764 7.355-4.236 2.822-3.201 3.728-7.57 3.045-12.748-.185-1.405-.512-2.771-.83-4.125-.143-.61-.152-1.039.108-1.608 2.256-4.933 4.183-10.168 5.976-15.523.07-.21.144-.422.268-.647.58 4.63 1.455 9.09 3.022 13.14-.8 1.179-1.59 2.248-2.306 3.426-1.576 2.595-2.943 5.413-3.656 8.85-.307 1.481-.543 2.987-.406 4.569.212 2.456 1.526 4.053 3.104 3.494 3.377-1.197 6.292-3.634 8.422-7.95 1.433-2.907 1.563-6.149.963-9.545-.165-.923-.36-1.832-.57-2.89.833-.396 1.645-.871 2.485-1.165 4.363-1.524 8.677-1.259 12.881 1.154 2.454 1.409 4.437 3.766 5.612 7.475 1.436 4.534.643 8.836-2.148 11.702-.26.267-.558.478-.773.812a1.44 1.44 0 0 0-.152.421c-.031.154-.04.317-.028.478.018.165.303.372.467.369.917-.011 1.661-.747 2.375-1.504 1.789-1.896 3.095-4.447 3.376-7.805L110 91.9l-.067-2.187c-.028-.126.02-.25.014-.346-.381-4.891-2.086-8.684-4.568-11.658-2.873-3.442-6.267-4.859-9.855-5.083-2.91-.192-5.817.494-8.555 2.017-.786.436-1.565.953-2.355 1.44-.106-.294-.22-.576-.314-.867-.811-2.544-1.794-4.975-2.012-7.893-.154-2.071-.343-4.14-.022-6.19.31-1.97.713-3.908 1.092-5.852.195-1.002.058-1.562-.566-2.013a1.97 1.97 0 0 0-.688-.346c-1.534-.341-3.046-.147-4.53.515-.526.235-.909.686-1.025 1.577-.067.51-.202 1-.297 1.505-.388 2.097-.663 4.235-1.29 6.233-1.572 5.011-3.367 9.834-5.203 14.622-.199.516-.408 1.023-.659 1.65-.645-2.066-1.332-3.92-1.54-6.094-.237-2.459-.422-4.913-.023-7.352.297-1.82.685-3.606 1.043-5.401.169-.854.09-1.302-.414-1.751-.255-.227-.543-.428-.83-.494-1.572-.367-3.179-.166-4.691.588-.476.236-.725.707-.87 1.458-.428 2.217-.793 4.487-1.393 6.595-2.43 8.534-4.93 17.024-7.429 25.512-.52 1.773-1.132 3.484-1.72 5.21-.148.437-.366.822-.551 1.233-.15-.27-.207-.455-.206-.64.004-1.092-.08-2.215.055-3.27.417-3.189.878-6.365 1.382-9.525.412-2.611.892-5.198 1.348-7.792.153-.868.156-1.68-.252-2.41-.684-1.222-2.114-1.49-2.962-.549l-.375.325.073-.926c.179-1.984.215-3.962-.141-5.917-.443-2.437-1.579-3.84-3.23-3.761-.769.036-1.576.237-2.289.667-2.995 1.798-5.298 4.982-7.26 8.813a2.924 2.924 0 0 1-.662.877c-2.535 2.153-5.077 4.278-7.62 6.412l-2.828 2.373c-.759-1.108-1.448-2.258-2.23-3.234-2.39-2.984-4.818-5.894-7.223-8.845-2.133-2.615-4.199-5.339-5.78-8.802-1.175-2.577-1.933-5.396-2.006-8.581-.092-4.06.66-7.768 2.01-11.22 1.725-4.418 4.08-7.963 6.668-11.174 2.737-3.395 5.699-6.277 8.768-8.908 4.293-3.681 8.71-6.939 13.445-9.09 4.856-2.206 9.782-3.468 14.864-2.588 1.997.346 3.937 1.046 5.718 2.543 1.364 1.144 2.483 2.643 3.004 4.986.513 2.305.497 4.641.141 6.983-.722 4.742-2.418 8.65-4.551 12.143-3.5 5.726-7.768 9.624-12.573 12.199-2.763 1.482-5.638 2.421-8.555 2.795-2.391.307-4.732-.018-6.996-1.291-1.5-.844-2.805-2.135-3.854-4.008-.188-.336-.428-.7-.777-.385-.343.308-.403.807-.289 1.313.192.84.37 1.715.668 2.467.75 1.885 1.846 3.252 3.051 4.425 2.316 2.256 4.904 3.014 7.588 3.19 4.072.27 8.045-.662 11.962-2.335 5.592-2.389 10.455-6.607 14.355-13.263 3.246-5.542 5.565-11.796 6.062-19.348.243-3.686-.016-7.296-1.142-10.66-1.222-3.642-3.166-6.351-5.49-8.218C59.17 1.582 55.52 0 51.75 0h-3.776c-4.565 0-8.978 2.003-13.267 4.393-3.247 1.81-6.431 3.946-9.522 6.31-6.731 5.152-13 11.363-18.149 19.904-2.565 4.255-4.737 8.95-5.986 14.478a77.468 77.468 0 0 0-.974 5.027m24.39 48.323c-.291 5.983-2.062 10.834-4.956 14.763-1.628 2.208-3.495 3.781-5.67 4.334-.788.2-1.595.248-2.36-.253-1.09-.713-1.335-2.196-1.356-3.775-.032-2.518.544-4.793 1.333-6.959 1.03-2.823 2.54-4.976 4.154-6.986 2.54-3.168 5.297-5.849 8.12-8.38l.212-.133c.437 2.468.644 4.906.523 7.389Zm22.042-26.003c-.206 1.91-.464 3.822-.828 5.674-1.26 6.41-2.878 12.622-4.628 18.75-.323 1.133-.794 2.168-1.203 3.243-.07.165-.153.316-.248.448-.506.766-.986.726-1.242-.276-.298-1.165-.481-2.412-.639-3.645-.106-.828-.08-1.697-.114-2.545.035-6.03 1.236-11.51 3.274-16.612.84-2.104 1.755-4.109 3.152-5.44a4.845 4.845 0 0 1 1.397-.947c.745-.32 1.202.207 1.079 1.35Zm15.037 29.343 5.405-9.666c.225 3.59-3.758 10.755-5.405 9.666Zm17.263-6.504c-.382.335-.799.577-1.19.887-.358.284-.477-.003-.487-.475a4.813 4.813 0 0 1 .081-.968c.73-3.942 2.073-7.307 4.072-10.044l.14-.11c.95 4.072-.148 8.544-2.616 10.71Z" clip-rule="evenodd"/></g><defs><clipPath id="a"><path fill="#fff" d="M0 0h110v126H0z"/></clipPath></defs></svg>