<svg xmlns="http://www.w3.org/2000/svg" width="120" height="120" fill="none"><path fill="#fff" d="M105.857 98.692c.027-.04.067-.08.094-.12C114.723 88.137 120 74.691 120 60c0-14.692-5.277-28.138-14.036-38.571-.027-.04-.067-.067-.093-.108-.148-.174-.282-.334-.429-.495-.054-.067-.107-.12-.161-.188l-.549-.63-.013-.012c-.201-.228-.415-.456-.616-.683l-.014-.014c-.428-.455-.857-.91-1.299-1.353l-.013-.013-.643-.643-.04-.04c-.201-.2-.402-.388-.603-.576a3.227 3.227 0 0 0-.214-.2 10.282 10.282 0 0 0-.402-.376c-.04-.04-.094-.08-.134-.134C90.054 6.054 75.737 0 60 0 44.263 0 29.946 6.054 19.245 15.964c-.04.04-.093.08-.133.134-.134.12-.268.255-.402.389a3.115 3.115 0 0 1-.215.2c-.2.188-.401.389-.602.576l-.04.04-.643.643-.014.014c-.442.442-.87.897-1.299 1.352l-.013.014c-.214.228-.415.455-.616.683l-.014.013c-.187.201-.374.416-.549.63-.053.067-.107.12-.16.187-.148.161-.282.335-.429.496-.027.04-.067.067-.094.107C5.277 31.862 0 45.308 0 60s5.277 28.138 14.036 38.571c.027.04.067.08.094.121l.415.496c.053.066.107.12.16.187l.55.629c0 .014.013.014.013.027.2.228.402.456.616.67l.013.013c.429.456.857.911 1.286 1.353l.013.013c.215.215.416.429.63.63l.04.04c.442.442.897.871 1.353 1.286C29.946 113.946 44.263 120 60 120c15.737 0 30.054-6.054 40.754-15.964.457-.418.903-.847 1.34-1.286l.04-.04c.214-.214.428-.415.629-.63l.014-.013c.442-.442.87-.897 1.285-1.353l.014-.013c.201-.228.415-.442.616-.67 0-.013.013-.013.013-.027.188-.2.375-.415.549-.629.054-.067.108-.12.161-.188.152-.161.299-.326.442-.495Zm.549-19.098a50.268 50.268 0 0 1-7.259 12.08 59.469 59.469 0 0 0-10.915-7.487c1.554-6.28 2.518-13.178 2.772-20.437h19.219a50.061 50.061 0 0 1-3.817 15.844Zm3.817-23.344H91.004c-.254-7.259-1.218-14.156-2.772-20.438a59.472 59.472 0 0 0 10.915-7.486 50.073 50.073 0 0 1 11.076 27.924Zm-30.63-42.656a50.065 50.065 0 0 1 14.411 9.268 52.865 52.865 0 0 1-7.955 5.598c-2.103-6.027-4.795-11.264-7.928-15.456.495.188.99.389 1.473.59Zm-12.133 93.83c-1.232.964-2.464 1.701-3.71 2.197V84.777a52.108 52.108 0 0 1 15.496 3.509c-1.112 3.294-2.398 6.335-3.884 9.08-2.33 4.339-5.063 7.808-7.902 10.058Zm7.902-84.79c1.473 2.759 2.772 5.799 3.884 9.08a52.108 52.108 0 0 1-15.496 3.51V10.392c1.232.495 2.478 1.219 3.71 2.196 2.84 2.237 5.571 5.706 7.902 10.045ZM63.75 77.264V63.75h19.754c-.214 5.92-.95 11.665-2.183 17.116l-.04.16a59.6 59.6 0 0 0-17.531-3.763Zm0-21.014V42.737a59.6 59.6 0 0 0 17.531-3.764l.04.16c1.233 5.452 1.97 11.184 2.183 17.117H63.75Zm-7.5 7.5v13.513a59.6 59.6 0 0 0-17.531 3.764l-.04-.16c-1.233-5.452-1.97-11.184-2.184-17.117H56.25Zm-19.755-7.5c.215-5.92.951-11.665 2.184-17.116l.04-.16a59.508 59.508 0 0 0 17.531 3.763V56.25H36.495ZM56.25 84.777v24.83c-1.232-.495-2.478-1.219-3.71-2.196-2.84-2.237-5.585-5.719-7.915-10.058-1.473-2.76-2.772-5.8-3.884-9.08a52.272 52.272 0 0 1 15.509-3.496Zm0-49.554a52.108 52.108 0 0 1-15.495-3.509c1.111-3.294 2.397-6.334 3.883-9.08 2.33-4.34 5.063-7.822 7.916-10.058 1.232-.964 2.464-1.701 3.71-2.197v24.844h-.014Zm-15.844-21.63c.496-.2.978-.401 1.474-.588-3.135 4.191-5.826 9.428-7.93 15.455a51.914 51.914 0 0 1-7.955-5.598 50.065 50.065 0 0 1 14.411-9.268ZM13.594 40.407a50.295 50.295 0 0 1 7.259-12.08 59.472 59.472 0 0 0 10.915 7.486c-1.554 6.282-2.518 13.18-2.773 20.438H9.777a50.072 50.072 0 0 1 3.817-15.844ZM9.777 63.75h19.219c.254 7.259 1.218 14.156 2.772 20.438a59.469 59.469 0 0 0-10.915 7.486A50.07 50.07 0 0 1 9.777 63.75Zm30.63 42.656a50.067 50.067 0 0 1-14.411-9.268 52.86 52.86 0 0 1 7.955-5.598c2.103 6.027 4.794 11.264 7.928 15.456a49.131 49.131 0 0 1-1.473-.59Zm39.187 0c-.496.201-.978.402-1.473.59 3.133-4.192 5.825-9.429 7.928-15.456a51.914 51.914 0 0 1 7.955 5.598 50.055 50.055 0 0 1-14.41 9.268Z"/></svg>