<svg width="120" height="120" viewBox="0 0 120 120" fill="none" xmlns="http://www.w3.org/2000/svg">
<path d="M114.521 87.0682C109.544 81.9545 95.3986 72.375 86.1271 72.375C83.9797 72.375 82.1049 72.8523 80.571 73.8409C76.0375 76.7386 72.4244 78.9886 70.6859 78.9886C69.7315 78.9886 68.7089 78.1364 66.4592 76.1932L66.0843 75.8523C59.8465 70.4318 58.5171 69.0341 56.097 66.5114L55.4834 65.8636C55.0403 65.4204 54.6653 65.0114 54.2904 64.6364C52.177 62.4545 50.6431 60.8864 45.2234 54.75L44.9848 54.4773C42.3942 51.5455 40.6899 49.6364 40.5876 48.2386C40.4854 46.875 41.6784 44.6591 44.7121 40.5341C48.3934 35.5568 48.5298 29.4205 45.1552 22.2955C42.4624 16.6705 38.0652 11.2841 34.1794 6.54546L33.8385 6.13636C30.4981 2.04545 26.6122 0 22.2832 0C17.477 0 13.4889 2.59091 11.3756 3.95454C11.2051 4.05682 11.0347 4.19318 10.8643 4.29545C6.12627 7.29545 2.68354 11.4205 1.38825 15.6136C-0.554672 21.9205 -1.84996 30.1023 7.45564 47.1136C15.5 61.8409 22.7945 71.7273 34.3839 83.625C45.2916 94.8068 50.1318 98.4204 60.9713 106.261C73.0379 114.989 84.6273 120 92.7399 120C100.273 120 106.204 120 114.657 109.807C123.52 99.1023 119.839 92.5568 114.521 87.0682Z" fill="white"/>
</svg>
