<svg width="110" height="126" viewBox="0 0 110 126" fill="none" xmlns="http://www.w3.org/2000/svg">
<g clip-path="url(#clip0_201_2)">
<path d="M0 63V126H110.003V-0.00393677H0V63ZM88.648 57.9797C91.4409 58.779 93.5722 60.2004 95.5281 62.5196C96.5422 63.7599 98.0427 66.0201 98.1647 66.5595C98.1991 66.717 93.4158 70.3986 90.5163 72.4598C90.4131 72.5386 89.992 72.0208 89.5194 71.2195C88.1048 68.857 86.6216 67.8392 84.3511 67.66C81.0167 67.4002 78.8511 69.4004 78.8855 72.7394C78.8855 73.7198 79.0058 74.2987 79.3564 75.1019C80.0903 76.8423 81.4533 77.8818 85.7295 80.0041C93.6048 83.8825 96.9736 86.4419 99.067 90.0841C101.405 94.1437 101.93 100.625 100.342 105.444C98.5961 110.685 94.2666 114.245 88.1736 115.426C86.2881 115.806 81.8177 115.747 79.793 115.327C75.3758 114.428 71.1855 111.927 68.6005 108.647C67.5864 107.368 65.615 104.027 65.737 103.785C65.7886 103.706 66.2441 103.385 66.7511 103.044L70.8366 100.347L73.9991 98.2465L74.6625 99.3687C75.5872 100.989 77.6136 103.208 78.8356 103.948C82.3453 106.068 87.1647 105.767 89.5383 103.328C90.5523 102.269 90.97 101.168 90.97 99.5479C90.97 98.0871 90.8153 97.4472 90.1502 96.3487C89.2942 94.9508 87.548 93.7696 82.5877 91.3087C76.9123 88.5091 74.4683 86.7687 72.2339 84.0085C70.9414 82.4079 69.7194 79.8486 69.2123 77.7085C68.793 75.9288 68.6881 71.4676 69.0198 69.6682C70.1886 63.3682 74.3273 59.0074 80.3 57.708C82.2388 57.2887 86.7453 57.4481 88.6462 57.9876L88.648 57.9797ZM62.8237 63.2362L62.8581 68.3944H48.5409V114.995H38.4141V68.3944H24.0969V63.3347L24.2172 58.1372C24.2688 58.0584 32.9828 58.0191 43.5462 58.0387L62.7705 58.0978L62.8237 63.2362Z" fill="#007ACC"/>
</g>
<defs>
<clipPath id="clip0_201_2">
<rect width="110" height="126" fill="white"/>
</clipPath>
</defs>
</svg>
