<svg width="110" height="126" viewBox="0 0 110 126" fill="none" xmlns="http://www.w3.org/2000/svg">
<g clip-path="url(#clip0_201_89)">
<path d="M0 79.0015V126H110V32H0V79.0015ZM88.6452 75.2563C91.4381 75.8526 93.5693 76.913 95.5251 78.6431C96.5392 79.5684 98.0396 81.2545 98.1616 81.6569C98.196 81.7744 93.4129 84.5209 90.5134 86.0586C90.4103 86.1173 89.9892 85.7311 89.5166 85.1333C88.1021 83.3709 86.6189 82.6115 84.3485 82.4779C81.0142 82.284 78.8486 83.7762 78.883 86.2671C78.883 86.9986 79.0033 87.4304 79.3539 88.0296C80.0878 89.3279 81.4507 90.1034 85.7269 91.6867C93.6019 94.58 96.9706 96.4893 99.0639 99.2064C101.401 102.235 101.927 107.07 100.339 110.665C98.593 114.575 94.2636 117.23 88.1708 118.112C86.2854 118.395 81.8151 118.351 79.7905 118.038C75.3734 117.367 71.1832 115.502 68.5983 113.055C67.5843 112.1 65.613 109.608 65.735 109.427C65.7865 109.368 66.242 109.129 66.749 108.875L70.8344 106.863L73.9968 105.296L74.6602 106.133C75.5848 107.342 77.6112 108.997 78.8332 109.549C82.3427 111.131 87.162 110.906 89.5355 109.086C90.5495 108.296 90.9672 107.475 90.9672 106.266C90.9672 105.177 90.8125 104.699 90.1473 103.88C89.2914 102.837 87.5452 101.956 82.5851 100.12C76.9099 98.0315 74.466 96.7331 72.2317 94.674C70.9392 93.48 69.7172 91.5706 69.2102 89.9742C68.7908 88.6464 68.686 85.3184 69.0177 83.976C70.1864 79.2761 74.325 76.0229 80.2975 75.0536C82.2362 74.7408 86.7426 74.8597 88.6435 75.2621L88.6452 75.2563ZM62.8218 79.1777L62.8562 83.0257H48.5394V117.79H38.4129V83.0257H24.0961V79.2511L24.2164 75.3738C24.268 75.315 32.9818 75.2856 43.5449 75.3003L62.7685 75.3444L62.8218 79.1777Z" fill="#007ACC"/>
<path d="M13.5931 3.2563H7.93765V22.6939H5.63136V3.2563H0V0.94929H13.5931V3.2563ZM22.5154 7.16808L16.0799 25.1779C14.9337 28.3908 13.3223 30 11.2417 30C10.6601 30 10.1727 29.9355 9.78067 29.8019V27.5717C10.262 27.7531 10.7052 27.8432 11.1043 27.8432C12.2354 27.8432 13.0827 27.0976 13.6452 25.6008L14.7643 22.6594L9.29936 7.16808H11.7861L15.5715 19.1149C15.6186 19.2662 15.7119 19.6624 15.8593 20.2968H15.9395L16.2102 19.1449L20.1851 7.16808H22.5154ZM26.1794 20.4515H26.1253V29.8364H23.8831V7.16697H26.1253V9.89687H26.1794C27.2824 7.83581 28.8918 6.80306 31.0176 6.80306C32.8205 6.80306 34.2263 7.4975 35.2391 8.88638C36.2519 10.2753 36.7532 12.1382 36.7532 14.4753C36.7532 17.0716 36.1857 19.155 35.0486 20.7163C33.9115 22.2777 32.3512 23.0578 30.3779 23.0578C28.5729 23.0534 27.1641 22.1864 26.1814 20.4481L26.1794 20.4515ZM26.1253 14.1882V16.3583C26.1253 17.6437 26.5023 18.7287 27.2523 19.6279C28.0024 20.5271 28.957 20.9689 30.1161 20.9689C31.4718 20.9689 32.5367 20.3902 33.3068 19.2395C34.0769 18.0888 34.46 16.484 34.46 14.4352C34.46 12.7058 34.099 11.3525 33.38 10.3732C32.6611 9.39385 31.6754 8.90418 30.4581 8.90418C29.1565 8.90418 28.1067 9.40832 27.3145 10.4133C26.5223 11.4182 26.1253 12.6713 26.1253 14.1882ZM50.3463 15.5514H40.4694C40.5045 17.2809 40.9236 18.6119 41.7248 19.5534C42.526 20.4949 43.63 20.9634 45.0318 20.9634C46.6061 20.9634 48.0551 20.3847 49.3767 19.234V21.5677C48.1483 22.5581 46.5209 23.0556 44.4994 23.0556C42.521 23.0556 40.9697 22.3523 39.8397 20.9411C38.7096 19.53 38.135 17.5468 38.135 14.9894C38.135 12.5745 38.7527 10.6047 39.9851 9.08558C41.2174 7.56649 42.7526 6.80417 44.5826 6.80417C46.4126 6.80417 47.8274 7.46077 48.8302 8.77397C49.8329 10.0872 50.3343 11.9123 50.3343 14.2471V15.5492L50.3463 15.5514ZM48.04 13.4425C48.032 11.9958 47.7171 10.8896 47.1035 10.0927C46.4898 9.29592 45.6345 8.89417 44.5425 8.89417C43.4856 8.89417 42.5872 9.31261 41.8491 10.1539C41.1111 10.9953 40.6459 12.0904 40.4814 13.4447L48.04 13.4425ZM52.2956 21.8136V18.8122C52.5794 19.1127 52.9173 19.3909 53.3134 19.6313C53.7095 19.8716 54.1156 20.0798 54.5648 20.2433C55.014 20.4069 55.4432 20.5405 55.8824 20.6329C56.3216 20.7252 56.7347 20.7709 57.1057 20.7709C58.3963 20.7709 59.3639 20.4815 60.0006 19.8995C60.6374 19.3174 60.9562 18.4805 60.9562 17.3899C60.9562 16.8034 60.851 16.2948 60.6374 15.8586C60.4117 15.4049 60.1125 15.0012 59.755 14.6678C59.3779 14.3095 58.9347 13.9645 58.4213 13.6373L56.7668 12.5978L55.0181 11.4293C54.5019 11.0604 54.0282 10.6231 53.6072 10.1272C53.2061 9.65315 52.8923 9.11452 52.6626 8.51356C52.433 7.9126 52.3217 7.20703 52.3217 6.39908C52.3217 5.40861 52.5002 4.54836 52.8582 3.81719C53.2161 3.08603 53.6854 2.48173 54.272 2.00542C54.8586 1.5291 55.5194 1.17743 56.2655 0.944839C57.0078 0.712581 57.7754 0.594991 58.5467 0.595392C60.3145 0.595392 61.601 0.854695 62.4092 1.36773V4.23118C61.3523 3.3431 60.0026 2.89906 58.3331 2.89906C57.8748 2.89906 57.4156 2.95916 56.9573 3.07156C56.4991 3.18396 56.091 3.3776 55.734 3.64135C55.377 3.90511 55.0852 4.24231 54.8596 4.65964C54.634 5.07697 54.5217 5.57777 54.5217 6.17762C54.5217 6.73406 54.6069 7.2126 54.7784 7.61769C54.9499 8.02278 55.2015 8.39003 55.5365 8.72612C55.8714 9.06221 56.2745 9.38272 56.7568 9.69655L58.4113 10.7271L60.2363 11.9401C60.8119 12.363 61.3162 12.8327 61.7484 13.3502C62.1806 13.8676 62.5255 14.4374 62.7782 15.064C63.0309 15.6905 63.1593 16.4106 63.1593 17.2163C63.1593 18.2847 62.9848 19.1972 62.6428 19.9373C62.3142 20.657 61.8345 21.2784 61.244 21.7491C60.6574 22.2165 59.9806 22.5504 59.2115 22.7585C58.4424 22.9666 57.6372 23.0701 56.7869 23.0701C56.5031 23.0701 56.1531 23.0445 55.738 22.9877L54.4645 22.7462C54.0294 22.6383 53.6222 22.5092 53.2332 22.3534C52.8421 22.1864 52.5333 22.0195 52.2966 21.8192L52.2956 21.8136ZM75.0878 21.9806C74.0118 22.6961 72.7364 23.0601 71.2644 23.0601C69.2709 23.0601 67.6585 22.34 66.4342 20.8988C65.2099 19.4577 64.5962 17.5914 64.5962 15.2966C64.5962 12.7392 65.258 10.6859 66.5776 9.13344C67.8972 7.58096 69.659 6.80417 71.866 6.80417C73.0943 6.80417 74.1783 7.06013 75.1189 7.56316V10.1228C74.081 9.31038 72.97 8.90975 71.7848 8.90975C70.3549 8.90975 69.1817 9.47954 68.2682 10.618C67.3547 11.7565 66.8965 13.2489 66.8965 15.0985C66.8965 16.9181 67.3276 18.3548 68.187 19.4031C69.0463 20.4515 70.2025 20.9812 71.6494 20.9812C72.8697 20.9812 74.0159 20.5327 75.0928 19.6313V21.9906L75.0878 21.9806ZM83.7574 9.68097C83.3664 9.34933 82.8018 9.18018 82.0528 9.18018C81.0972 9.18018 80.296 9.68097 79.6562 10.6826C79.0165 11.6842 78.6936 13.0463 78.6936 14.7758V22.6884H76.4515V7.16363H78.6936V10.3643H78.7478C79.0666 9.27366 79.552 8.41896 80.2088 7.81133C80.8656 7.2037 81.5955 6.8932 82.4078 6.8932C82.9893 6.8932 83.4376 6.9622 83.7484 7.11578L83.7574 9.68097ZM86.3294 3.22625C85.9284 3.22625 85.5874 3.0749 85.3036 2.77331C85.0199 2.47171 84.8805 2.08777 84.8805 1.62147C84.8805 1.15517 85.0209 0.772342 85.3036 0.461848C85.5864 0.151353 85.9294 0 86.3294 0C86.7376 0 87.0875 0.155805 87.3743 0.461848C87.5152 0.610999 87.6263 0.791245 87.7006 0.990973C87.7748 1.1907 87.8106 1.40548 87.8055 1.62147C87.8055 2.06663 87.6621 2.445 87.3743 2.75995C87.0865 3.06599 86.7366 3.22625 86.3294 3.22625ZM87.4224 22.6939H85.1803V7.16919H87.4224V22.6939ZM91.0363 20.4515H90.9821V29.8364H88.74V7.16697H90.9821V9.89687H91.0363C92.1393 7.83581 93.7487 6.80306 95.8745 6.80306C97.6774 6.80306 99.0832 7.4975 100.096 8.88638C101.109 10.2753 101.61 12.1382 101.61 14.4753C101.61 17.0716 101.043 19.155 99.9055 20.7163C98.7684 22.2777 97.1981 23.0578 95.2347 23.0578C93.4298 23.0534 92.021 22.1864 91.0383 20.4481L91.0363 20.4515ZM90.9821 14.1893V16.3594C90.9821 17.6448 91.3592 18.7298 92.1092 19.629C92.8593 20.5282 93.8139 20.9701 94.973 20.9701C96.3287 20.9701 97.3936 20.3914 98.1637 19.2406C98.9338 18.0899 99.3169 16.4851 99.3169 14.4363C99.3169 12.7069 98.9559 11.3536 98.2369 10.3743C97.518 9.39496 96.5323 8.90529 95.3149 8.90529C94.0134 8.90529 92.9635 9.40943 92.1714 10.4144C91.3792 11.4193 90.9821 12.6735 90.9821 14.1926V14.1893ZM110 22.5437C109.472 22.8664 108.777 23.0267 107.909 23.0267C105.463 23.0267 104.233 21.5087 104.233 18.4772V9.29146H101.827V7.16919H104.233V3.37871L106.475 2.57744V7.17031H110V9.29258H106.475V18.0398C106.475 19.0793 106.636 19.8249 106.954 20.2701C107.272 20.7152 107.801 20.9378 108.538 20.9378C109.102 20.9378 109.591 20.7653 109.999 20.4203L110 22.5437Z" fill="#007ACC"/>
</g>
<defs>
<clipPath id="clip0_201_89">
<rect width="110" height="126" fill="white"/>
</clipPath>
</defs>
</svg>
