<svg xmlns="http://www.w3.org/2000/svg" width="110" height="126" fill="none"><g clip-path="url(#a)"><path fill="#fff" fill-rule="evenodd" d="M51.045 113.694c-2.187-.217-4.396-.143-6.596-.162-.214-.001-.431.262-.647.402.19.136.375.38.57.39 1.03.057 1.428.735 1.437 1.764.019 2.244.044 4.491-.01 6.732-.035 1.39-.718 1.993-1.979 1.753-.63-.121-1.315-.383-1.8-.822-1.09-.988-2.072-2.127-3.18-3.292l.66-.274c1.72-.727 2.481-1.859 2.355-3.507-.114-1.504-1.231-2.808-2.925-2.968-2.15-.202-4.322-.147-6.484-.178-.163-.003-.329.209-.495.32.166.158.326.448.496.456 1.227.052 1.524.899 1.52 2.058-.01 2.08-.012 4.16-.003 6.24.005 1.131-.34 1.896-1.472 2.001-.19.019-.36.268-.54.411.221.128.44.362.665.366 1.688.03 3.377.031 5.064-.002.215-.003.427-.256.64-.394l-.566-.404c-.435-.308-1.146-.529-1.25-.94-.244-.972-.198-2.033-.27-3.056l.405-.148c.26.322.532.631.776.967.807 1.111 1.587 2.245 2.414 3.336.215.284.567.629.854.627 3.592-.028 7.194.026 10.774-.244 2.048-.155 3.64-1.471 4.305-3.797 1.09-3.814-.988-7.266-4.718-7.635Zm-15.043 5.578v-4.544c.904-.137 2.311-.326 2.884.756.377.713.358 1.925.085 2.707-.488 1.395-2.064 1.113-2.97 1.081Zm16.883 2.982c-.596 1.483-2.726 2.438-4.045 1.853-.334-.148-.695-.776-.705-1.194-.064-2.712-.033-5.428-.033-8.231 1.765-.061 3.535-.245 4.599 1.613 1.077 1.884.98 3.974.184 5.959Zm35.383 1.751c-.892.305-2.13.397-2.893-.069-1.495-.913-.53-2.692-.809-4.083 1.913-.19 1.907-.189 2.57 1.593.055.147.237.232.36.348.11-.215.31-.427.314-.645.028-1.388.022-2.778 0-4.166-.004-.187-.172-.369-.353-.729-.312.775-.31 1.575-.718 1.898-.486.385-1.883.36-1.883.541v-4.09c.904.07 1.929.186 2.91.19 1.283.005 1.154 1.496 1.775 2.218l.274-.137-.184-3.234c-2.668-.379-8.821-.189-9.46.334.2.131.36.329.527.332 1.227.019 1.548.862 1.553 2.026.006 1.96.049 3.921.012 5.881-.044 2.333-1.244 3.097-3.001 1.759-1.243-.946-2.268-2.248-3.158-3.155.938-1.041 2.005-1.777 2.466-2.835.843-1.94-.562-4.047-2.834-4.284-2.078-.215-4.18-.138-6.271-.161-.204-.002-.408.212-.612.325.172.155.342.438.52.444 1.238.048 1.514.943 1.529 2.071.021 1.634.033 3.267.034 4.9.003 2.618-.003 2.618-2.033 3.53l-.141.305c.28.103.531.272.784.276 1.652.024 3.304.025 4.957-.001.246-.005.49-.198.735-.305-.239-.176-.465-.471-.718-.503-.858-.107-1.232-.68-1.282-1.543-.05-.825-.011-1.657-.011-2.82.44.457.713.684.922.968.838 1.137 1.69 2.264 2.467 3.454.394.603.831.783 1.477.777 3.746-.03 7.505-.013 11.254-.019.278 0 .937-.05.937-.086v-3.115c-.905.631-1.256 1.552-2.016 1.81Zm-15.173-4.742v-4.513c1.809-.264 3.188.425 3.242 2.134.056 1.772-.528 2.484-3.242 2.379Zm-52.143-8.769c-.787-.7-5.566-.645-6.176.108.353.105.646.237.95.276.92.115 1.237.75.993 1.628-.704 2.537-1.481 5.048-2.32 7.877-.19-.542-.274-.754-.339-.975-.818-2.744-1.62-5.493-2.463-8.229-.128-.418-.435-.767-.66-1.147-.226.368-.538.703-.666 1.111-.927 2.955-1.817 5.923-2.718 8.888l-.241.031c-.665-2.243-1.34-4.48-1.994-6.728-.519-1.777-.4-1.989 1.247-2.541.17-.06.306-.243.46-.37-.142-.133-.283-.38-.426-.381a258.912 258.912 0 0 0-6.17-.001c-.143.002-.286.246-.429.377.114.122.224.346.344.352 1.83.099 2.277 1.638 2.725 3.187 1.044 3.606 2.086 7.214 3.143 10.817.123.42.328.811.495 1.215l.32-.022 3.275-10.855L13.539 126l.382-.03c.136-.391.288-.776.409-1.173 1.156-3.828 2.316-7.652 3.454-11.486.425-1.434 1.116-2.472 2.609-2.537.174-.007.345-.168.559-.28Zm43.942-.196c-2.647-.343-5.344-.205-8.019-.249-.137-.003-.28.252-.532.494.344.126.534.249.728.258 1.287.058 1.86.901 1.875 2.219.033 3.1.037 6.2-.003 9.3-.017 1.279-.513 2.194-1.836 2.249-.204.009-.397.309-.594.475.237.118.472.335.71.338 1.982.026 3.966.027 5.948-.002.227-.003.451-.238.678-.365-.207-.155-.402-.425-.62-.445-.96-.091-1.638-.539-1.74-1.66-.122-1.325-.165-2.661-.248-4.123.948 0 1.757.068 2.554-.013 1.89-.192 3.558-.881 4.235-3.083.755-2.456-.631-5.071-3.136-5.393Zm.378 5.818c-.585 1.197-1.224 1.454-3.939 1.174v-5.924c.905.057 2.874-.406 3.833 1.161.692 1.135.692 2.39.106 3.589Zm-35.851-1.345c-2.456-2.315-6.413-2.213-8.805.172a6.338 6.338 0 0 0-.644 8.243c1.308 1.802 3.073 2.558 5.242 2.663.382-.052.903-.063 1.395-.202 2.369-.668 4.111-2.139 4.722-4.886.54-2.435-.247-4.421-1.91-5.99Zm-1.59 8.475c-1.557 2.208-4.736 1.742-5.925-.74-.798-1.664-.865-3.43-.348-5.213.584-2.004 1.782-2.989 3.564-2.985 1.788.004 3.005.985 3.586 2.967.202.691.28 1.425.414 2.139l.203.147c-.485 1.241-.769 2.657-1.494 3.685Zm79.733-4.617c-.98-.551-1.996-1.046-2.909-1.714-.349-.255-.705-1.004-.607-1.382.121-.464.664-.967 1.116-1.117 1.315-.439 2.468.465 3.001 2.13.106.331.529.6.72.896.078-.064.396-.13.396-.196v-4.403c-.905.452-.893.713-.969.787-1.237-.174-2.316-.456-3.306-.423-1.334.044-2.452 1.076-2.753 2.294-.336 1.364.093 2.708 1.231 3.641.321.262.675.465 1.032.669.814.464 1.649.875 2.444 1.378.724.458 1.394 1.064 1.102 2.138-.321 1.173-1.227 1.3-2.154 1.194-1.624-.186-2.535-1.292-3.008-2.958-.071-.252-.316-.445-.478-.664-.104.142-.295.281-.298.425-.021 1.486-.014 2.973-.014 4.459l.344.116.775-1.133c.508.269 1.015.608 1.564.816 1.989.747 4.209-.253 4.941-2.186.723-1.905-.038-3.567-2.17-4.767Zm-9.788-.016c-.885-.494-1.776-.971-2.647-1.493-.622-.369-1.209-.98-.802-1.739.278-.517.997-.948 1.563-1.025 1.202-.163 2.022.692 2.54 2.233.105.308.37.549.562.819l.286-.213c0-1.224.001-2.446-.005-3.669 0-.109-.066-.219-.169-.538l-.975.892c-.182-.105-.401-.245-.634-.357-1.899-.909-4.17-.183-4.911 1.566-.744 1.758.132 3.62 2.21 4.748a42.274 42.274 0 0 1 2.722 1.581c.66.423 1.13 1.191.737 1.937-.292.555-1.016 1.051-1.603 1.145-1.405.227-2.628-.706-3.233-2.198-.133-.33-.17-.714-.321-1.03-.083-.17-.32-.247-.486-.364-.087.157-.245.314-.247.474a131.68 131.68 0 0 0-.002 3.92c.003.163.126.418.24.459.122.042.351-.081.444-.21.154-.215.238-.494.388-.826.57.309 1.042.631 1.555.832 1.964.775 4.256-.202 4.992-2.09.752-1.938-.017-3.635-2.204-4.854Zm-42.62-21.706c23.966-.039 43.365-21.72 43.364-48.465C98.52 22.134 79.21.466 56.14.008c-24.227-.48-44.472 21.385-44.478 47.9-.009 27.277 19.304 49.04 43.494 49Zm-.07-94.552c23.008-.008 41.34 20.782 41.333 46.875-.007 24.634-18.825 45.242-41.315 45.247-22.914.005-41.34-20.657-41.34-46.353.001-25.033 18.714-45.76 41.322-45.769ZM37.72 26.67c.376 1.393-.677 1.88-1.797 1.975-1.177.102-2.356.2-3.723.316l13.512 44.769c.325-.59.459-.757.517-.951 2.5-8.306 5.012-16.607 7.448-24.937.222-.76.112-1.766-.132-2.547-1.288-4.136-2.832-8.183-3.962-12.37-.773-2.867-1.799-4.721-4.844-4.389-.519.056-1.151-1.185-1.733-1.827.703-.466 1.4-1.324 2.11-1.336a536.328 536.328 0 0 1 18.611.006c.71.013 1.409.894 2.113 1.372-.616.626-1.147 1.564-1.867 1.805-1.154.388-2.434.314-3.816.451l13.528 44.759c2.05-7.57 3.957-14.523 5.81-21.492 1.655-6.222.669-12.032-2.322-17.512-.9-1.648-2.005-3.247-2.513-5.044-.58-2.044-1.06-4.371-.753-6.421.52-3.476 2.918-5.201 6.163-5.531C62.315-.56 34.417 6 24.137 25.91c3.957-.204 7.735-.471 11.516-.527.715-.01 1.9.66 2.068 1.285Zm7.074 60.63c-.084.269-.088.567-.152 1.013 7.652 2.359 15.154 2.189 22.834-.689l-11.733-35.74C51.99 64.023 48.388 75.66 44.794 87.3Zm-5.913-1.616L21.206 31.756c-7.974 17.323-1.908 43.755 17.676 53.927ZM92.32 51.031c.56-8.191-1.98-19.533-4.175-21.092-.244 3.012-.074 6.366-.851 9.42-1.83 7.196-4.067 14.268-6.222 21.36-2.342 7.707-4.776 15.38-7.172 23.069C85.152 76.369 91.335 65.42 92.32 51.03Z" clip-rule="evenodd"/></g><defs><clipPath id="a"><path fill="#fff" d="M0 0h110v126H0z"/></clipPath></defs></svg>