<svg xmlns="http://www.w3.org/2000/svg" width="120" height="120" fill="none"><path fill="#fff" d="M60 24.321c-19.473 0-35.304 15.83-35.33 35.304 0 6.67 1.875 13.179 5.41 18.777l.83 1.34-3.562 13.017 13.366-3.509 1.286.777a35.21 35.21 0 0 0 17.973 4.928H60c19.446 0 35.705-15.83 35.705-35.303 0-9.429-4.071-18.295-10.74-24.965C78.267 27.992 69.428 24.322 60 24.322Zm20.759 50.465c-.884 2.49-5.116 4.74-7.152 5.035-3.375.51-6 .242-12.723-2.651C50.25 72.562 43.286 61.848 42.75 61.152c-.536-.697-4.34-5.76-4.34-10.982 0-5.224 2.733-7.795 3.724-8.866.964-1.072 2.116-1.34 2.84-1.34.696 0 1.419 0 2.035.027.643.027 1.527-.241 2.384 1.822.884 2.116 3 7.339 3.268 7.874.268.536.455 1.152.08 1.849-2.036 4.071-4.205 3.91-3.107 5.785 4.098 7.045 8.196 9.483 14.437 12.617 1.072.535 1.688.455 2.304-.268.616-.697 2.652-3.108 3.348-4.152.697-1.072 1.42-.884 2.384-.536s6.188 2.92 7.26 3.456c1.07.535 1.767.803 2.035 1.232.24.509.24 2.651-.643 5.116ZM107.143 0H12.857C5.76 0 0 5.759 0 12.857v94.286C0 114.241 5.759 120 12.857 120h94.286c7.098 0 12.857-5.759 12.857-12.857V12.857C120 5.76 114.241 0 107.143 0Zm-47.17 102.107a42.444 42.444 0 0 1-20.303-5.17l-22.527 5.92 6.027-22.018C19.446 74.411 17.49 67.1 17.49 59.6c.027-23.411 19.072-42.456 42.482-42.456 11.357 0 22.018 4.42 30.054 12.455 8.009 8.036 12.83 18.697 12.83 30.054 0 23.41-19.473 42.455-42.884 42.455Z"/></svg>